<svg width="64" height="64" viewBox="0 0 64 64" fill="none" xmlns="http://www.w3.org/2000/svg">
<path d="M21.333 5.33337V13.3334" stroke="#E30613" stroke-width="4" stroke-miterlimit="10" stroke-linecap="round" stroke-linejoin="round"/>
<path d="M42.667 5.33337V13.3334" stroke="#E30613" stroke-width="4" stroke-miterlimit="10" stroke-linecap="round" stroke-linejoin="round"/>
<path d="M42.6667 9.33337C51.5467 9.81337 56 13.2 56 25.7334V42.2134C56 53.2 53.3333 58.6934 40 58.6934H24C10.6667 58.6934 8 53.2 8 42.2134V25.7334C8 13.2 12.4533 9.84004 21.3333 9.33337H42.6667Z" stroke="#E30613" stroke-width="4" stroke-miterlimit="10" stroke-linecap="round" stroke-linejoin="round"/>
<path d="M55.3337 46.9323H8.66699" stroke="#E30613" stroke-width="4" stroke-miterlimit="10" stroke-linecap="round" stroke-linejoin="round"/>
<path d="M31.9997 22C28.7197 22 25.9463 23.7867 25.9463 27.2533C25.9463 28.9067 26.7197 30.16 27.893 30.96C26.2663 31.92 25.333 33.4667 25.333 35.28C25.333 38.5867 27.8663 40.64 31.9997 40.64C36.1063 40.64 38.6663 38.5867 38.6663 35.28C38.6663 33.4667 37.733 31.8933 36.0797 30.96C37.2797 30.1333 38.0263 28.9067 38.0263 27.2533C38.0263 23.7867 35.2797 22 31.9997 22ZM31.9997 29.5733C30.613 29.5733 29.5997 28.7467 29.5997 27.44C29.5997 26.1067 30.613 25.3333 31.9997 25.3333C33.3863 25.3333 34.3997 26.1067 34.3997 27.44C34.3997 28.7467 33.3863 29.5733 31.9997 29.5733ZM31.9997 37.3333C30.2397 37.3333 28.9597 36.4533 28.9597 34.8533C28.9597 33.2533 30.2397 32.4 31.9997 32.4C33.7597 32.4 35.0397 33.28 35.0397 34.8533C35.0397 36.4533 33.7597 37.3333 31.9997 37.3333Z" fill="#E30613"/>
</svg>
