<svg width="491" height="416" fill="none" xmlns="http://www.w3.org/2000/svg"><path fill-rule="evenodd" clip-rule="evenodd" d="M336.426 279.581c-14.617-10.941-39.46-33.611-54.97-46.448-13.419-11.11-59.399-51.533-69.321-58.514-24.082-16.928-35.373 12.723-42.121 26.236L6.549 522.235c-3.023 6.024-7.337 11.128-6.425 20.024 7.394 3.885 18.076 2.496 28.588 2.515 31.552.037 24.101 2.12 49.343-47.705l119.463-234.753c2.985-5.781 8.041-17.266 11.386-21.207 4.448 1.558 104.314 88.054 116.27 97.681 31.191 25.129 37.274-1.483 64.816-44.627l116.25-183.839c4.391-6.906 11.481-20.212 16.708-25.936l113.286 221.917c4.789 9.496 13.381 30.74 20.471 34.962 6.557 3.904 46.606 3.434 52.974.169 1.825-6.568-4.6-15.633-7.413-21.188-3.478-6.831-7.147-13.831-10.53-20.793l-62.897-124.236c-14.616-27.474-27.275-54.949-41.74-82.573l-41.855-82.48c-9.808-15.952-30.26-11.504-39.232 2.12-8.705 13.23-16.289 25.617-24.292 38.472L361.06 241.653c-4.391 6.925-7.907 12.593-12.108 19.255-3.668 5.799-8.648 14.826-12.526 18.673z" fill="#fff" fill-opacity=".02"/></svg>