<svg width="86" height="86" viewBox="0 0 86 86" fill="none" xmlns="http://www.w3.org/2000/svg">
<path d="M81.4628 9.98242H4.53314C3.33113 9.98438 2.17894 10.4629 1.32917 11.313C0.479411 12.1632 0.00142133 13.3156 0 14.5176L0 53.4521C0.00142249 54.6544 0.479689 55.8071 1.32989 56.6573C2.18009 57.5075 3.33279 57.9858 4.53516 57.9872H32.5859V67.765H25.8114C25.4996 67.765 25.2005 67.8889 24.98 68.1094C24.7595 68.3299 24.6356 68.629 24.6356 68.9408V74.8426C24.6356 75.1544 24.7595 75.4535 24.98 75.674C25.2005 75.8945 25.4996 76.0183 25.8114 76.0183H60.1886C60.5004 76.0183 60.7995 75.8945 61.02 75.674C61.2405 75.4535 61.3644 75.1544 61.3644 74.8426V68.9408C61.3644 68.629 61.2405 68.3299 61.02 68.1094C60.7995 67.8889 60.5004 67.765 60.1886 67.765H53.4141V57.9872H81.4628C82.6652 57.9858 83.8179 57.5075 84.6681 56.6573C85.5183 55.8071 85.9966 54.6544 85.998 53.4521V14.5176C85.9966 13.3152 85.5183 12.1625 84.6681 11.3123C83.8179 10.4621 82.6652 9.98384 81.4628 9.98242ZM59.0128 73.6668H26.9872V70.1166H59.0128V73.6668ZM51.0625 67.765H34.9375V57.9872H51.0625V67.765ZM83.6484 53.4541C83.6477 54.033 83.4174 54.588 83.0081 54.9973C82.5987 55.4067 82.0437 55.637 81.4648 55.6377H4.53314C3.95423 55.637 3.39924 55.4067 2.98989 54.9973C2.58054 54.588 2.35026 54.033 2.34955 53.4541V14.5176C2.35026 13.9387 2.58054 13.3837 2.98989 12.9743C3.39924 12.565 3.95423 12.3347 4.53314 12.334H81.4628C82.0417 12.3347 82.5967 12.565 83.0061 12.9743C83.4154 13.3837 83.6457 13.9387 83.6464 14.5176L83.6484 53.4541Z" fill="#E30613"/>
<path d="M78.1035 16.7012H7.89252C7.58108 16.7019 7.28264 16.8261 7.06261 17.0465C6.84258 17.2669 6.71893 17.5655 6.71875 17.877V50.0927C6.71893 50.4045 6.84286 50.7034 7.06332 50.9239C7.28379 51.1443 7.58275 51.2683 7.89453 51.2685H78.1055C78.4173 51.2685 78.7164 51.1446 78.9369 50.9241C79.1574 50.7036 79.2812 50.4045 79.2812 50.0927V17.877C79.2812 17.7224 79.2508 17.5693 79.1916 17.4265C79.1323 17.2838 79.0456 17.154 78.9362 17.0448C78.8268 16.9356 78.6969 16.8491 78.554 16.7901C78.4111 16.7311 78.258 16.7009 78.1035 16.7012ZM76.9297 48.9169H9.07031V19.0527H76.9297V48.9169Z" fill="#E30613"/>
<path d="M42.7722 44.5497C43.084 44.5495 43.383 44.4256 43.6034 44.2051C43.8239 43.9847 43.9478 43.6857 43.948 43.3739V35.1609H53.3543V43.3739C53.3543 43.6858 53.4781 43.9848 53.6986 44.2053C53.9191 44.4258 54.2182 44.5497 54.53 44.5497C54.8419 44.5497 55.1409 44.4258 55.3614 44.2053C55.5819 43.9848 55.7058 43.6858 55.7058 43.3739V27.9551C55.7044 26.7527 55.2261 25.6 54.3759 24.7498C53.5257 23.8996 52.373 23.4213 51.1707 23.4199H46.1316C44.9292 23.4213 43.7765 23.8996 42.9263 24.7498C42.0761 25.6 41.5979 26.7527 41.5964 27.9551V43.3739C41.5964 43.6858 41.7203 43.9848 41.9408 44.2053C42.1613 44.4258 42.4604 44.5497 42.7722 44.5497ZM46.1316 25.7715H51.1707C51.7496 25.7722 52.3046 26.0025 52.7139 26.4118C53.1233 26.8212 53.3535 27.3762 53.3543 27.9551V32.8094H43.948V27.9551C43.9487 27.3762 44.179 26.8212 44.5883 26.4118C44.9977 26.0025 45.5527 25.7722 46.1316 25.7715Z" fill="#E30613"/>
<path d="M59.6249 44.5497H64.6639C66.7577 44.5485 68.7654 43.7164 70.2463 42.2363C71.7271 40.7562 72.5602 38.7489 72.5625 36.6552V31.3144C72.5602 29.2214 71.7277 27.2147 70.2477 25.7347C68.7677 24.2547 66.761 23.4222 64.668 23.4199H59.6289C59.3171 23.4199 59.018 23.5438 58.7975 23.7643C58.577 23.9848 58.4531 24.2839 58.4531 24.5957V43.3739C58.4531 43.6851 58.5764 43.9835 58.7961 44.2039C59.0157 44.4243 59.3137 44.5486 59.6249 44.5497ZM60.8007 25.7715H64.666C66.1355 25.7733 67.5443 26.3578 68.5835 27.3969C69.6226 28.4361 70.2071 29.8449 70.2089 31.3144V36.6552C70.2073 38.1248 69.6228 39.5337 68.5837 40.5729C67.5445 41.612 66.1355 42.1965 64.666 42.1981H60.8007V25.7715Z" fill="#E30613"/>
<path d="M14.6112 25.7715H36.048C36.3599 25.7715 36.659 25.6476 36.8795 25.4271C37.1 25.2066 37.2238 24.9075 37.2238 24.5957C37.2238 24.2839 37.1 23.9848 36.8795 23.7643C36.659 23.5438 36.3599 23.4199 36.048 23.4199H14.6112C14.2994 23.4199 14.0003 23.5438 13.7798 23.7643C13.5593 23.9848 13.4354 24.2839 13.4354 24.5957C13.4354 24.9075 13.5593 25.2066 13.7798 25.4271C14.0003 25.6476 14.2994 25.7715 14.6112 25.7715Z" fill="#E30613"/>
<path d="M18.4653 28.1147C18.1534 28.1147 17.8544 28.2386 17.6339 28.4591C17.4134 28.6796 17.2895 28.9787 17.2895 29.2905C17.2895 29.6024 17.4134 29.9014 17.6339 30.1219C17.8544 30.3424 18.1534 30.4663 18.4653 30.4663H32.1944C32.5062 30.4663 32.8053 30.3424 33.0258 30.1219C33.2463 29.9014 33.3702 29.6024 33.3702 29.2905C33.3702 28.9787 33.2463 28.6796 33.0258 28.4591C32.8053 28.2386 32.5062 28.1147 32.1944 28.1147H18.4653Z" fill="#E30613"/>
<path d="M14.6112 35.1606H36.048C36.3599 35.1606 36.659 35.0368 36.8795 34.8163C37.1 34.5958 37.2238 34.2967 37.2238 33.9849C37.2238 33.673 37.1 33.374 36.8795 33.1535C36.659 32.933 36.3599 32.8091 36.048 32.8091H14.6112C14.2994 32.8091 14.0003 32.933 13.7798 33.1535C13.5593 33.374 13.4354 33.673 13.4354 33.9849C13.4354 34.2967 13.5593 34.5958 13.7798 34.8163C14.0003 35.0368 14.2994 35.1606 14.6112 35.1606Z" fill="#E30613"/>
<path d="M18.4653 37.5042C18.1534 37.5042 17.8544 37.628 17.6339 37.8485C17.4134 38.069 17.2895 38.3681 17.2895 38.6799C17.2895 38.9918 17.4134 39.2908 17.6339 39.5113C17.8544 39.7318 18.1534 39.8557 18.4653 39.8557H32.1944C32.5062 39.8557 32.8053 39.7318 33.0258 39.5113C33.2463 39.2908 33.3702 38.9918 33.3702 38.6799C33.3702 38.3681 33.2463 38.069 33.0258 37.8485C32.8053 37.628 32.5062 37.5042 32.1944 37.5042H18.4653Z" fill="#E30613"/>
<path d="M14.6112 44.5498H36.048C36.3599 44.5498 36.659 44.4259 36.8795 44.2054C37.1 43.9849 37.2238 43.6859 37.2238 43.374C37.2238 43.0622 37.1 42.7631 36.8795 42.5426C36.659 42.3221 36.3599 42.1982 36.048 42.1982H14.6112C14.2994 42.1982 14.0003 42.3221 13.7798 42.5426C13.5593 42.7631 13.4354 43.0622 13.4354 43.374C13.4354 43.6859 13.5593 43.9849 13.7798 44.2054C14.0003 44.4259 14.2994 44.5498 14.6112 44.5498Z" fill="#E30613"/>
</svg>
