<svg width="72" height="72" viewBox="0 0 72 72" fill="none" xmlns="http://www.w3.org/2000/svg">
<path d="M68.2008 29.2308C70.5036 27.4764 72 24.7128 72 21.6C72 16.3068 67.6932 12 62.4 12C57.1068 12 52.8 16.3068 52.8 21.6C52.8 24.468 54.0708 27.0396 56.0712 28.8H49.6968L41.6484 20.7516C41.1792 20.2824 40.4208 20.2824 39.9516 20.7516L35.1516 25.5516C34.6824 26.0208 34.6824 26.7792 35.1516 27.2484L45.9516 38.0484C46.176 38.274 46.4808 38.4 46.8 38.4H56.4V46.8H50.4H35.8416L41.7984 37.866L39.8016 36.5352L32.958 46.8H30V40.8C30 40.1364 29.4636 39.6 28.8 39.6H19.2V34.8C19.2 32.2704 17.6208 30.1116 15.4008 29.2308C17.7036 27.4764 19.2 24.7128 19.2 21.6C19.2 16.3068 14.8932 12 9.6 12C4.3068 12 0 16.3068 0 21.6C0 24.7128 1.4964 27.4764 3.7992 29.2308C1.5792 30.1116 0 32.2704 0 34.8V51.6C0 54.9084 2.6916 57.6 6 57.6V72H8.4V57.6H16.8V70.8C16.8 71.4636 17.3364 72 18 72H26.4C27.0636 72 27.6 71.4636 27.6 70.8V52.8C27.6 51.45 27.1524 50.2032 26.3976 49.2H27.6H28.8H34.8V69.6H30V72H42V69.6H37.2V49.2H45.6312C44.8692 50.2056 44.4 51.444 44.4 52.8V70.8C44.4 71.4636 44.9364 72 45.6 72H54C54.6636 72 55.2 71.4636 55.2 70.8V57.6H63.6V72H66V57.6C69.3084 57.6 72 54.9084 72 51.6V34.8C72 32.2704 70.4208 30.1116 68.2008 29.2308ZM2.4 21.6C2.4 17.6292 5.6292 14.4 9.6 14.4C13.5708 14.4 16.8 17.6292 16.8 21.6C16.8 25.5708 13.5708 28.8 9.6 28.8C5.6292 28.8 2.4 25.5708 2.4 21.6ZM27.6 46.8H12V37.2H9.6V48C9.6 48.6636 10.1364 49.2 10.8 49.2H21.6C23.5848 49.2 25.2 50.8152 25.2 52.8V69.6H19.2V56.4C19.2 55.7364 18.6636 55.2 18 55.2H6C4.0152 55.2 2.4 53.5848 2.4 51.6V34.8C2.4 32.8152 4.0152 31.2 6 31.2H13.2C15.1848 31.2 16.8 32.8152 16.8 34.8V40.8C16.8 41.4636 17.3364 42 18 42H27.6V46.8ZM55.2 21.6C55.2 17.6292 58.4292 14.4 62.4 14.4C66.3708 14.4 69.6 17.6292 69.6 21.6C69.6 25.5708 66.3708 28.8 62.4 28.8C58.4292 28.8 55.2 25.5708 55.2 21.6ZM69.6 51.6C69.6 53.5848 67.9848 55.2 66 55.2H54C53.3364 55.2 52.8 55.7364 52.8 56.4V69.6H46.8V52.8C46.8 50.8152 48.4152 49.2 50.4 49.2H57.6C58.2636 49.2 58.8 48.6636 58.8 48V37.2C58.8 36.5364 58.2636 36 57.6 36H47.2968L37.6968 26.4L40.8 23.2968L48.3516 30.8484C48.576 31.074 48.8808 31.2 49.2 31.2H66C67.9848 31.2 69.6 32.8152 69.6 34.8V51.6Z" fill="#E30613"/>
<path d="M48 0H24C22.0152 0 20.4 1.6152 20.4 3.6V13.2C20.4 15.1848 22.0152 16.8 24 16.8H25.2V24C25.2 24.4848 25.4916 24.924 25.9404 25.1088C26.0892 25.1712 26.2452 25.2 26.4 25.2C26.712 25.2 27.0192 25.0776 27.2484 24.8484L35.2968 16.8H48C49.9848 16.8 51.6 15.1848 51.6 13.2V3.6C51.6 1.6152 49.9848 0 48 0ZM49.2 13.2C49.2 13.8624 48.6624 14.4 48 14.4H34.8C34.4808 14.4 34.176 14.526 33.9516 14.7516L27.6 21.1032V15.6C27.6 14.9364 27.0636 14.4 26.4 14.4H24C23.3376 14.4 22.8 13.8624 22.8 13.2V3.6C22.8 2.9376 23.3376 2.4 24 2.4H48C48.6624 2.4 49.2 2.9376 49.2 3.6V13.2Z" fill="#E30613"/>
<path d="M32.4 4.80005H25.2V7.20005H32.4V4.80005Z" fill="#E30613"/>
<path d="M46.8 9.6001H25.2V12.0001H46.8V9.6001Z" fill="#E30613"/>
<path d="M46.8 4.80005H34.8V7.20005H46.8V4.80005Z" fill="#E30613"/>
</svg>
