<svg width="64" height="64" viewBox="0 0 64 64" fill="none" xmlns="http://www.w3.org/2000/svg">
<path d="M52.7731 39.8141C47.2797 45.2808 39.4131 46.9608 32.5064 44.8008L19.9464 57.3341C19.0397 58.2675 17.2531 58.8275 15.9731 58.6408L10.1597 57.8408C8.23974 57.5741 6.45307 55.7608 6.15974 53.8408L5.35974 48.0275C5.17307 46.7475 5.78641 44.9608 6.66641 44.0541L19.1997 31.5208C17.0664 24.5875 18.7197 16.7208 24.2131 11.2541C32.0797 3.38746 44.8531 3.38746 52.7464 11.2541C60.6397 19.1208 60.6397 31.9475 52.7731 39.8141Z" stroke="#E30613" stroke-width="4" stroke-miterlimit="10" stroke-linecap="round" stroke-linejoin="round"/>
<path d="M18.373 46.6406L24.5064 52.774" stroke="#E30613" stroke-width="4" stroke-miterlimit="10" stroke-linecap="round" stroke-linejoin="round"/>
<path d="M38.667 29.3334C40.8761 29.3334 42.667 27.5425 42.667 25.3334C42.667 23.1242 40.8761 21.3334 38.667 21.3334C36.4579 21.3334 34.667 23.1242 34.667 25.3334C34.667 27.5425 36.4579 29.3334 38.667 29.3334Z" stroke="#E30613" stroke-width="4" stroke-linecap="round" stroke-linejoin="round"/>
</svg>
