<svg width="72" height="72" viewBox="0 0 72 72" fill="none" xmlns="http://www.w3.org/2000/svg">
<path d="M36 42C32.6864 42 30 44.6864 30 48C30.0039 51.312 32.688 53.9961 36 54C39.3137 54 42 51.3137 42 48C42 44.6864 39.3137 42 36 42ZM36 51.6C34.0118 51.6 32.4 49.9883 32.4 48C32.4 46.0118 34.0118 44.4 36 44.4C37.9883 44.4 39.6 46.0118 39.6 48C39.6 49.9883 37.9883 51.6 36 51.6Z" fill="#E30613"/>
<path d="M40.8 55.2H31.2C27.888 55.2039 25.2039 57.888 25.2 61.2V70.8C25.2 71.4627 25.7373 72 26.4 72H45.6C46.2627 72 46.8 71.4627 46.8 70.8V61.2C46.7961 57.888 44.112 55.2039 40.8 55.2ZM44.4 69.6H42V64.8C42 64.1373 41.4627 63.6 40.8 63.6C40.1373 63.6 39.6 64.1373 39.6 64.8V69.6H32.4V64.8C32.4 64.1373 31.8627 63.6 31.2 63.6C30.5373 63.6 30 64.1373 30 64.8V69.6H27.6V61.2C27.6 59.2117 29.2118 57.6 31.2 57.6H40.8C42.7883 57.6 44.4 59.2117 44.4 61.2V69.6Z" fill="#E30613"/>
<path d="M12 42C8.68635 42 6 44.6864 6 48C6.0039 51.312 8.688 53.9961 12 54C15.3137 54 18 51.3137 18 48C18 44.6864 15.3137 42 12 42ZM12 51.6C10.0118 51.6 8.4 49.9883 8.4 48C8.4 46.0118 10.0118 44.4 12 44.4C13.9883 44.4 15.6 46.0118 15.6 48C15.6 49.9883 13.9883 51.6 12 51.6Z" fill="#E30613"/>
<path d="M60 42C56.6864 42 54 44.6864 54 48C54.0039 51.312 56.688 53.9961 60 54C63.3137 54 66 51.3137 66 48C66 44.6864 63.3137 42 60 42ZM60 51.6C58.0118 51.6 56.4 49.9883 56.4 48C56.4 46.0118 58.0118 44.4 60 44.4C61.9883 44.4 63.6 46.0118 63.6 48C63.6 49.9883 61.9883 51.6 60 51.6Z" fill="#E30613"/>
<path d="M16.8 55.2H7.20001C3.88801 55.2039 1.20391 57.888 1.20001 61.2V70.8C1.20001 71.4627 1.73731 72 2.40001 72H21.6C22.2627 72 22.8 71.4627 22.8 70.8V61.2C22.7961 57.888 20.112 55.2039 16.8 55.2ZM20.4 69.6H18V64.8C18 64.1373 17.4627 63.6 16.8 63.6C16.1373 63.6 15.6 64.1373 15.6 64.8V69.6H8.40001V64.8C8.40001 64.1373 7.86271 63.6 7.20001 63.6C6.53731 63.6 6.00001 64.1373 6.00001 64.8V69.6H3.60001V61.2C3.60001 59.2117 5.21176 57.6 7.20001 57.6H16.8C18.7883 57.6 20.4 59.2117 20.4 61.2V69.6Z" fill="#E30613"/>
<path d="M64.8 55.2H55.2C51.888 55.2039 49.2039 57.888 49.2 61.2V70.8C49.2 71.4627 49.7373 72 50.4 72H69.6C70.2627 72 70.8 71.4627 70.8 70.8V61.2C70.7961 57.888 68.112 55.2039 64.8 55.2ZM68.4 69.6H66V64.8C66 64.1373 65.4627 63.6 64.8 63.6C64.1373 63.6 63.6 64.1373 63.6 64.8V69.6H56.4V64.8C56.4 64.1373 55.8627 63.6 55.2 63.6C54.5373 63.6 54 64.1373 54 64.8V69.6H51.6V61.2C51.6 59.2117 53.2118 57.6 55.2 57.6H64.8C66.7883 57.6 68.4 59.2117 68.4 61.2V69.6Z" fill="#E30613"/>
<path d="M68.4 0H3.6C1.61175 0 0 1.61175 0 3.6C0 5.58825 1.61175 7.2 3.6 7.2V38.4C3.6 39.0627 4.1373 39.6 4.8 39.6H67.2C67.8627 39.6 68.4 39.0627 68.4 38.4V7.2C70.3883 7.2 72 5.58825 72 3.6C72 1.61175 70.3883 0 68.4 0ZM66 37.2H6V7.2H66V37.2ZM68.4 4.8H3.6C2.9373 4.8 2.4 4.2627 2.4 3.6C2.4 2.9373 2.9373 2.4 3.6 2.4H68.4C69.0627 2.4 69.6 2.9373 69.6 3.6C69.6 4.2627 69.0627 4.8 68.4 4.8Z" fill="#E30613"/>
<path d="M53.6189 12.3515C53.1539 11.9024 52.4167 11.9024 51.9515 12.3515L35.9999 28.3031L27.8483 20.1515C27.3797 19.683 26.6201 19.683 26.1515 20.1515L15.9515 30.3515C15.4829 30.8202 15.4831 31.58 15.9518 32.0486C16.1768 32.2734 16.4819 32.3999 16.7999 32.3999C17.1182 32.3999 17.4233 32.2733 17.6483 32.0483L26.9999 22.6967L35.1515 30.8483C35.6201 31.3167 36.3797 31.3167 36.8483 30.8483L53.6483 14.0483C54.1088 13.5716 54.0956 12.812 53.6189 12.3515Z" fill="#E30613"/>
</svg>
