<svg width="64" height="64" viewBox="0 0 64 64" fill="none" xmlns="http://www.w3.org/2000/svg">
<path d="M34.6937 7.7875L50.427 14.7742C54.9604 16.7742 54.9604 20.0808 50.427 22.0808L34.6937 29.0675C32.907 29.8675 29.9737 29.8675 28.187 29.0675L12.4537 22.0808C7.92038 20.0808 7.92038 16.7742 12.4537 14.7742L28.187 7.7875C29.9737 6.9875 32.907 6.9875 34.6937 7.7875Z" stroke="#E30613" stroke-width="4" stroke-linecap="round" stroke-linejoin="round"/>
<path d="M8 29.3334C8 31.5734 9.68 34.16 11.7333 35.0667L29.84 43.12C31.2267 43.7334 32.8 43.7334 34.16 43.12L52.2667 35.0667C54.32 34.16 56 31.5734 56 29.3334" stroke="#E30613" stroke-width="4" stroke-linecap="round" stroke-linejoin="round"/>
<path d="M8 42.6666C8 45.1466 9.46667 47.3866 11.7333 48.4L29.84 56.4533C31.2267 57.0666 32.8 57.0666 34.16 56.4533L52.2667 48.4C54.5333 47.3866 56 45.1466 56 42.6666" stroke="#E30613" stroke-width="4" stroke-linecap="round" stroke-linejoin="round"/>
</svg>
