<svg width="72" height="72" viewBox="0 0 72 72" fill="none" xmlns="http://www.w3.org/2000/svg">
<path d="M35.9999 15.75C32.2725 15.75 29.2499 12.7283 29.2499 9C29.2499 5.27256 32.2725 2.25 35.9999 2.25C39.7282 2.25 42.7499 5.27256 42.7499 9C42.746 12.7266 39.7265 15.746 35.9999 15.75ZM35.9999 4.5C33.5148 4.5 31.4999 6.51489 31.4999 9C31.4999 11.4851 33.5148 13.5 35.9999 13.5C38.485 13.5 40.4999 11.4851 40.4999 9C40.4999 6.51489 38.485 4.5 35.9999 4.5Z" fill="#E30613"/>
<path d="M59.625 28.125H49.5V24.75C49.4951 20.4029 45.972 16.8798 41.625 16.875H30.375C26.0279 16.8798 22.5048 20.4029 22.5 24.75V28.125H13.5V39.375H18V46.125H20.25V39.375H51.75V46.125H54V39.375H59.625V28.125ZM24.75 24.75C24.7539 21.6448 27.2698 19.129 30.375 19.125H41.625C44.7301 19.129 47.246 21.6448 47.25 24.75V28.125H24.75V24.75ZM57.375 37.125H15.75V30.375H57.375V37.125Z" fill="#E30613"/>
<path d="M69.75 53.9997C69.7571 51.1467 67.9703 48.597 65.2856 47.6311C62.6006 46.6648 59.5987 47.4914 57.7864 49.6948C55.9741 51.8986 55.7434 55.0038 57.2098 57.4511C56.5739 57.3492 55.9257 57.3492 55.2903 57.4511C56.9883 54.6175 56.3858 50.9718 53.8665 48.8352C51.3479 46.6982 47.6521 46.6982 45.1336 48.8352C42.6143 50.9718 42.0122 54.6175 43.7098 57.4511C43.0739 57.3492 42.4257 57.3492 41.7903 57.4511C43.4883 54.6175 42.8858 50.9718 40.3665 48.8352C37.8479 46.6982 34.1521 46.6982 31.6336 48.8352C29.1143 50.9718 28.5122 54.6175 30.2098 57.4511C29.5744 57.3492 28.9262 57.3492 28.2903 57.4511C29.9883 54.6175 29.3858 50.9718 26.8665 48.8352C24.3479 46.6982 20.6522 46.6982 18.1336 48.8352C15.6143 50.9718 15.0122 54.6175 16.7098 57.4511C16.0744 57.3492 15.4262 57.3492 14.7903 57.4511C16.2567 55.0038 16.026 51.8986 14.2137 49.6948C12.4014 47.4914 9.39951 46.6648 6.71489 47.6311C4.02984 48.597 2.24302 51.1467 2.25005 53.9997C2.25049 55.2156 2.58228 56.4088 3.20982 57.4511C2.89209 57.4028 2.57129 57.3773 2.25005 57.3747V59.6247C4.12827 59.6141 5.81226 60.7769 6.46836 62.5369C7.12403 64.2965 6.61162 66.2784 5.18516 67.4997H2.25005V69.7497H69.75V67.4997H66.8149C65.3885 66.2784 64.8761 64.2965 65.5317 62.5369C66.1878 60.7769 67.8718 59.6141 69.75 59.6247V57.3747C69.4288 57.3773 69.108 57.4028 68.7903 57.4511C69.4178 56.4088 69.7496 55.2156 69.75 53.9997ZM63 49.4997C65.4852 49.4997 67.5 51.5146 67.5 53.9997C67.5 56.4848 65.4852 58.4997 63 58.4997C60.5149 58.4997 58.5 56.4848 58.5 53.9997C58.5 51.5146 60.5149 49.4997 63 49.4997ZM49.5 49.4997C51.9852 49.4997 54 51.5146 54 53.9997C54 56.4848 51.9852 58.4997 49.5 58.4997C47.0149 58.4997 45 56.4848 45 53.9997C45 51.5146 47.0149 49.4997 49.5 49.4997ZM50.4598 60.6732C49.1933 62.769 49.1792 65.3903 50.4225 67.4997H48.5776C49.8209 65.3903 49.8063 62.769 48.5403 60.6732C49.1757 60.7747 49.8239 60.7747 50.4598 60.6732ZM47.25 64.1247C47.2377 65.4219 46.6678 66.652 45.6852 67.4997H39.8149C38.2522 66.1396 37.8225 63.8869 38.7761 62.0478C39.7292 60.2087 41.818 59.2604 43.8298 59.7539C45.842 60.2469 47.2553 62.0531 47.25 64.1247ZM36.9225 67.4997H35.0776C36.3209 65.3903 36.3068 62.769 35.0403 60.6732C35.6762 60.7747 36.3244 60.7747 36.9598 60.6732C35.6938 62.769 35.6792 65.3903 36.9225 67.4997ZM36 49.4997C38.4852 49.4997 40.5 51.5146 40.5 53.9997C40.5 56.4848 38.4852 58.4997 36 58.4997C33.5149 58.4997 31.5 56.4848 31.5 53.9997C31.5 51.5146 33.5149 49.4997 36 49.4997ZM33.75 64.1247C33.7382 65.4219 33.1678 66.652 32.1852 67.4997H26.3149C24.7522 66.1396 24.3229 63.8869 25.2765 62.0478C26.2292 60.2087 28.318 59.2604 30.3302 59.7539C32.342 60.2469 33.7558 62.0531 33.75 64.1247ZM23.4225 67.4997H21.5776C22.8209 65.3903 22.8068 62.769 21.5403 60.6732C22.1762 60.7747 22.8244 60.7747 23.4598 60.6732C22.1938 62.769 22.1793 65.3903 23.4225 67.4997ZM22.5001 49.4997C24.9852 49.4997 27 51.5146 27 53.9997C27 56.4848 24.9852 58.4997 22.5001 58.4997C20.0149 58.4997 18.0001 56.4848 18.0001 53.9997C18.0001 51.5146 20.0149 49.4997 22.5001 49.4997ZM9.00005 49.4997C11.4852 49.4997 13.5001 51.5146 13.5001 53.9997C13.5001 56.4848 11.4852 58.4997 9.00005 58.4997C6.51494 58.4997 4.50005 56.4848 4.50005 53.9997C4.50005 51.5146 6.51494 49.4997 9.00005 49.4997ZM8.04029 60.6732C8.35801 60.7215 8.67881 60.747 9.00005 60.7497C9.32129 60.747 9.64209 60.7215 9.95982 60.6732C8.69375 62.769 8.67925 65.3903 9.92246 67.4997H8.07764C8.67617 66.4753 8.9939 65.3112 9.00005 64.1247C8.99961 62.9083 8.66782 61.7151 8.04029 60.6732ZM12.7745 67.4997C11.3705 66.2622 10.8787 64.2846 11.5405 62.5334C12.2019 60.7826 13.8784 59.6242 15.7501 59.6242C17.6217 59.6242 19.2982 60.7826 19.9596 62.5334C20.6214 64.2846 20.1296 66.2622 18.7256 67.4997H12.7745ZM53.2745 67.4997C51.8705 66.2622 51.3787 64.2846 52.0405 62.5334C52.7019 60.7826 54.3784 59.6242 56.25 59.6242C58.1217 59.6242 59.7982 60.7826 60.4596 62.5334C61.1214 64.2846 60.6296 66.2622 59.2256 67.4997H53.2745ZM62.0776 67.4997C63.3209 65.3903 63.3063 62.769 62.0403 60.6732C62.6757 60.7747 63.3239 60.7747 63.9598 60.6732C62.6933 62.769 62.6792 65.3903 63.9225 67.4997H62.0776Z" fill="#E30613"/>
</svg>
