<svg width="72" height="72" fill="none" xmlns="http://www.w3.org/2000/svg"><g clip-path="url(#a)" fill="#E30613"><path d="M70.8 0H1.2A1.2 1.2 0 0 0 0 1.2v24h2.4V2.4h67.2v26.4h-42v2.4h43.2A1.2 1.2 0 0 0 72 30V1.2A1.2 1.2 0 0 0 70.8 0z"/><path d="M63.6 6h-24v2.4h24V6zM67.2 13.2h-24v2.4h24v-2.4zM62.4 20.4h-24v2.4h24v-2.4zM38.304 10.346a3.873 3.873 0 0 0-5.163-2.044l-9.73 5.047A5.935 5.935 0 0 0 24 10.8a6 6 0 0 0-12 0 5.94 5.94 0 0 0 1.23 3.6h-.05a8.235 8.235 0 0 0-7.649 5.327L2.328 30.77a3.843 3.843 0 0 0 5.01 4.951 3.876 3.876 0 0 0 2.207-2.307l1.255-3.994v17.367a5.942 5.942 0 0 0-3.6-1.23A5.991 5.991 0 0 0 3.013 55.84 5.528 5.528 0 0 0 0 60.744V70.8A1.2 1.2 0 0 0 1.2 72h12a1.2 1.2 0 0 0 1.2-1.2V60.744a5.516 5.516 0 0 0-2.141-4.344h9.082a5.515 5.515 0 0 0-2.14 4.344V70.8a1.2 1.2 0 0 0 1.198 1.2H32.4a1.2 1.2 0 0 0 1.2-1.2V60.744a5.528 5.528 0 0 0-3.013-4.904A5.995 5.995 0 0 0 25.2 45.677V21.129l11.016-5.72a3.873 3.873 0 0 0 2.088-5.063zM18 7.2a3.6 3.6 0 1 1 0 7.2 3.6 3.6 0 0 1 0-7.2zM7.2 47.956a3.6 3.6 0 1 1 0 7.2 3.6 3.6 0 0 1 0-7.2zM12 69.6H2.4v-8.856A3.149 3.149 0 0 1 5.545 57.6h3.31A3.149 3.149 0 0 1 12 60.744V69.6zm19.2-8.856V69.6h-9.6v-8.856a3.148 3.148 0 0 1 3.145-3.144h3.31a3.149 3.149 0 0 1 3.145 3.144zm-4.8-12.788a3.6 3.6 0 1 1 0 7.2 3.6 3.6 0 0 1 0-7.2zm9.708-35.608c-.16.412-.49.736-.905.888l-11.756 6.099A1.2 1.2 0 0 0 22.8 20.4v26.386A5.919 5.919 0 0 0 20.933 54H19.2V33.6h-2.4V54h-4.133a5.945 5.945 0 0 0 .528-2.4h.005v-30a1.2 1.2 0 0 0-2.345-.36L7.272 32.643a1.442 1.442 0 0 1-2.002.798 1.473 1.473 0 0 1-.67-1.906l3.203-11.041a5.798 5.798 0 0 1 5.378-3.694h8.496c.193 0 .382-.046.553-.135l11.927-6.19a1.477 1.477 0 0 1 1.888.699c.185.365.208.791.063 1.174zM49.787 55.84a6 6 0 1 0-8.374 0 5.528 5.528 0 0 0-3.013 4.904V70.8a1.2 1.2 0 0 0 1.2 1.2h12a1.2 1.2 0 0 0 1.2-1.2V60.744a5.528 5.528 0 0 0-3.013-4.904zM45.6 47.955a3.6 3.6 0 1 1 0 7.2 3.6 3.6 0 0 1 0-7.2zM50.4 69.6h-9.6v-8.856a3.149 3.149 0 0 1 3.145-3.144h3.31a3.149 3.149 0 0 1 3.145 3.144V69.6zM68.987 55.84a6 6 0 1 0-8.374 0 5.528 5.528 0 0 0-3.013 4.904V70.8a1.2 1.2 0 0 0 1.2 1.2h12a1.2 1.2 0 0 0 1.2-1.2V60.744a5.528 5.528 0 0 0-3.013-4.904zM64.8 47.955a3.6 3.6 0 1 1 0 7.2 3.6 3.6 0 0 1 0-7.2zM69.6 69.6H60v-8.856a3.148 3.148 0 0 1 3.145-3.144h3.31a3.149 3.149 0 0 1 3.145 3.144V69.6z"/></g><defs><clipPath id="a"><path fill="#fff" d="M0 0h72v72H0z"/></clipPath></defs></svg>