<svg width="72" height="72" fill="none" xmlns="http://www.w3.org/2000/svg"><path d="M36 42a6 6 0 0 0-6 6 6.007 6.007 0 0 0 6 6 6 6 0 0 0 0-12zm0 9.6a3.6 3.6 0 1 1 0-7.2 3.6 3.6 0 0 1 0 7.2zM40.8 55.2h-9.6a6.007 6.007 0 0 0-6 6v9.6a1.2 1.2 0 0 0 1.2 1.2h19.2a1.2 1.2 0 0 0 1.2-1.2v-9.6a6.007 6.007 0 0 0-6-6zm3.6 14.4H42v-4.8a1.2 1.2 0 0 0-2.4 0v4.8h-7.2v-4.8a1.2 1.2 0 0 0-2.4 0v4.8h-2.4v-8.4a3.6 3.6 0 0 1 3.6-3.6h9.6a3.6 3.6 0 0 1 3.6 3.6v8.4zM12 42a6 6 0 0 0-6 6 6.007 6.007 0 0 0 6 6 6 6 0 0 0 0-12zm0 9.6a3.6 3.6 0 1 1 0-7.2 3.6 3.6 0 0 1 0 7.2zM60 42a6 6 0 0 0-6 6 6.007 6.007 0 0 0 6 6 6 6 0 0 0 0-12zm0 9.6a3.6 3.6 0 1 1 0-7.2 3.6 3.6 0 0 1 0 7.2zM16.8 55.2H7.2a6.007 6.007 0 0 0-6 6v9.6A1.2 1.2 0 0 0 2.4 72h19.2a1.2 1.2 0 0 0 1.2-1.2v-9.6a6.007 6.007 0 0 0-6-6zm3.6 14.4H18v-4.8a1.2 1.2 0 0 0-2.4 0v4.8H8.4v-4.8a1.2 1.2 0 0 0-2.4 0v4.8H3.6v-8.4a3.6 3.6 0 0 1 3.6-3.6h9.6a3.6 3.6 0 0 1 3.6 3.6v8.4zM64.8 55.2h-9.6a6.007 6.007 0 0 0-6 6v9.6a1.2 1.2 0 0 0 1.2 1.2h19.2a1.2 1.2 0 0 0 1.2-1.2v-9.6a6.007 6.007 0 0 0-6-6zm3.6 14.4H66v-4.8a1.2 1.2 0 0 0-2.4 0v4.8h-7.2v-4.8a1.2 1.2 0 0 0-2.4 0v4.8h-2.4v-8.4a3.6 3.6 0 0 1 3.6-3.6h9.6a3.6 3.6 0 0 1 3.6 3.6v8.4zM68.4 0H3.6a3.6 3.6 0 1 0 0 7.2v31.2a1.2 1.2 0 0 0 1.2 1.2h62.4a1.2 1.2 0 0 0 1.2-1.2V7.2a3.6 3.6 0 1 0 0-7.2zM66 37.2H6v-30h60v30zm2.4-32.4H3.6a1.2 1.2 0 0 1 0-2.4h64.8a1.2 1.2 0 0 1 0 2.4z" fill="#E30613"/><path d="M53.619 12.351a1.2 1.2 0 0 0-1.667 0L36 28.303l-8.152-8.152a1.2 1.2 0 0 0-1.697 0l-10.2 10.2a1.2 1.2 0 0 0 1.697 1.697L27 22.697l8.151 8.151a1.2 1.2 0 0 0 1.697 0l16.8-16.8a1.2 1.2 0 0 0-.03-1.697z" fill="#E30613"/></svg>