<svg width="86" height="86" fill="none" xmlns="http://www.w3.org/2000/svg"><path d="M81.463 9.982H4.533A4.54 4.54 0 0 0 0 14.518v38.934a4.54 4.54 0 0 0 4.535 4.535h28.05v9.778h-6.774a1.176 1.176 0 0 0-1.175 1.176v5.902a1.176 1.176 0 0 0 1.175 1.175H60.19a1.176 1.176 0 0 0 1.175-1.175V68.94a1.176 1.176 0 0 0-1.175-1.176h-6.775v-9.778h28.049a4.54 4.54 0 0 0 4.535-4.535V14.518a4.54 4.54 0 0 0-4.535-4.536zm-22.45 63.685H26.987v-3.55h32.026v3.55zm-7.95-5.902H34.936v-9.778h16.126v9.778zm32.585-14.31a2.186 2.186 0 0 1-2.183 2.183H4.533a2.186 2.186 0 0 1-2.183-2.184V14.518a2.186 2.186 0 0 1 2.183-2.184h76.93a2.187 2.187 0 0 1 2.183 2.184l.002 38.936z" fill="#E30613"/><path d="M78.103 16.701H7.894a1.176 1.176 0 0 0-1.174 1.176v32.216a1.176 1.176 0 0 0 1.176 1.175h70.21a1.176 1.176 0 0 0 1.176-1.175V17.877a1.176 1.176 0 0 0-1.178-1.176zM76.93 48.917H9.07V19.053h67.86v29.864z" fill="#E30613"/><path d="M42.772 44.55a1.176 1.176 0 0 0 1.176-1.176V35.16h9.406v8.213a1.176 1.176 0 1 0 2.352 0V27.955a4.54 4.54 0 0 0-4.535-4.535h-5.04a4.54 4.54 0 0 0-4.535 4.535v15.419a1.176 1.176 0 0 0 1.176 1.176zm3.36-18.778h5.039a2.186 2.186 0 0 1 2.183 2.183v4.854h-9.406v-4.854a2.187 2.187 0 0 1 2.184-2.183zM59.625 44.55h5.039a7.903 7.903 0 0 0 7.898-7.895v-5.34a7.903 7.903 0 0 0-7.894-7.895h-5.04a1.176 1.176 0 0 0-1.175 1.176v18.778a1.176 1.176 0 0 0 1.172 1.176zM60.8 25.772h3.865a5.55 5.55 0 0 1 5.543 5.542v5.341a5.55 5.55 0 0 1-5.543 5.543h-3.865V25.771zM14.611 25.771h21.437a1.176 1.176 0 1 0 0-2.351H14.611a1.176 1.176 0 0 0 0 2.351zM18.465 28.115a1.176 1.176 0 1 0 0 2.351h13.73a1.176 1.176 0 0 0 0-2.351h-13.73zM14.611 35.16h21.437a1.176 1.176 0 1 0 0-2.35H14.611a1.176 1.176 0 0 0 0 2.35zM18.465 37.504a1.176 1.176 0 1 0 0 2.352h13.73a1.176 1.176 0 0 0 0-2.352h-13.73zM14.611 44.55h21.437a1.176 1.176 0 1 0 0-2.352H14.611a1.176 1.176 0 0 0 0 2.352z" fill="#E30613"/></svg>