<svg width="72" height="72" fill="none" xmlns="http://www.w3.org/2000/svg"><path d="M36 15.75A6.75 6.75 0 1 1 42.75 9 6.757 6.757 0 0 1 36 15.75zM36 4.5a4.5 4.5 0 1 0 0 9 4.5 4.5 0 0 0 0-9zM59.625 28.125H49.5V24.75a7.884 7.884 0 0 0-7.875-7.875h-11.25A7.884 7.884 0 0 0 22.5 24.75v3.375h-9v11.25H18v6.75h2.25v-6.75h31.5v6.75H54v-6.75h5.625v-11.25zM24.75 24.75a5.632 5.632 0 0 1 5.625-5.625h11.25a5.632 5.632 0 0 1 5.625 5.625v3.375h-22.5V24.75zm32.625 12.375H15.75v-6.75h41.625v6.75zM69.75 54a6.75 6.75 0 1 0-12.54 3.451 6.065 6.065 0 0 0-1.92 0 6.75 6.75 0 1 0-11.58 0 6.065 6.065 0 0 0-1.92 0 6.75 6.75 0 1 0-11.58 0 6.065 6.065 0 0 0-1.92 0 6.75 6.75 0 1 0-11.58 0 6.065 6.065 0 0 0-1.92 0A6.75 6.75 0 1 0 2.25 54c0 1.216.332 2.409.96 3.451a6.75 6.75 0 0 0-.96-.076v2.25A4.474 4.474 0 0 1 5.185 67.5H2.25v2.25h67.5V67.5h-2.935a4.476 4.476 0 0 1 2.935-7.875v-2.25a6.75 6.75 0 0 0-.96.076A6.696 6.696 0 0 0 69.75 54zM63 49.5a4.5 4.5 0 1 1 0 9 4.5 4.5 0 0 1 0-9zm-13.5 0a4.5 4.5 0 1 1 0 9 4.5 4.5 0 0 1 0-9zm.96 11.173a6.66 6.66 0 0 0-.038 6.827h-1.844a6.661 6.661 0 0 0-.038-6.827 6.088 6.088 0 0 0 1.92 0zm-3.21 3.452a4.514 4.514 0 0 1-1.565 3.375h-5.87a4.489 4.489 0 1 1 7.435-3.375zM36.922 67.5h-1.844a6.66 6.66 0 0 0-.038-6.827 6.088 6.088 0 0 0 1.92 0 6.661 6.661 0 0 0-.038 6.827zM36 49.5a4.5 4.5 0 1 1 0 9 4.5 4.5 0 0 1 0-9zm-2.25 14.625a4.513 4.513 0 0 1-1.565 3.375h-5.87a4.489 4.489 0 1 1 7.435-3.375zM23.422 67.5h-1.844a6.66 6.66 0 0 0-.038-6.827 6.088 6.088 0 0 0 1.92 0 6.661 6.661 0 0 0-.038 6.827zm-.922-18a4.5 4.5 0 1 1 0 9 4.5 4.5 0 0 1 0-9zM9 49.5a4.5 4.5 0 1 1 0 9 4.5 4.5 0 0 1 0-9zm-.96 11.173c.318.048.639.074.96.077.321-.003.642-.029.96-.077a6.661 6.661 0 0 0-.038 6.827H8.078A6.76 6.76 0 0 0 9 64.125c0-1.217-.332-2.41-.96-3.452zm4.735 6.827a4.5 4.5 0 1 1 5.95 0h-5.95zm40.5 0a4.5 4.5 0 1 1 5.95 0h-5.95zm8.803 0a6.661 6.661 0 0 0-.038-6.827 6.088 6.088 0 0 0 1.92 0 6.66 6.66 0 0 0-.038 6.827h-1.844z" fill="#E30613"/></svg>