<svg width="72" height="72" fill="none" xmlns="http://www.w3.org/2000/svg"><path d="M68.2 29.23c2.304-1.754 3.8-4.517 3.8-7.63 0-5.293-4.307-9.6-9.6-9.6-5.293 0-9.6 4.307-9.6 9.6 0 2.868 1.27 5.44 3.271 7.2h-6.374l-8.049-8.048a1.199 1.199 0 0 0-1.696 0l-4.8 4.8c-.47.469-.47 1.227 0 1.696l10.8 10.8c.224.226.529.352.848.352h9.6v8.4H35.842l5.956-8.934-1.996-1.33L32.958 46.8H30v-6c0-.664-.536-1.2-1.2-1.2h-9.6v-4.8c0-2.53-1.58-4.688-3.8-5.57 2.304-1.754 3.8-4.517 3.8-7.63 0-5.293-4.307-9.6-9.6-9.6C4.307 12 0 16.307 0 21.6c0 3.113 1.496 5.876 3.8 7.63-2.22.882-3.8 3.04-3.8 5.57v16.8c0 3.308 2.692 6 6 6V72h2.4V57.6h8.4v13.2c0 .664.536 1.2 1.2 1.2h8.4c.664 0 1.2-.536 1.2-1.2v-18c0-1.35-.448-2.597-1.202-3.6H34.8v20.4H30V72h12v-2.4h-4.8V49.2h8.431a5.938 5.938 0 0 0-1.231 3.6v18c0 .664.536 1.2 1.2 1.2H54c.664 0 1.2-.536 1.2-1.2V57.6h8.4V72H66V57.6c3.308 0 6-2.692 6-6V34.8c0-2.53-1.58-4.688-3.8-5.57zM2.4 21.6c0-3.97 3.23-7.2 7.2-7.2s7.2 3.23 7.2 7.2-3.23 7.2-7.2 7.2-7.2-3.23-7.2-7.2zm25.2 25.2H12v-9.6H9.6V48c0 .664.536 1.2 1.2 1.2h10.8c1.985 0 3.6 1.615 3.6 3.6v16.8h-6V56.4c0-.664-.536-1.2-1.2-1.2H6a3.604 3.604 0 0 1-3.6-3.6V34.8c0-1.985 1.615-3.6 3.6-3.6h7.2c1.985 0 3.6 1.615 3.6 3.6v6c0 .664.536 1.2 1.2 1.2h9.6v4.8zm27.6-25.2c0-3.97 3.23-7.2 7.2-7.2s7.2 3.23 7.2 7.2-3.23 7.2-7.2 7.2-7.2-3.23-7.2-7.2zm14.4 30c0 1.985-1.615 3.6-3.6 3.6H54c-.664 0-1.2.536-1.2 1.2v13.2h-6V52.8c0-1.985 1.615-3.6 3.6-3.6h7.2c.664 0 1.2-.536 1.2-1.2V37.2c0-.664-.536-1.2-1.2-1.2H47.297l-9.6-9.6 3.103-3.103 7.552 7.551c.224.226.529.352.848.352H66c1.985 0 3.6 1.615 3.6 3.6v16.8z" fill="#E30613"/><path d="M48 0H24a3.604 3.604 0 0 0-3.6 3.6v9.6c0 1.985 1.615 3.6 3.6 3.6h1.2V24a1.199 1.199 0 0 0 2.048.848l8.049-8.048H48c1.985 0 3.6-1.615 3.6-3.6V3.6C51.6 1.615 49.985 0 48 0zm1.2 13.2a1.2 1.2 0 0 1-1.2 1.2H34.8c-.32 0-.624.126-.848.352L27.6 21.103V15.6c0-.664-.536-1.2-1.2-1.2H24a1.2 1.2 0 0 1-1.2-1.2V3.6A1.2 1.2 0 0 1 24 2.4h24a1.2 1.2 0 0 1 1.2 1.2v9.6z" fill="#E30613"/><path d="M32.4 4.8h-7.2v2.4h7.2V4.8zM46.8 9.6H25.2V12h21.6V9.6zM46.8 4.8h-12v2.4h12V4.8z" fill="#E30613"/></svg>