<svg width="1688" height="1306" fill="none" xmlns="http://www.w3.org/2000/svg"><path fill-rule="evenodd" clip-rule="evenodd" d="M793.001 669.968c-35.019-26.218-94.537-80.543-131.696-111.304-32.15-26.623-142.306-123.491-166.077-140.22-57.696-40.564-84.746 30.49-100.912 62.87L2.689 1251.45c-7.24 14.43-17.577 26.66-15.392 47.98 17.715 9.31 43.307 5.98 68.49 6.03 75.593.09 57.742 5.08 118.216-114.32l286.206-562.545c7.15-13.851 19.263-41.374 27.278-50.818 10.656 3.733 249.912 211.005 278.555 234.076 74.728 60.216 89.301-3.553 155.285-106.942l278.513-440.539c10.52-16.549 27.5-48.434 40.03-62.15l271.4 531.785c11.48 22.756 32.06 73.663 49.05 83.782 15.71 9.354 111.66 8.229 126.91.405 4.37-15.74-11.02-37.461-17.76-50.773-8.33-16.37-17.12-33.144-25.23-49.828l-150.68-297.71c-35.02-65.838-65.35-131.676-100-197.874L1293.28 24.36c-23.5-38.225-72.49-27.567-93.99 5.082-20.86 31.705-39.02 61.386-58.2 92.191L852.018 579.081c-10.519 16.595-18.944 30.176-29.007 46.141-8.789 13.896-20.72 35.527-30.01 44.746z" fill="#1D1D1B" style="mix-blend-mode:multiply" opacity=".015"/></svg>