<svg width="100" height="67" viewBox="0 0 100 67" fill="none" xmlns="http://www.w3.org/2000/svg">
<path fill-rule="evenodd" clip-rule="evenodd" d="M35.8691 29.651C34.3218 28.4919 31.692 26.0903 30.0502 24.7304C28.6296 23.5534 23.7624 19.271 22.7121 18.5314C20.1628 16.7381 18.9677 19.8794 18.2534 21.3108L0.949561 55.3576C0.629642 55.9957 0.172912 56.5365 0.269492 57.4789C1.05219 57.8904 2.18297 57.7433 3.29564 57.7453C6.63568 57.7493 5.84696 57.97 8.51899 52.6915L21.1649 27.8219C21.4808 27.2096 22.016 25.9929 22.3701 25.5754C22.8409 25.7404 33.4123 34.9037 34.6779 35.9236C37.9797 38.5857 38.6236 35.7665 41.5391 31.1958L53.8449 11.7201C54.3097 10.9884 55.0602 9.57886 55.6136 8.97248L67.6055 32.4821C68.1125 33.4881 69.022 35.7387 69.7725 36.186C70.4667 36.5995 74.7061 36.5498 75.3801 36.2039C75.5733 35.508 74.8932 34.5478 74.5954 33.9593C74.2272 33.2356 73.8389 32.494 73.4807 31.7564L66.8228 18.595C65.2755 15.6844 63.9355 12.7738 62.4043 9.84725L57.9737 1.10942C56.9355 -0.580495 54.7705 -0.109307 53.8208 1.33408C52.8993 2.73571 52.0965 4.04787 51.2494 5.40974L38.4767 25.633C38.0119 26.3666 37.6397 26.967 37.195 27.6728C36.8067 28.2872 36.2795 29.2435 35.8691 29.651Z" fill="#E30613"/>
<path fill-rule="evenodd" clip-rule="evenodd" d="M55.0584 51.765C55.6097 52.5344 56.654 55.2621 57.1288 56.284C57.9115 57.9699 57.4608 57.7353 60.6359 57.7473C62.6902 57.7552 62.4105 57.5962 61.3079 55.2363L58.0544 48.407L59.9719 46.0968C60.332 45.6733 60.6137 45.4089 60.9678 44.9914C61.2515 44.6554 61.7264 44.2399 61.7264 43.6733C61.0664 43.2776 59.5815 43.4705 58.6298 43.4685C56.6479 43.4625 56.8954 43.9377 54.827 46.3056C54.4829 46.6992 53.5373 47.9358 53.1992 48.0889L53.1952 39.2596C53.1952 38.0827 53.322 37.9753 52.0503 37.9872C51.3401 37.9952 50.3703 37.9336 49.6962 37.9912C48.7445 38.0727 48.9638 38.7228 48.9679 39.5897L48.9699 55.9043C48.9679 56.5385 48.7546 57.5127 49.4286 57.7055C49.7747 57.8029 51.2495 57.7453 51.7143 57.7492C52.7163 57.7552 53.1731 57.9679 53.2033 56.9063C53.2717 54.5046 52.8693 54.0374 53.8934 52.9857C54.3481 52.5145 54.5755 52.1268 55.0584 51.765Z" fill="white"/>
<path fill-rule="evenodd" clip-rule="evenodd" d="M18.7748 57.5943C19.4146 57.8308 22.3502 57.9501 22.9418 57.5585C23.2094 56.9978 23.0685 51.1686 23.0585 50.0493C24.8814 49.8187 29.9055 50.3078 31.0947 49.8664C31.2677 49.2859 31.3462 47.1904 31.1148 46.6297C30.7265 46.0233 24.8472 46.5522 23.0585 46.3315C23.0907 42.7509 22.6862 42.5918 25.8311 42.5938C26.9096 42.5938 27.9881 42.5938 29.0665 42.5938C29.9679 42.5938 31.6017 42.8443 32.2053 42.3493C32.4548 41.8184 32.3764 39.4704 32.1913 38.9297C31.4166 38.6334 25.5273 38.7905 24.1571 38.7905C17.5011 38.7945 18.642 44.0133 18.642 49.5145C18.642 50.9956 18.475 56.6559 18.7748 57.5943Z" fill="white"/>
<path fill-rule="evenodd" clip-rule="evenodd" d="M41.5533 54.3774C40.1388 54.7949 37.3058 55.0991 37.3078 53.1507C37.3118 51.0433 39.7323 51.4071 41.5533 51.421V54.3774ZM34.9396 47.0034C36.5854 47.3115 41.8007 44.898 41.5613 48.5124C39.173 48.5859 36.6498 48.2718 34.8873 49.5283C32.173 51.4647 31.3862 57.3973 37.9919 57.9779C40.0784 58.1608 43.2052 57.9401 44.9295 57.1409C46.1227 56.5882 45.8168 55.7015 45.8168 54.2521C45.8168 52.9658 45.8168 51.6795 45.8168 50.3931C45.8168 47.8006 45.8933 45.4546 44.2293 44.2319C42.5452 42.9953 40.0925 42.9476 37.678 43.2379C37.0422 43.3134 34.9013 43.7091 34.5311 44.0013C34.0382 44.389 34.7645 46.5063 34.9396 47.0034Z" fill="white"/>
<path fill-rule="evenodd" clip-rule="evenodd" d="M80.9154 46.8165C83.1367 46.1524 84.0261 47.9656 84.1629 49.8444C84.3078 51.8564 83.9396 53.9121 82.2695 54.3634C80.0905 54.9519 79.1931 53.27 79.0522 51.3892C78.9013 49.3951 79.2011 47.3294 80.9154 46.8165ZM80.7021 43.1762C76.4305 43.6911 74.3923 46.8185 74.688 51.5005C74.9778 56.0732 77.6699 58.461 82.6136 57.9918C86.9939 57.5743 88.8772 54.3356 88.5452 49.6178C88.2454 45.3453 85.4365 42.6036 80.7021 43.1762Z" fill="white"/>
<path fill-rule="evenodd" clip-rule="evenodd" d="M62.6116 44.1068C62.4305 44.5044 62.4365 45.918 62.6116 46.3235C63.0321 46.8544 64.1709 46.5581 64.8571 46.6456C64.8309 48.8365 64.511 54.785 65.346 56.3218C65.9476 57.4312 67.183 57.9382 68.7766 58.0237C69.5452 58.0654 72.4345 57.976 73.1911 57.5028C73.847 57.0952 73.02 54.3854 72.9456 54.3297C72.2876 54.0395 71.0643 54.4749 70.2212 54.4112C68.9778 54.3198 69.0743 53.6379 69.0804 52.4847C69.0884 50.5284 69.0904 48.5681 69.0824 46.6118L71.686 46.6138C72.1287 46.6019 72.1086 46.6337 72.3319 46.3872C72.6257 46.0134 72.515 44.0193 72.3681 43.5481C71.6639 43.3533 69.9838 43.4368 69.1025 43.4407C69.016 42.1504 69.2574 40.558 68.9315 39.4625C68.2293 39.2975 67.4526 39.6852 66.7645 39.9098C65.0381 40.4745 65.177 40.1226 65.0281 42.3015C64.9959 42.7827 65.0804 43.2578 64.7544 43.4348L62.6116 44.1068Z" fill="white"/>
<path fill-rule="evenodd" clip-rule="evenodd" d="M95.2393 57.5584C95.4848 56.9739 95.3379 51.3117 95.3379 50.1725C95.3379 49.2539 95.0562 47.2877 95.8651 46.9596C96.4787 46.7111 98.6498 46.9974 99.5934 46.7668C99.8067 46.3135 100.06 43.7886 99.6578 43.2458C99.4526 42.9695 92.2454 41.8024 91.181 46.2857C90.843 47.7092 91.0582 52.3852 91.0582 54.1388C91.0582 54.932 90.6981 57.4808 91.4747 57.7154C92.0965 57.9063 94.8349 57.8526 95.2393 57.5584Z" fill="white"/>
<path d="M4.94164 65.662C4.94164 65.6799 4.93762 65.6958 4.92756 65.7097C4.9175 65.7237 4.9014 65.7336 4.87927 65.7416C4.85513 65.7495 4.82494 65.7575 4.78873 65.7614C4.75251 65.7674 4.70423 65.7694 4.64588 65.7694C4.59155 65.7694 4.54326 65.7674 4.50503 65.7614C4.4668 65.7555 4.43661 65.7495 4.41247 65.7416C4.39034 65.7336 4.37424 65.7217 4.36418 65.7097C4.35613 65.6978 4.35009 65.6799 4.35009 65.662V61.8408H4.34407L2.78068 65.6799C2.77464 65.6958 2.76458 65.7078 2.75251 65.7217C2.73842 65.7336 2.72032 65.7415 2.69618 65.7515C2.67203 65.7594 2.64385 65.7654 2.60965 65.7694C2.57745 65.7734 2.53722 65.7734 2.49296 65.7734C2.44467 65.7734 2.40242 65.7714 2.37022 65.7674C2.33602 65.7634 2.30784 65.7575 2.28369 65.7495C2.26156 65.7416 2.24346 65.7336 2.22938 65.7217C2.2173 65.7097 2.20724 65.6998 2.20322 65.6839L0.706235 61.8448H0.704221V65.666C0.704221 65.6839 0.700195 65.6998 0.690135 65.7137C0.682087 65.7276 0.665992 65.7376 0.641847 65.7455C0.619714 65.7535 0.587517 65.7614 0.549287 65.7654C0.511058 65.7714 0.464786 65.7734 0.404424 65.7734C0.348086 65.7734 0.299794 65.7714 0.263577 65.7654C0.227359 65.7594 0.195164 65.7535 0.173031 65.7455C0.150898 65.7376 0.134807 65.7257 0.128771 65.7137C0.120723 65.7018 0.116699 65.6839 0.116699 65.666V61.6301C0.116699 61.5347 0.142857 61.4671 0.193159 61.4273C0.243461 61.3875 0.301806 61.3657 0.36418 61.3657H0.726351C0.798785 61.3657 0.865188 61.3716 0.919514 61.3876C0.975852 61.3995 1.02414 61.4214 1.06639 61.4512C1.10865 61.481 1.14487 61.5188 1.17102 61.5625C1.19919 61.6082 1.22333 61.6599 1.24345 61.7216L2.51509 64.8986H2.5332L3.85312 61.7295C3.87726 61.6619 3.90744 61.6043 3.93762 61.5565C3.9678 61.5088 3.99999 61.471 4.03621 61.4432C4.07042 61.4154 4.11268 61.3955 4.15493 61.3816C4.1992 61.3697 4.2515 61.3637 4.30784 61.3637H4.68812C4.72233 61.3637 4.75653 61.3677 4.78671 61.3796C4.81689 61.3895 4.84305 61.4054 4.86519 61.4273C4.88732 61.4492 4.90543 61.475 4.91952 61.5088C4.9336 61.5406 4.93963 61.5824 4.93963 61.6281V65.662H4.94164ZM8.56539 65.666C8.56539 65.6839 8.56137 65.6998 8.55332 65.7117C8.54527 65.7237 8.53118 65.7356 8.50905 65.7435C8.48892 65.7515 8.46278 65.7595 8.42857 65.7634C8.39638 65.7674 8.35413 65.7694 8.30584 65.7694C8.25553 65.7694 8.21127 65.7674 8.17907 65.7634C8.14487 65.7595 8.11871 65.7515 8.1006 65.7435C8.08048 65.7336 8.06841 65.7217 8.06036 65.7117C8.05432 65.6998 8.0503 65.6839 8.0503 65.666V65.2624C7.87324 65.4553 7.70019 65.5944 7.52715 65.6819C7.35613 65.7694 7.18108 65.8131 7.00603 65.8131C6.8008 65.8131 6.62776 65.7793 6.48692 65.7117C6.34607 65.6461 6.23138 65.5527 6.14486 65.4354C6.05834 65.3201 5.99597 65.1849 5.95774 65.0298C5.91951 64.8747 5.90141 64.6859 5.90141 64.4652V62.6142C5.90141 62.5943 5.90543 62.5804 5.91348 62.5665C5.92153 62.5546 5.93561 62.5446 5.95975 62.5327C5.98189 62.5228 6.01207 62.5148 6.04828 62.5128C6.0845 62.5089 6.13078 62.5069 6.1851 62.5069C6.23943 62.5069 6.28571 62.5089 6.32192 62.5128C6.35814 62.5148 6.38832 62.5228 6.41046 62.5327C6.43058 62.5427 6.44668 62.5546 6.45473 62.5665C6.46479 62.5784 6.46881 62.5943 6.46881 62.6142V64.3916C6.46881 64.5705 6.48088 64.7137 6.50904 64.821C6.5352 64.9284 6.57545 65.0199 6.62776 65.0954C6.68209 65.171 6.7505 65.2306 6.833 65.2724C6.91549 65.3141 7.01006 65.336 7.12072 65.336C7.26157 65.336 7.40442 65.2863 7.54527 65.1869C7.68611 65.0875 7.835 64.9403 7.99396 64.7495V62.6162C7.99396 62.5963 7.99597 62.5824 8.00603 62.5685C8.01408 62.5566 8.02817 62.5466 8.05231 62.5347C8.07445 62.5248 8.10463 62.5168 8.13883 62.5148C8.17505 62.5108 8.22133 62.5089 8.27766 62.5089C8.33199 62.5089 8.37827 62.5108 8.41448 62.5148C8.4507 62.5168 8.48088 62.5248 8.501 62.5347C8.52112 62.5446 8.53721 62.5566 8.54727 62.5685C8.55734 62.5804 8.56338 62.5963 8.56338 62.6162V65.666H8.56539ZM12.0101 62.6063C12.0101 62.6162 12.0101 62.6262 12.008 62.6361C12.008 62.646 12.004 62.656 12.004 62.6679C12.002 62.6798 11.998 62.6898 11.994 62.7037C11.9899 62.7176 11.9859 62.7315 11.9819 62.7474L10.9296 65.6461C10.9195 65.672 10.9074 65.6919 10.8934 65.7078C10.8773 65.7237 10.8551 65.7376 10.827 65.7455C10.7968 65.7555 10.7585 65.7614 10.7123 65.7654C10.666 65.7694 10.6097 65.7694 10.5392 65.7694C10.4708 65.7694 10.4145 65.7674 10.3682 65.7634C10.3239 65.7595 10.2857 65.7515 10.2575 65.7435C10.2274 65.7336 10.2052 65.7217 10.1911 65.7058C10.1751 65.6899 10.163 65.67 10.1529 65.6481L9.10462 62.7494C9.09456 62.7216 9.08853 62.6977 9.08249 62.6778C9.07646 62.658 9.07244 62.6421 9.07244 62.6321C9.07042 62.6222 9.07042 62.6142 9.07042 62.6063C9.07042 62.5884 9.07646 62.5725 9.08249 62.5586C9.09054 62.5446 9.10664 62.5347 9.13078 62.5267C9.1509 62.5188 9.18108 62.5148 9.21528 62.5108C9.24949 62.5089 9.29376 62.5069 9.34809 62.5069C9.41449 62.5069 9.4668 62.5089 9.50704 62.5128C9.54728 62.5148 9.57746 62.5228 9.5996 62.5327C9.62173 62.5407 9.63783 62.5526 9.64789 62.5665C9.65795 62.5804 9.66801 62.5963 9.67606 62.6162L10.5473 65.1332L10.5614 65.1749L10.5714 65.1332L11.4326 62.6162C11.4366 62.5963 11.4447 62.5784 11.4567 62.5665C11.4668 62.5526 11.4849 62.5407 11.507 62.5327C11.5292 62.5228 11.5573 62.5168 11.5956 62.5128C11.6338 62.5089 11.6841 62.5069 11.7465 62.5069C11.7988 62.5069 11.8431 62.5089 11.8773 62.5108C11.9115 62.5128 11.9376 62.5188 11.9577 62.5287C11.9779 62.5367 11.9899 62.5486 12 62.5605C12.008 62.5725 12.0101 62.5884 12.0101 62.6063ZM14.7425 65.67C14.7425 65.6978 14.7324 65.7177 14.7163 65.7316C14.6982 65.7455 14.672 65.7535 14.6398 65.7614C14.6076 65.7694 14.5614 65.7714 14.499 65.7714C14.4406 65.7714 14.3923 65.7674 14.3581 65.7614C14.3219 65.7555 14.2978 65.7455 14.2817 65.7316C14.2636 65.7177 14.2575 65.6978 14.2575 65.67V65.3658C14.1227 65.507 13.9718 65.6183 13.8068 65.6978C13.6418 65.7754 13.4648 65.8151 13.2797 65.8151C13.1187 65.8151 12.9698 65.7952 12.839 65.7535C12.7082 65.7117 12.5956 65.6501 12.503 65.5706C12.4105 65.491 12.338 65.3936 12.2857 65.2803C12.2334 65.165 12.2072 65.0338 12.2072 64.8867C12.2072 64.7137 12.2435 64.5646 12.3139 64.4393C12.3843 64.3121 12.4869 64.2067 12.6197 64.1232C12.7525 64.0397 12.9155 63.9761 13.1087 63.9343C13.2998 63.8926 13.5171 63.8707 13.7565 63.8707H14.1831V63.6321C14.1831 63.5148 14.169 63.4115 14.1449 63.32C14.1187 63.2305 14.0785 63.155 14.0221 63.0954C13.9658 63.0357 13.8934 62.99 13.8048 62.9602C13.7163 62.9283 13.6056 62.9144 13.4748 62.9144C13.336 62.9144 13.2113 62.9303 13.1006 62.9641C12.9899 62.9979 12.8933 63.0337 12.8088 63.0735C12.7243 63.1132 12.6559 63.151 12.5996 63.1828C12.5453 63.2166 12.503 63.2325 12.4748 63.2325C12.4567 63.2325 12.4386 63.2286 12.4266 63.2186C12.4125 63.2107 12.4024 63.1968 12.3903 63.1789C12.3803 63.161 12.3722 63.1391 12.3682 63.1113C12.3642 63.0814 12.3622 63.0516 12.3622 63.0178C12.3622 62.9621 12.3642 62.9164 12.3742 62.8846C12.3823 62.8528 12.4024 62.821 12.4326 62.7912C12.4628 62.7633 12.5171 62.7275 12.5915 62.6878C12.666 62.648 12.7525 62.6122 12.8511 62.5784C12.9477 62.5466 13.0563 62.5188 13.173 62.4949C13.2897 62.4731 13.4064 62.4631 13.5251 62.4631C13.7465 62.4631 13.9356 62.487 14.0905 62.5367C14.2455 62.5864 14.3722 62.6599 14.4668 62.7574C14.5634 62.8528 14.6318 62.9721 14.674 63.1152C14.7183 63.2584 14.7404 63.4254 14.7404 63.6142V65.67H14.7425ZM14.1811 64.2723H13.6962C13.5412 64.2723 13.4064 64.2843 13.2917 64.3121C13.1791 64.3359 13.0825 64.3757 13.008 64.4274C12.9336 64.4771 12.8773 64.5387 12.841 64.6103C12.8068 64.6819 12.7887 64.7654 12.7887 64.8568C12.7887 65.0159 12.839 65.1411 12.9396 65.2346C13.0422 65.328 13.1851 65.3757 13.3682 65.3757C13.5151 65.3757 13.6539 65.338 13.7807 65.2624C13.9074 65.1889 14.0402 65.0735 14.1811 64.9205V64.2723ZM19.2535 61.3577C19.2535 61.4313 19.2475 61.483 19.2354 61.5128C19.2253 61.5446 19.2032 61.5605 19.175 61.5605C19.1569 61.5605 19.1348 61.5565 19.1107 61.5466C19.0865 61.5367 19.0563 61.5267 19.0221 61.5148C18.9859 61.5029 18.9457 61.4909 18.9014 61.481C18.8551 61.4711 18.8028 61.4651 18.7425 61.4651C18.5734 61.4651 18.4527 61.5227 18.3843 61.6381C18.3139 61.7534 18.2777 61.9383 18.2777 62.1908V62.5267H18.9718C18.9899 62.5267 19.006 62.5307 19.0201 62.5387C19.0342 62.5466 19.0443 62.5605 19.0563 62.5784C19.0664 62.5983 19.0744 62.6222 19.0785 62.652C19.0825 62.6798 19.0845 62.7156 19.0845 62.7594C19.0845 62.8429 19.0744 62.9005 19.0563 62.9363C19.0362 62.9721 19.008 62.99 18.9718 62.99H18.2777V65.662C18.2777 65.6799 18.2736 65.6958 18.2636 65.7078C18.2535 65.7197 18.2374 65.7316 18.2173 65.7396C18.1952 65.7475 18.167 65.7555 18.1288 65.7594C18.0925 65.7634 18.0463 65.7654 17.9919 65.7654C17.9356 65.7654 17.8913 65.7634 17.8551 65.7594C17.8189 65.7555 17.7907 65.7475 17.7686 65.7396C17.7465 65.7296 17.7324 65.7177 17.7223 65.7078C17.7123 65.6958 17.7082 65.6799 17.7082 65.662V62.99H16.3239V65.662C16.3239 65.6799 16.3199 65.6958 16.3099 65.7078C16.2998 65.7197 16.2857 65.7316 16.2636 65.7396C16.2414 65.7475 16.2133 65.7555 16.1771 65.7594C16.1408 65.7634 16.0946 65.7654 16.0402 65.7654C15.9839 65.7654 15.9396 65.7634 15.9034 65.7594C15.8672 65.7555 15.837 65.7475 15.8149 65.7396C15.7948 65.7296 15.7787 65.7177 15.7686 65.7078C15.7585 65.6958 15.7545 65.6799 15.7545 65.662V62.99H15.3159C15.2797 62.99 15.2515 62.9701 15.2334 62.9363C15.2133 62.9005 15.2052 62.8409 15.2052 62.7594C15.2052 62.7156 15.2072 62.6798 15.2113 62.652C15.2153 62.6222 15.2233 62.5983 15.2334 62.5784C15.2414 62.5586 15.2535 62.5466 15.2676 62.5387C15.2817 62.5307 15.2978 62.5267 15.3159 62.5267H15.7545V62.2385C15.7545 62.0277 15.7767 61.8468 15.8169 61.6977C15.8571 61.5466 15.9195 61.4233 16 61.3259C16.0825 61.2285 16.1851 61.1569 16.3078 61.1112C16.4286 61.0635 16.5714 61.0416 16.7324 61.0416C16.833 61.0416 16.9215 61.0496 16.996 61.0675C17.0704 61.0834 17.1328 61.1032 17.1811 61.1231C17.2032 61.1331 17.2233 61.143 17.2354 61.1569C17.2495 61.1689 17.2596 61.1887 17.2696 61.2086C17.2777 61.2305 17.2857 61.2563 17.2897 61.2881C17.2938 61.318 17.2938 61.3538 17.2938 61.3975C17.2938 61.4691 17.2877 61.5227 17.2756 61.5546C17.2656 61.5883 17.2455 61.6043 17.2153 61.6043C17.1972 61.6043 17.175 61.6003 17.1529 61.5884C17.1288 61.5784 17.0986 61.5665 17.0624 61.5526C17.0261 61.5406 16.9859 61.5287 16.9396 61.5188C16.8934 61.5088 16.841 61.5029 16.7827 61.5029C16.6137 61.5029 16.497 61.5605 16.4266 61.6758C16.3581 61.7911 16.3239 61.976 16.3239 62.2285V62.5228H17.7082V62.1927C17.7082 61.984 17.7284 61.8031 17.7706 61.652C17.8129 61.5009 17.8773 61.3776 17.9577 61.2782C18.0402 61.1808 18.1429 61.1092 18.2656 61.0635C18.3863 61.0158 18.5312 60.9939 18.6922 60.9939C18.7907 60.9939 18.8793 61.0018 18.9537 61.0197C19.0322 61.0376 19.0926 61.0555 19.1408 61.0754C19.161 61.0854 19.1791 61.0953 19.1952 61.1112C19.2093 61.1231 19.2213 61.143 19.2294 61.1629C19.2374 61.1848 19.2435 61.2106 19.2475 61.2424C19.2535 61.2782 19.2535 61.314 19.2535 61.3577ZM21.7626 65.67C21.7626 65.6978 21.7525 65.7177 21.7364 65.7316C21.7183 65.7455 21.6922 65.7535 21.66 65.7614C21.6278 65.7694 21.5815 65.7714 21.5191 65.7714C21.4608 65.7714 21.4125 65.7674 21.3763 65.7614C21.34 65.7555 21.3159 65.7455 21.2998 65.7316C21.2837 65.7177 21.2756 65.6978 21.2756 65.67V65.3658C21.1408 65.507 20.9899 65.6183 20.8249 65.6978C20.6579 65.7754 20.4829 65.8151 20.2978 65.8151C20.1348 65.8151 19.9879 65.7952 19.8571 65.7535C19.7243 65.7117 19.6137 65.6501 19.5211 65.5706C19.4286 65.491 19.3561 65.3936 19.3058 65.2803C19.2535 65.165 19.2274 65.0338 19.2274 64.8867C19.2274 64.7137 19.2616 64.5646 19.334 64.4393C19.4044 64.3121 19.507 64.2067 19.6398 64.1232C19.7726 64.0397 19.9356 63.9761 20.1288 63.9343C20.3199 63.8926 20.5372 63.8707 20.7767 63.8707H21.2032V63.6321C21.2032 63.5148 21.1891 63.4115 21.165 63.32C21.1388 63.2305 21.0986 63.155 21.0423 63.0954C20.9859 63.0357 20.9135 62.99 20.8249 62.9602C20.7364 62.9283 20.6257 62.9144 20.495 62.9144C20.3561 62.9144 20.2314 62.9303 20.1207 62.9641C20.0101 62.9979 19.9135 63.0337 19.829 63.0735C19.7465 63.1132 19.6761 63.151 19.6197 63.1828C19.5634 63.2166 19.5231 63.2325 19.495 63.2325C19.4769 63.2325 19.4588 63.2286 19.4467 63.2186C19.4326 63.2107 19.4205 63.1968 19.4105 63.1789C19.4004 63.161 19.3923 63.1391 19.3883 63.1113C19.3843 63.0814 19.3823 63.0516 19.3823 63.0178C19.3823 62.9621 19.3843 62.9164 19.3944 62.8846C19.4024 62.8528 19.4225 62.821 19.4527 62.7912C19.4829 62.7633 19.5372 62.7275 19.6117 62.6878C19.6861 62.648 19.7746 62.6122 19.8732 62.5784C19.9698 62.5466 20.0785 62.5188 20.1952 62.4949C20.3119 62.4731 20.4306 62.4631 20.5473 62.4631C20.7686 62.4631 20.9577 62.487 21.1127 62.5367C21.2676 62.5864 21.3944 62.6599 21.4889 62.7574C21.5855 62.8528 21.6539 62.9721 21.6982 63.1152C21.7425 63.2584 21.7646 63.4254 21.7646 63.6142V65.67H21.7626ZM21.2012 64.2723H20.7163C20.5614 64.2723 20.4266 64.2843 20.3119 64.3121C20.1992 64.3359 20.1046 64.3757 20.0282 64.4274C19.9537 64.4771 19.8974 64.5387 19.8612 64.6103C19.827 64.6819 19.8089 64.7654 19.8089 64.8568C19.8089 65.0159 19.8592 65.1411 19.9618 65.2346C20.0644 65.328 20.2052 65.3757 20.3883 65.3757C20.5352 65.3757 20.674 65.338 20.8008 65.2624C20.9276 65.1889 21.0604 65.0735 21.2012 64.9205V64.2723ZM25.3098 66.8768C25.3098 66.8967 25.3058 66.9106 25.2938 66.9245C25.2837 66.9384 25.2676 66.9503 25.2475 66.9583C25.2274 66.9662 25.1992 66.9742 25.161 66.9782C25.1247 66.9822 25.0785 66.9841 25.0241 66.9841C24.9658 66.9841 24.9215 66.9822 24.8853 66.9782C24.8491 66.9742 24.8209 66.9662 24.7988 66.9583C24.7746 66.9483 24.7606 66.9384 24.7525 66.9245C24.7445 66.9106 24.7404 66.8967 24.7404 66.8768V65.3101C24.6459 65.4036 24.5573 65.4811 24.4728 65.5467C24.3863 65.6123 24.3038 65.664 24.2213 65.7038C24.1388 65.7435 24.0563 65.7714 23.9718 65.7873C23.8873 65.8052 23.8028 65.8131 23.7143 65.8131C23.4889 65.8131 23.2978 65.7694 23.1408 65.6819C22.9839 65.5964 22.8531 65.4771 22.7545 65.33C22.6559 65.1809 22.5835 65.0079 22.5372 64.8091C22.4909 64.6083 22.4688 64.3976 22.4688 64.1769C22.4688 63.9145 22.497 63.6759 22.5553 63.4651C22.6137 63.2544 22.6982 63.0735 22.8109 62.9244C22.9255 62.7753 23.0644 62.6619 23.2294 62.5804C23.3964 62.5009 23.5875 62.4611 23.8048 62.4611C23.8974 62.4611 23.9819 62.4711 24.0604 62.489C24.1408 62.5069 24.2193 62.5387 24.2998 62.5804C24.3783 62.6222 24.4587 62.6759 24.5412 62.7435C24.6217 62.8091 24.7103 62.8886 24.8068 62.982V62.6142C24.8068 62.5924 24.8109 62.5765 24.8209 62.5645C24.831 62.5526 24.8451 62.5407 24.8652 62.5327C24.8873 62.5248 24.9115 62.5168 24.9457 62.5148C24.9779 62.5108 25.0181 62.5089 25.0644 62.5089C25.1107 62.5089 25.1489 62.5108 25.1811 62.5148C25.2113 62.5168 25.2394 62.5248 25.2575 62.5347C25.2777 62.5426 25.2897 62.5546 25.2978 62.5665C25.3058 62.5784 25.3098 62.5943 25.3098 62.6162V66.8768ZM24.7404 63.5168C24.5875 63.328 24.4406 63.1848 24.2978 63.0854C24.1549 62.988 24.006 62.9363 23.8531 62.9363C23.7082 62.9363 23.5855 62.9701 23.4849 63.0377C23.3843 63.1053 23.3038 63.1948 23.2394 63.3061C23.1771 63.4154 23.1308 63.5427 23.1026 63.6819C23.0744 63.821 23.0604 63.9642 23.0604 64.1093C23.0604 64.2644 23.0724 64.4175 23.0966 64.5646C23.1207 64.7117 23.163 64.8429 23.2213 64.9562C23.2817 65.0676 23.3602 65.159 23.4588 65.2286C23.5573 65.2962 23.6801 65.332 23.827 65.332C23.9014 65.332 23.9738 65.3221 24.0443 65.3022C24.1127 65.2803 24.1851 65.2485 24.2575 65.2008C24.33 65.1531 24.4084 65.0934 24.4869 65.0159C24.5674 64.9403 24.6519 64.8489 24.7404 64.7375V63.5168ZM26.7927 65.666C26.7927 65.6839 26.7887 65.6998 26.7787 65.7117C26.7686 65.7237 26.7545 65.7356 26.7344 65.7435C26.7123 65.7515 26.6861 65.7595 26.6479 65.7634C26.6117 65.7674 26.5654 65.7694 26.507 65.7694C26.4507 65.7694 26.4064 65.7674 26.3702 65.7634C26.332 65.7595 26.3038 65.7515 26.2817 65.7435C26.2596 65.7336 26.2435 65.7217 26.2354 65.7117C26.2274 65.6998 26.2233 65.6839 26.2233 65.666V62.6142C26.2233 62.5983 26.2253 62.5824 26.2354 62.5705C26.2435 62.5566 26.2596 62.5446 26.2817 62.5367C26.3018 62.5287 26.332 62.5208 26.3702 62.5168C26.4064 62.5128 26.4527 62.5089 26.507 62.5089C26.5654 62.5089 26.6117 62.5108 26.6479 62.5168C26.6861 62.5208 26.7123 62.5287 26.7344 62.5367C26.7545 62.5466 26.7706 62.5566 26.7787 62.5705C26.7867 62.5824 26.7927 62.5983 26.7927 62.6142V65.666ZM26.8571 61.5844C26.8571 61.7156 26.831 61.8051 26.7807 61.8528C26.7304 61.9005 26.6378 61.9243 26.501 61.9243C26.3682 61.9243 26.2756 61.9025 26.2274 61.8548C26.1791 61.807 26.1529 61.7196 26.1529 61.5903C26.1529 61.4591 26.1791 61.3697 26.2294 61.3219C26.2797 61.2742 26.3722 61.2504 26.509 61.2504C26.6418 61.2504 26.7324 61.2742 26.7827 61.32C26.831 61.3677 26.8571 61.4551 26.8571 61.5844ZM29.1066 65.7515L28.6962 66.8748C28.6821 66.9106 28.6479 66.9384 28.5915 66.9583C28.5352 66.9782 28.4507 66.9861 28.336 66.9861C28.2757 66.9861 28.2274 66.9841 28.1932 66.9782C28.1549 66.9722 28.1288 66.9623 28.1086 66.9483C28.0905 66.9344 28.0805 66.9165 28.0785 66.8947C28.0765 66.8728 28.0825 66.845 28.0946 66.8132L28.5211 65.7515C28.501 65.7415 28.4809 65.7256 28.4628 65.7078C28.4427 65.6859 28.4306 65.666 28.4245 65.6421L27.3219 62.7256C27.3038 62.6778 27.2958 62.6401 27.2958 62.6142C27.2958 62.5864 27.3038 62.5645 27.3219 62.5486C27.342 62.5327 27.3702 62.5228 27.4125 62.5168C27.4527 62.5108 27.509 62.5089 27.5775 62.5089C27.6459 62.5089 27.6982 62.5108 27.7384 62.5148C27.7767 62.5168 27.8088 62.5248 27.831 62.5347C27.8531 62.5426 27.8692 62.5566 27.8813 62.5725C27.8913 62.5904 27.9014 62.6122 27.9135 62.6421L28.7948 65.0914H28.8048L29.6559 62.6301C29.67 62.5864 29.6861 62.5586 29.7062 62.5466C29.7264 62.5347 29.7545 62.5248 29.7928 62.5188C29.833 62.5128 29.8893 62.5108 29.9618 62.5108C30.0261 62.5108 30.0785 62.5128 30.1187 62.5188C30.161 62.5248 30.1911 62.5347 30.2093 62.5506C30.2294 62.5665 30.2374 62.5884 30.2374 62.6162C30.2374 62.6421 30.2314 62.6779 30.2173 62.7176L29.1066 65.7515ZM32.9678 65.67C32.9678 65.6978 32.9577 65.7177 32.9396 65.7316C32.9215 65.7455 32.8974 65.7535 32.8652 65.7614C32.833 65.7694 32.7867 65.7714 32.7243 65.7714C32.666 65.7714 32.6177 65.7674 32.5835 65.7614C32.5473 65.7555 32.5231 65.7455 32.505 65.7316C32.4889 65.7177 32.4809 65.6978 32.4809 65.67V65.3658C32.3461 65.507 32.1952 65.6183 32.0302 65.6978C31.8632 65.7754 31.6881 65.8151 31.503 65.8151C31.34 65.8151 31.1932 65.7952 31.0624 65.7535C30.9316 65.7117 30.8189 65.6501 30.7264 65.5706C30.6338 65.491 30.5614 65.3936 30.5111 65.2803C30.4587 65.165 30.4326 65.0338 30.4326 64.8867C30.4326 64.7137 30.4688 64.5646 30.5392 64.4393C30.6097 64.3121 30.7123 64.2067 30.8451 64.1232C30.9779 64.0397 31.1408 63.9761 31.332 63.9343C31.5251 63.8926 31.7404 63.8707 31.9799 63.8707H32.4064V63.6321C32.4064 63.5148 32.3944 63.4115 32.3682 63.32C32.3441 63.2305 32.3038 63.155 32.2475 63.0954C32.1911 63.0357 32.1187 62.99 32.0302 62.9602C31.9396 62.9283 31.831 62.9144 31.7002 62.9144C31.5614 62.9144 31.4346 62.9303 31.3239 62.9641C31.2133 62.9979 31.1167 63.0337 31.0322 63.0735C30.9497 63.1132 30.8793 63.151 30.8229 63.1828C30.7686 63.2166 30.7264 63.2325 30.6982 63.2325C30.6801 63.2325 30.664 63.2286 30.6499 63.2186C30.6358 63.2107 30.6237 63.1968 30.6137 63.1789C30.6036 63.161 30.5956 63.1391 30.5915 63.1113C30.5875 63.0814 30.5835 63.0516 30.5835 63.0178C30.5835 62.9621 30.5875 62.9164 30.5956 62.8846C30.6036 62.8528 30.6237 62.821 30.6539 62.7912C30.6841 62.7633 30.7384 62.7275 30.8129 62.6878C30.8873 62.648 30.9738 62.6122 31.0744 62.5784C31.171 62.5466 31.2797 62.5188 31.3964 62.4949C31.5111 62.4731 31.6298 62.4631 31.7485 62.4631C31.9698 62.4631 32.1589 62.487 32.3139 62.5367C32.4688 62.5864 32.5936 62.6599 32.6901 62.7574C32.7867 62.8528 32.8551 62.9721 32.8994 63.1152C32.9416 63.2584 32.9658 63.4254 32.9658 63.6142V65.67H32.9678ZM32.4064 64.2723H31.9235C31.7686 64.2723 31.6338 64.2843 31.5191 64.3121C31.4044 64.3359 31.3098 64.3757 31.2334 64.4274C31.1569 64.4771 31.1026 64.5387 31.0664 64.6103C31.0302 64.6819 31.0141 64.7654 31.0141 64.8568C31.0141 65.0159 31.0644 65.1411 31.167 65.2346C31.2696 65.328 31.4105 65.3757 31.5936 65.3757C31.7404 65.3757 31.8793 65.338 32.006 65.2624C32.1328 65.1889 32.2656 65.0735 32.4044 64.9205V64.2723H32.4064ZM35.4105 65.4394C35.4105 65.505 35.4064 65.5567 35.3964 65.5964C35.3883 65.6342 35.3742 65.664 35.3541 65.6799C35.336 65.6998 35.3099 65.7157 35.2736 65.7316C35.2374 65.7475 35.1952 65.7594 35.1489 65.7714C35.1006 65.7813 35.0523 65.7893 35 65.7952C34.9477 65.8012 34.8974 65.8052 34.843 65.8052C34.6821 65.8052 34.5453 65.7833 34.4326 65.7416C34.3199 65.6998 34.2253 65.6362 34.1509 65.5507C34.0785 65.4672 34.0262 65.3598 33.9919 65.2286C33.9598 65.0994 33.9437 64.9463 33.9437 64.7713V62.992H33.509C33.4748 62.992 33.4467 62.9721 33.4245 62.9383C33.4044 62.9025 33.3944 62.8429 33.3944 62.7613C33.3944 62.7176 33.3964 62.6818 33.4024 62.654C33.4084 62.6242 33.4165 62.6003 33.4245 62.5804C33.4346 62.5606 33.4467 62.5486 33.4608 62.5407C33.4769 62.5327 33.493 62.5287 33.5111 62.5287H33.9416V61.8031C33.9416 61.7872 33.9457 61.7713 33.9537 61.7593C33.9618 61.7454 33.9779 61.7335 34 61.7235C34.0201 61.7136 34.0503 61.7056 34.0885 61.7017C34.1247 61.6977 34.171 61.6957 34.2253 61.6957C34.2837 61.6957 34.33 61.6977 34.3662 61.7017C34.4044 61.7056 34.4306 61.7136 34.4527 61.7235C34.4728 61.7335 34.4889 61.7454 34.497 61.7593C34.507 61.7713 34.5111 61.7872 34.5111 61.8031V62.5287H35.2978C35.3179 62.5287 35.332 62.5327 35.3461 62.5407C35.3602 62.5486 35.3722 62.5625 35.3823 62.5804C35.3923 62.6003 35.4004 62.6242 35.4044 62.654C35.4085 62.6818 35.4105 62.7176 35.4105 62.7613C35.4105 62.8448 35.4004 62.9025 35.3803 62.9383C35.3581 62.9741 35.332 62.992 35.2978 62.992H34.5111V64.6898C34.5111 64.8986 34.5433 65.0576 34.6056 65.165C34.668 65.2724 34.7807 65.326 34.9416 65.326C34.9919 65.326 35.0402 65.3221 35.0805 65.3101C35.1207 65.3002 35.1569 65.2883 35.1891 65.2783C35.2213 65.2664 35.2475 65.2564 35.2716 65.2465C35.2938 65.2366 35.3159 65.2306 35.332 65.2306C35.3441 65.2306 35.3541 65.2326 35.3642 65.2386C35.3722 65.2445 35.3823 65.2545 35.3863 65.2704C35.3923 65.2863 35.3964 65.3081 35.4024 65.334C35.4084 65.3638 35.4105 65.3976 35.4105 65.4394ZM40.1449 62.6063C40.1449 62.6162 40.1449 62.6262 40.1449 62.6361C40.1429 62.646 40.1408 62.656 40.1388 62.6679C40.1368 62.6798 40.1328 62.6898 40.1288 62.7037C40.1268 62.7176 40.1227 62.7315 40.1167 62.7474L39.0644 65.6461C39.0563 65.672 39.0422 65.6919 39.0282 65.7078C39.0141 65.7237 38.9919 65.7376 38.9618 65.7455C38.9316 65.7555 38.8934 65.7614 38.8491 65.7654C38.8028 65.7694 38.7465 65.7694 38.676 65.7694C38.6076 65.7694 38.5513 65.7674 38.505 65.7634C38.4587 65.7595 38.4205 65.7515 38.3923 65.7435C38.3642 65.7336 38.34 65.7217 38.3259 65.7058C38.3098 65.6899 38.2978 65.67 38.2877 65.6481L37.2374 62.7494C37.2274 62.7216 37.2213 62.6977 37.2153 62.6778C37.2093 62.658 37.2072 62.6421 37.2052 62.6321C37.2052 62.6222 37.2052 62.6142 37.2052 62.6063C37.2052 62.5884 37.2092 62.5725 37.2193 62.5586C37.2274 62.5446 37.2435 62.5347 37.2656 62.5267C37.2857 62.5188 37.3159 62.5148 37.3501 62.5108C37.3843 62.5089 37.4286 62.5069 37.4829 62.5069C37.5493 62.5069 37.6036 62.5089 37.6418 62.5128C37.6821 62.5148 37.7143 62.5228 37.7344 62.5327C37.7565 62.5407 37.7726 62.5526 37.7827 62.5665C37.7928 62.5804 37.8028 62.5963 37.8129 62.6162L38.6841 65.1332L38.6982 65.1749L38.7082 65.1332L39.5694 62.6162C39.5754 62.5963 39.5835 62.5784 39.5956 62.5665C39.6056 62.5526 39.6237 62.5407 39.6439 62.5327C39.666 62.5228 39.6962 62.5168 39.7344 62.5128C39.7726 62.5089 39.8229 62.5069 39.8833 62.5069C39.9356 62.5069 39.9799 62.5089 40.0141 62.5108C40.0483 62.5128 40.0744 62.5188 40.0946 62.5287C40.1147 62.5367 40.1267 62.5486 40.1348 62.5605C40.1408 62.5725 40.1449 62.5884 40.1449 62.6063Z" fill="white"/>
<path d="M42.8772 65.67C42.8772 65.6978 42.8692 65.7177 42.8511 65.7316C42.831 65.7455 42.8068 65.7535 42.7746 65.7614C42.7424 65.7694 42.6962 65.7714 42.6338 65.7714C42.5754 65.7714 42.5272 65.7674 42.4929 65.7614C42.4587 65.7555 42.4326 65.7455 42.4165 65.7316C42.4004 65.7177 42.3923 65.6978 42.3923 65.67V65.3658C42.2575 65.5069 42.1066 65.6183 41.9416 65.6978C41.7746 65.7753 41.5996 65.8151 41.4145 65.8151C41.2515 65.8151 41.1046 65.7952 40.9718 65.7535C40.841 65.7117 40.7284 65.6501 40.6358 65.5706C40.5433 65.491 40.4708 65.3936 40.4185 65.2803C40.3662 65.165 40.342 65.0338 40.342 64.8866C40.342 64.7137 40.3763 64.5646 40.4487 64.4393C40.5191 64.3121 40.6217 64.2067 40.7545 64.1232C40.8873 64.0397 41.0503 63.9761 41.2414 63.9343C41.4346 63.8926 41.6499 63.8707 41.8893 63.8707H42.3159V63.6321C42.3159 63.5148 42.3038 63.4114 42.2777 63.32C42.2515 63.2305 42.2113 63.155 42.1569 63.0953C42.1006 63.0357 42.0282 62.99 41.9376 62.9601C41.8491 62.9283 41.7384 62.9144 41.6096 62.9144C41.4708 62.9144 41.3441 62.9303 41.2354 62.9641C41.1247 62.9979 41.0261 63.0337 40.9436 63.0735C40.8612 63.1132 40.7907 63.151 40.7344 63.1828C40.6801 63.2166 40.6378 63.2325 40.6097 63.2325C40.5915 63.2325 40.5734 63.2285 40.5614 63.2186C40.5473 63.2106 40.5352 63.1967 40.5251 63.1788C40.5151 63.1609 40.507 63.1391 40.503 63.1112C40.499 63.0814 40.497 63.0516 40.497 63.0178C40.497 62.9621 40.501 62.9164 40.509 62.8846C40.5171 62.8528 40.5372 62.821 40.5674 62.7911C40.5976 62.7633 40.6519 62.7275 40.7263 62.6878C40.8008 62.648 40.8893 62.6122 40.9879 62.5784C41.0845 62.5466 41.1931 62.5188 41.3098 62.4949C41.4265 62.473 41.5453 62.4631 41.662 62.4631C41.8833 62.4631 42.0724 62.487 42.2274 62.5367C42.3823 62.5864 42.507 62.6599 42.6036 62.7573C42.7002 62.8528 42.7686 62.9721 42.8129 63.1152C42.8551 63.2584 42.8772 63.4254 42.8772 63.6142V65.67ZM42.3159 64.2723H41.831C41.676 64.2723 41.5433 64.2842 41.4286 64.3121C41.3139 64.3359 41.2193 64.3757 41.1428 64.4274C41.0684 64.4771 41.0121 64.5387 40.9758 64.6103C40.9416 64.6819 40.9235 64.7654 40.9235 64.8568C40.9235 65.0159 40.9738 65.1411 41.0765 65.2346C41.1771 65.328 41.3199 65.3757 41.503 65.3757C41.6499 65.3757 41.7887 65.3379 41.9135 65.2624C42.0402 65.1888 42.173 65.0735 42.3139 64.9204V64.2723H42.3159ZM50.2616 65.662C50.2616 65.6799 50.2575 65.6958 50.2475 65.7097C50.2374 65.7236 50.2213 65.7336 50.1972 65.7415C50.173 65.7495 50.1429 65.7574 50.1066 65.7614C50.0704 65.7674 50.0221 65.7694 49.9638 65.7694C49.9094 65.7694 49.8612 65.7674 49.8229 65.7614C49.7847 65.7555 49.7545 65.7495 49.7304 65.7415C49.7082 65.7336 49.6921 65.7217 49.6821 65.7097C49.672 65.6978 49.668 65.6799 49.668 65.662V61.8408H49.6599L48.0966 65.6799C48.0905 65.6958 48.0805 65.7077 48.0684 65.7217C48.0563 65.7336 48.0382 65.7415 48.0141 65.7515C47.9899 65.7594 47.9618 65.7654 47.9276 65.7694C47.8954 65.7733 47.8551 65.7733 47.8088 65.7733C47.7605 65.7733 47.7203 65.7714 47.6861 65.7674C47.6519 65.7634 47.6237 65.7574 47.6016 65.7495C47.5795 65.7415 47.5614 65.7336 47.5473 65.7217C47.5352 65.7097 47.5272 65.6998 47.5211 65.6839L46.0241 61.8448H46.0221V65.666C46.0221 65.6839 46.0181 65.6998 46.008 65.7137C45.998 65.7276 45.9819 65.7376 45.9597 65.7455C45.9376 65.7535 45.9054 65.7614 45.8672 65.7654C45.829 65.7713 45.7827 65.7733 45.7243 65.7733C45.666 65.7733 45.6197 65.7713 45.5835 65.7654C45.5453 65.7594 45.5171 65.7535 45.4929 65.7455C45.4708 65.7376 45.4547 65.7256 45.4467 65.7137C45.4386 65.7018 45.4326 65.6839 45.4326 65.666V61.6301C45.4326 61.5346 45.4587 61.467 45.509 61.4273C45.5614 61.3875 45.6177 61.3657 45.6801 61.3657H46.0422C46.1167 61.3657 46.1811 61.3716 46.2374 61.3875C46.2937 61.3995 46.342 61.4213 46.3843 61.4512C46.4266 61.481 46.4607 61.5187 46.4869 61.5625C46.5151 61.6082 46.5392 61.6599 46.5614 61.7215L47.831 64.8986H47.8491L49.167 61.7295C49.1931 61.6619 49.2213 61.6042 49.2515 61.5565C49.2817 61.5088 49.3139 61.471 49.3501 61.4432C49.3863 61.4154 49.4265 61.3955 49.4688 61.3816C49.5131 61.3696 49.5654 61.3637 49.6217 61.3637H50.002C50.0362 61.3637 50.0704 61.3676 50.1006 61.3796C50.1308 61.3895 50.1589 61.4054 50.1811 61.4273C50.2032 61.4492 50.2213 61.475 50.2354 61.5088C50.2495 61.5406 50.2555 61.5824 50.2555 61.6281V65.662H50.2616ZM53.5694 65.67C53.5694 65.6978 53.5593 65.7177 53.5432 65.7316C53.5231 65.7455 53.499 65.7535 53.4668 65.7614C53.4346 65.7694 53.3883 65.7714 53.326 65.7714C53.2676 65.7714 53.2193 65.7674 53.1851 65.7614C53.1489 65.7555 53.1247 65.7455 53.1066 65.7316C53.0905 65.7177 53.0825 65.6978 53.0825 65.67V65.3658C52.9477 65.5069 52.7968 65.6183 52.6318 65.6978C52.4648 65.7753 52.2897 65.8151 52.1046 65.8151C51.9416 65.8151 51.7948 65.7952 51.664 65.7535C51.5312 65.7117 51.4205 65.6501 51.328 65.5706C51.2354 65.491 51.163 65.3936 51.1127 65.2803C51.0604 65.165 51.0342 65.0338 51.0342 64.8866C51.0342 64.7137 51.0684 64.5646 51.1408 64.4393C51.2113 64.3121 51.3139 64.2067 51.4467 64.1232C51.5795 64.0397 51.7424 63.9761 51.9356 63.9343C52.1267 63.8926 52.3441 63.8707 52.5835 63.8707H53.0101V63.6321C53.0101 63.5148 52.996 63.4114 52.9718 63.32C52.9457 63.2305 52.9054 63.155 52.8491 63.0953C52.7927 63.0357 52.7203 62.99 52.6318 62.9601C52.5433 62.9283 52.4326 62.9144 52.3018 62.9144C52.163 62.9144 52.0382 62.9303 51.9276 62.9641C51.8169 62.9979 51.7183 63.0337 51.6358 63.0735C51.5533 63.1132 51.4829 63.151 51.4266 63.1828C51.3702 63.2166 51.33 63.2325 51.3018 63.2325C51.2817 63.2325 51.2656 63.2285 51.2535 63.2186C51.2394 63.2106 51.2274 63.1967 51.2173 63.1788C51.2072 63.1609 51.1992 63.1391 51.1952 63.1112C51.1911 63.0814 51.1891 63.0516 51.1891 63.0178C51.1891 62.9621 51.1911 62.9164 51.2012 62.8846C51.2092 62.8528 51.2294 62.821 51.2595 62.7911C51.2897 62.7633 51.3441 62.7275 51.4185 62.6878C51.4929 62.648 51.5815 62.6122 51.6801 62.5784C51.7766 62.5466 51.8853 62.5188 52.002 62.4949C52.1187 62.473 52.2354 62.4631 52.3541 62.4631C52.5754 62.4631 52.7646 62.487 52.9195 62.5367C53.0744 62.5864 53.2012 62.6599 53.2958 62.7573C53.3923 62.8528 53.4608 62.9721 53.505 63.1152C53.5493 63.2584 53.5714 63.4254 53.5714 63.6142V65.67H53.5694ZM53.008 64.2723H52.5231C52.3682 64.2723 52.2334 64.2842 52.1187 64.3121C52.006 64.3359 51.9094 64.3757 51.835 64.4274C51.7606 64.4771 51.7042 64.5387 51.668 64.6103C51.6318 64.6819 51.6157 64.7654 51.6157 64.8568C51.6157 65.0159 51.666 65.1411 51.7666 65.2346C51.8692 65.328 52.01 65.3757 52.1952 65.3757C52.342 65.3757 52.4809 65.3379 52.6076 65.2624C52.7344 65.1888 52.8672 65.0735 53.008 64.9204V64.2723ZM57.0543 62.7554C57.0543 62.8349 57.0443 62.8906 57.0221 62.9283C57.002 62.9621 56.9738 62.98 56.9376 62.98H56.493C56.5734 63.0615 56.6298 63.149 56.662 63.2464C56.6942 63.3438 56.7102 63.4452 56.7102 63.5506C56.7102 63.7276 56.6821 63.8826 56.6257 64.0178C56.5674 64.153 56.4869 64.2683 56.3803 64.3618C56.2736 64.4572 56.1469 64.5288 56 64.5785C55.8531 64.6282 55.6901 64.652 55.5131 64.652C55.3883 64.652 55.2656 64.6361 55.1549 64.6043C55.0422 64.5705 54.9537 64.5308 54.8913 64.4811C54.8531 64.5228 54.8209 64.5685 54.7948 64.6202C54.7706 64.6739 54.7565 64.7335 54.7565 64.8011C54.7565 64.8807 54.7948 64.9463 54.8672 64.998C54.9416 65.0516 55.0422 65.0795 55.163 65.0835L55.9678 65.1173C56.1207 65.1212 56.2616 65.1431 56.3883 65.1789C56.5171 65.2167 56.6278 65.2703 56.7203 65.3399C56.8149 65.4075 56.8873 65.493 56.9396 65.5924C56.9919 65.6938 57.0181 65.8091 57.0181 65.9423C57.0181 66.0815 56.9899 66.2147 56.9296 66.3419C56.8712 66.4692 56.7787 66.5785 56.6579 66.674C56.5352 66.7694 56.3783 66.8469 56.1891 66.9006C56 66.9563 55.7766 66.9841 55.5171 66.9841C55.2676 66.9841 55.0543 66.9642 54.8813 66.9225C54.7062 66.8807 54.5634 66.8231 54.4507 66.7515C54.34 66.6799 54.2575 66.5944 54.2072 66.493C54.1569 66.3917 54.1328 66.2823 54.1328 66.165C54.1328 66.0895 54.1428 66.0179 54.1589 65.9463C54.1791 65.8767 54.2052 65.8111 54.2435 65.7475C54.2797 65.6839 54.328 65.6242 54.3843 65.5666C54.4406 65.5089 54.505 65.4513 54.5795 65.3956C54.4688 65.3399 54.3863 65.2684 54.332 65.1809C54.2797 65.0954 54.2515 65.0039 54.2515 64.9025C54.2515 64.7654 54.2797 64.6421 54.336 64.5328C54.3923 64.4254 54.4608 64.328 54.5453 64.2405C54.4748 64.157 54.4185 64.0636 54.3783 63.9582C54.338 63.8528 54.3179 63.7256 54.3179 63.5765C54.3179 63.4035 54.3461 63.2464 54.4064 63.1092C54.4668 62.9721 54.5473 62.8548 54.6539 62.7593C54.7585 62.6659 54.8853 62.5923 55.0322 62.5406C55.1791 62.4909 55.342 62.4651 55.5151 62.4651C55.6096 62.4651 55.6962 62.4711 55.7787 62.481C55.8591 62.4929 55.9356 62.5068 56.006 62.5267H56.9396C56.9799 62.5267 57.008 62.5446 57.0282 62.5824C57.0443 62.6222 57.0543 62.6798 57.0543 62.7554ZM56.169 63.5566C56.169 63.3498 56.1127 63.1868 55.996 63.0715C55.8813 62.9542 55.7163 62.8965 55.505 62.8965C55.3944 62.8965 55.2998 62.9164 55.2173 62.9502C55.1368 62.986 55.0684 63.0357 55.0141 63.0993C54.9597 63.1629 54.9215 63.2365 54.8954 63.318C54.8692 63.3995 54.8551 63.487 54.8551 63.5784C54.8551 63.7773 54.9135 63.9363 55.0282 64.0516C55.1449 64.1669 55.3058 64.2246 55.5151 64.2246C55.6257 64.2246 55.7243 64.2067 55.8068 64.1729C55.8893 64.1371 55.9557 64.0894 56.01 64.0278C56.0644 63.9641 56.1046 63.8926 56.1288 63.813C56.1569 63.7295 56.169 63.6441 56.169 63.5566ZM56.4507 65.9722C56.4507 65.8409 56.3964 65.7415 56.2877 65.668C56.1791 65.5984 56.0322 65.5586 55.8471 65.5546L55.0483 65.5288C54.9759 65.5865 54.9155 65.6381 54.8692 65.6898C54.8229 65.7415 54.7867 65.7892 54.7585 65.835C54.7304 65.8807 54.7123 65.9264 54.7022 65.9722C54.6921 66.0179 54.6861 66.0636 54.6861 66.1093C54.6861 66.2565 54.7605 66.3678 54.9115 66.4414C55.0624 66.5169 55.2716 66.5547 55.5412 66.5547C55.7123 66.5547 55.8571 66.5388 55.9718 66.507C56.0885 66.4732 56.1791 66.4314 56.2495 66.3757C56.3199 66.3221 56.3722 66.2604 56.4024 66.1908C56.4346 66.1213 56.4507 66.0477 56.4507 65.9722ZM58.6781 61.2802C58.6781 61.3497 58.6761 61.4134 58.668 61.471C58.662 61.5287 58.6499 61.5844 58.6338 61.636C58.6177 61.6897 58.5956 61.7414 58.5694 61.7931C58.5433 61.8428 58.5111 61.8965 58.4708 61.9502L58.002 62.646C57.9899 62.6619 57.9779 62.6778 57.9618 62.6917C57.9457 62.7057 57.9296 62.7156 57.9054 62.7235C57.8833 62.7315 57.8571 62.7375 57.831 62.7414C57.8028 62.7454 57.7666 62.7454 57.7223 62.7454C57.6841 62.7454 57.6519 62.7454 57.6257 62.7414C57.5976 62.7375 57.5795 62.7315 57.5694 62.7235C57.5593 62.7156 57.5513 62.7057 57.5513 62.6917C57.5493 62.6778 57.5533 62.6619 57.5634 62.64L58.0181 61.7096V61.2802C58.0181 61.2205 58.0261 61.1728 58.0382 61.139C58.0503 61.1032 58.0704 61.0734 58.0986 61.0535C58.1247 61.0336 58.161 61.0197 58.2012 61.0118C58.2414 61.0058 58.2917 61.0018 58.3521 61.0018C58.4084 61.0018 58.4567 61.0058 58.501 61.0118C58.5412 61.0197 58.5754 61.0317 58.5996 61.0535C58.6257 61.0734 58.6459 61.1012 58.6579 61.139C58.674 61.1728 58.6781 61.2205 58.6781 61.2802ZM60.1207 65.666C60.1207 65.6839 60.1167 65.6998 60.1066 65.7117C60.0966 65.7236 60.0845 65.7356 60.0624 65.7435C60.0422 65.7515 60.0141 65.7594 59.9758 65.7634C59.9396 65.7674 59.8934 65.7694 59.835 65.7694C59.7787 65.7694 59.7324 65.7674 59.6982 65.7634C59.66 65.7594 59.6318 65.7515 59.6096 65.7435C59.5875 65.7336 59.5714 65.7217 59.5634 65.7117C59.5553 65.6998 59.5513 65.6839 59.5513 65.666V61.137C59.5513 61.1191 59.5553 61.1032 59.5634 61.0893C59.5714 61.0754 59.5875 61.0635 59.6096 61.0555C59.6298 61.0475 59.66 61.0396 59.6982 61.0356C59.7344 61.0316 59.7807 61.0277 59.835 61.0277C59.8934 61.0277 59.9396 61.0297 59.9758 61.0356C60.0141 61.0396 60.0422 61.0475 60.0624 61.0555C60.0845 61.0654 60.0966 61.0754 60.1066 61.0893C60.1167 61.1012 60.1207 61.1171 60.1207 61.137V65.666ZM63.672 65.666C63.672 65.6839 63.668 65.6998 63.66 65.7117C63.6519 65.7236 63.6378 65.7356 63.6157 65.7435C63.5956 65.7515 63.5694 65.7594 63.5352 65.7634C63.503 65.7674 63.4608 65.7694 63.4125 65.7694C63.3602 65.7694 63.3179 65.7674 63.2857 65.7634C63.2515 65.7594 63.2253 65.7515 63.2072 65.7435C63.1871 65.7336 63.173 65.7217 63.169 65.7117C63.1609 65.6998 63.1569 65.6839 63.1569 65.666V65.2624C62.9799 65.4552 62.8068 65.5944 62.6338 65.6819C62.4628 65.7694 62.2897 65.8131 62.1127 65.8131C61.9074 65.8131 61.7324 65.7793 61.5935 65.7117C61.4527 65.6461 61.338 65.5527 61.2535 65.4354C61.165 65.32 61.1046 65.1849 61.0664 65.0298C61.0282 64.8747 61.01 64.6858 61.01 64.4652V62.6142C61.01 62.5943 61.0121 62.5804 61.0221 62.5665C61.0302 62.5546 61.0443 62.5446 61.0684 62.5327C61.0905 62.5228 61.1207 62.5148 61.1569 62.5128C61.1931 62.5088 61.2394 62.5068 61.2938 62.5068C61.3501 62.5068 61.3944 62.5088 61.4306 62.5128C61.4668 62.5148 61.497 62.5228 61.5191 62.5327C61.5392 62.5426 61.5553 62.5546 61.5654 62.5665C61.5754 62.5784 61.5795 62.5943 61.5795 62.6142V64.3916C61.5795 64.5705 61.5915 64.7137 61.6197 64.821C61.6459 64.9284 61.6861 65.0198 61.7384 65.0954C61.7928 65.1709 61.8612 65.2306 61.9436 65.2723C62.0241 65.3141 62.1207 65.336 62.2314 65.336C62.3722 65.336 62.5151 65.2863 62.6559 65.1868C62.7968 65.0874 62.9457 64.9403 63.1046 64.7495V62.6162C63.1046 62.5963 63.1066 62.5824 63.1167 62.5685C63.1247 62.5566 63.1388 62.5466 63.163 62.5347C63.1851 62.5247 63.2133 62.5168 63.2495 62.5148C63.2857 62.5108 63.332 62.5088 63.3883 62.5088C63.4427 62.5088 63.4889 62.5108 63.5251 62.5148C63.5614 62.5168 63.5915 62.5247 63.6117 62.5347C63.6318 62.5446 63.6479 62.5566 63.6579 62.5685C63.67 62.5804 63.674 62.5963 63.674 62.6162V65.666H63.672ZM67.4265 64.0974C67.4265 64.3618 67.3984 64.6003 67.338 64.8111C67.2797 65.0238 67.1952 65.2047 67.0805 65.3519C66.9678 65.501 66.829 65.6163 66.664 65.6938C66.501 65.7733 66.3119 65.8131 66.1006 65.8131C66.002 65.8131 65.9115 65.8032 65.827 65.7833C65.7445 65.7634 65.662 65.7336 65.5835 65.6898C65.505 65.6461 65.4245 65.5924 65.3441 65.5268C65.2636 65.4612 65.1811 65.3817 65.0905 65.2902V65.666C65.0905 65.6839 65.0845 65.6998 65.0765 65.7137C65.0664 65.7276 65.0543 65.7376 65.0322 65.7455C65.0121 65.7535 64.9859 65.7594 64.9537 65.7634C64.9215 65.7674 64.8833 65.7694 64.835 65.7694C64.7887 65.7694 64.7485 65.7674 64.7183 65.7634C64.6861 65.7594 64.66 65.7535 64.6398 65.7455C64.6197 65.7376 64.6056 65.7276 64.5996 65.7137C64.5916 65.6998 64.5895 65.6839 64.5895 65.666V61.137C64.5895 61.1191 64.5935 61.1032 64.6016 61.0893C64.6096 61.0754 64.6258 61.0635 64.6479 61.0555C64.668 61.0475 64.6982 61.0396 64.7364 61.0356C64.7726 61.0316 64.8189 61.0277 64.8753 61.0277C64.9316 61.0277 64.9779 61.0297 65.0161 61.0356C65.0543 61.0396 65.0805 61.0475 65.1026 61.0555C65.1227 61.0654 65.1388 61.0754 65.1469 61.0893C65.1569 61.1012 65.1609 61.1171 65.1609 61.137V62.9601C65.2515 62.8687 65.34 62.7892 65.4266 62.7255C65.5111 62.6639 65.5956 62.6122 65.6781 62.5724C65.7606 62.5327 65.8431 62.5048 65.9255 62.485C66.008 62.4671 66.0945 62.4591 66.1851 62.4591C66.4104 62.4591 66.5996 62.5029 66.7606 62.5903C66.9175 62.6778 67.0483 62.7971 67.1469 62.9442C67.2455 63.0913 67.3199 63.2663 67.3642 63.4651C67.4044 63.6659 67.4265 63.8747 67.4265 64.0974ZM66.835 64.161C66.835 64.0059 66.8229 63.8528 66.7988 63.7057C66.7766 63.5566 66.7344 63.4274 66.674 63.314C66.6137 63.2007 66.5352 63.1093 66.4366 63.0417C66.338 62.9721 66.2153 62.9363 66.0684 62.9363C65.996 62.9363 65.9235 62.9462 65.8531 62.9661C65.7827 62.988 65.7102 63.0218 65.6378 63.0695C65.5634 63.1172 65.4869 63.1788 65.4104 63.2544C65.33 63.3279 65.2455 63.4234 65.1569 63.5367V64.7534C65.3139 64.9423 65.4608 65.0854 65.6036 65.1849C65.7445 65.2823 65.8934 65.334 66.0483 65.334C66.1891 65.334 66.3119 65.3002 66.4105 65.2326C66.5111 65.165 66.5936 65.0755 66.6559 64.9622C66.7183 64.8508 66.7646 64.7256 66.7927 64.5864C66.8209 64.4453 66.835 64.3041 66.835 64.161ZM68.7123 65.666C68.7123 65.6839 68.7083 65.6998 68.6982 65.7117C68.6881 65.7236 68.674 65.7356 68.6539 65.7435C68.6318 65.7515 68.6056 65.7594 68.5674 65.7634C68.5312 65.7674 68.4849 65.7694 68.4265 65.7694C68.3702 65.7694 68.326 65.7674 68.2897 65.7634C68.2515 65.7594 68.2213 65.7515 68.2012 65.7435C68.1791 65.7336 68.163 65.7217 68.1549 65.7117C68.1469 65.6998 68.1429 65.6839 68.1429 65.666V62.6142C68.1429 62.5983 68.1469 62.5824 68.1549 62.5705C68.163 62.5565 68.1791 62.5446 68.2012 62.5367C68.2213 62.5287 68.2515 62.5208 68.2897 62.5168C68.326 62.5128 68.3722 62.5088 68.4265 62.5088C68.4849 62.5088 68.5312 62.5108 68.5674 62.5168C68.6056 62.5208 68.6338 62.5287 68.6539 62.5367C68.674 62.5466 68.6901 62.5565 68.6982 62.5705C68.7083 62.5824 68.7123 62.5983 68.7123 62.6142V65.666ZM68.7766 61.5844C68.7766 61.7156 68.7505 61.805 68.7002 61.8527C68.6499 61.9005 68.5573 61.9243 68.4205 61.9243C68.2877 61.9243 68.1972 61.9024 68.1469 61.8547C68.0986 61.807 68.0744 61.7195 68.0744 61.5903C68.0744 61.4591 68.1006 61.3696 68.1489 61.3219C68.1992 61.2742 68.2917 61.2503 68.4286 61.2503C68.5614 61.2503 68.6519 61.2742 68.7022 61.3199C68.7525 61.3676 68.7766 61.4551 68.7766 61.5844ZM71.0261 65.7515L70.6157 66.8748C70.6016 66.9106 70.5654 66.9384 70.511 66.9583C70.4547 66.9781 70.3702 66.9861 70.2555 66.9861C70.1972 66.9861 70.1489 66.9841 70.1106 66.9782C70.0744 66.9722 70.0463 66.9622 70.0262 66.9483C70.008 66.9344 69.998 66.9165 69.994 66.8946C69.9899 66.8728 69.996 66.8449 70.01 66.8131L70.4366 65.7515C70.4165 65.7415 70.3964 65.7256 70.3783 65.7077C70.3602 65.6859 70.3461 65.666 70.34 65.6421L69.2374 62.7255C69.2193 62.6778 69.2113 62.64 69.2113 62.6142C69.2113 62.5864 69.2193 62.5645 69.2374 62.5486C69.2555 62.5327 69.2857 62.5227 69.326 62.5168C69.3662 62.5108 69.4225 62.5088 69.4909 62.5088C69.5593 62.5088 69.6117 62.5108 69.6519 62.5148C69.6901 62.5168 69.7223 62.5247 69.7445 62.5347C69.7666 62.5426 69.7827 62.5565 69.7927 62.5724C69.8028 62.5903 69.8149 62.6122 69.8249 62.642L70.7062 65.0914H70.7163L71.5654 62.6301C71.5795 62.5864 71.5956 62.5585 71.6157 62.5466C71.6358 62.5347 71.664 62.5247 71.7022 62.5188C71.7424 62.5128 71.7988 62.5108 71.8712 62.5108C71.9356 62.5108 71.9879 62.5128 72.0282 62.5188C72.0684 62.5247 72.1006 62.5347 72.1187 62.5506C72.1388 62.5665 72.1469 62.5884 72.1469 62.6162C72.1469 62.642 72.1388 62.6778 72.1267 62.7176L71.0261 65.7515ZM74.8873 65.67C74.8873 65.6978 74.8773 65.7177 74.8612 65.7316C74.8431 65.7455 74.8189 65.7535 74.7847 65.7614C74.7525 65.7694 74.7062 65.7714 74.6438 65.7714C74.5855 65.7714 74.5372 65.7674 74.503 65.7614C74.4688 65.7555 74.4426 65.7455 74.4245 65.7316C74.4084 65.7177 74.4004 65.6978 74.4004 65.67V65.3658C74.2656 65.5069 74.1147 65.6183 73.9497 65.6978C73.7827 65.7753 73.6076 65.8151 73.4225 65.8151C73.2596 65.8151 73.1106 65.7952 72.9799 65.7535C72.8491 65.7117 72.7364 65.6501 72.6439 65.5706C72.5513 65.491 72.4789 65.3936 72.4265 65.2803C72.3742 65.165 72.3481 65.0338 72.3481 64.8866C72.3481 64.7137 72.3843 64.5646 72.4547 64.4393C72.5251 64.3121 72.6278 64.2067 72.7606 64.1232C72.8913 64.0397 73.0543 63.9761 73.2475 63.9343C73.4386 63.8926 73.6559 63.8707 73.8954 63.8707H74.3219V63.6321C74.3219 63.5148 74.3078 63.4114 74.2837 63.32C74.2595 63.2305 74.2193 63.155 74.163 63.0953C74.1066 63.0357 74.0342 62.99 73.9457 62.9601C73.8571 62.9283 73.7465 62.9144 73.6157 62.9144C73.4769 62.9144 73.3501 62.9303 73.2414 62.9641C73.1308 62.9979 73.0342 63.0337 72.9497 63.0735C72.8672 63.1132 72.7968 63.151 72.7404 63.1828C72.6841 63.2166 72.6439 63.2325 72.6157 63.2325C72.5976 63.2325 72.5815 63.2285 72.5674 63.2186C72.5533 63.2106 72.5412 63.1967 72.5312 63.1788C72.5211 63.1609 72.5131 63.1391 72.509 63.1112C72.505 63.0814 72.503 63.0516 72.503 63.0178C72.503 62.9621 72.507 62.9164 72.5151 62.8846C72.5231 62.8528 72.5432 62.821 72.5734 62.7911C72.6036 62.7633 72.6579 62.7275 72.7324 62.6878C72.8068 62.648 72.8954 62.6122 72.994 62.5784C73.0905 62.5466 73.1992 62.5188 73.3159 62.4949C73.4326 62.473 73.5513 62.4631 73.668 62.4631C73.8893 62.4631 74.0784 62.487 74.2334 62.5367C74.3883 62.5864 74.5151 62.6599 74.6097 62.7573C74.7062 62.8528 74.7746 62.9721 74.8189 63.1152C74.8612 63.2584 74.8833 63.4254 74.8833 63.6142V65.67H74.8873ZM74.326 64.2723H73.841C73.6861 64.2723 73.5513 64.2842 73.4366 64.3121C73.3219 64.3359 73.2274 64.3757 73.1509 64.4274C73.0765 64.4771 73.0201 64.5387 72.9839 64.6103C72.9477 64.6819 72.9316 64.7654 72.9316 64.8568C72.9316 65.0159 72.9819 65.1411 73.0845 65.2346C73.1871 65.328 73.328 65.3757 73.5111 65.3757C73.6579 65.3757 73.7968 65.3379 73.9235 65.2624C74.0503 65.1888 74.1831 65.0735 74.3219 64.9204V64.2723H74.326ZM77.33 65.4393C77.33 65.5049 77.3259 65.5566 77.3159 65.5964C77.3078 65.6342 77.2938 65.664 77.2736 65.6799C77.2555 65.6998 77.2294 65.7157 77.1911 65.7316C77.1549 65.7475 77.1127 65.7594 77.0664 65.7714C77.0181 65.7813 76.9698 65.7892 76.9175 65.7952C76.8652 65.8012 76.8129 65.8051 76.7606 65.8051C76.6016 65.8051 76.4628 65.7833 76.3501 65.7415C76.2354 65.6998 76.1429 65.6362 76.0684 65.5507C75.996 65.4672 75.9437 65.3598 75.9095 65.2286C75.8773 65.0994 75.8612 64.9463 75.8612 64.7713V62.992H75.4265C75.3923 62.992 75.3642 62.9721 75.342 62.9383C75.3219 62.9025 75.3119 62.8428 75.3119 62.7613C75.3119 62.7176 75.3139 62.6818 75.3199 62.654C75.3259 62.6241 75.334 62.6003 75.342 62.5804C75.3501 62.5605 75.3642 62.5486 75.3783 62.5406C75.3944 62.5327 75.4105 62.5287 75.4286 62.5287H75.8591V61.803C75.8591 61.7871 75.8611 61.7712 75.8712 61.7593C75.8793 61.7454 75.8954 61.7335 75.9175 61.7235C75.9376 61.7136 75.9678 61.7056 76.006 61.7016C76.0422 61.6977 76.0865 61.6957 76.1448 61.6957C76.2032 61.6957 76.2475 61.6977 76.2857 61.7016C76.3239 61.7056 76.3501 61.7136 76.3722 61.7235C76.3923 61.7335 76.4084 61.7454 76.4165 61.7593C76.4266 61.7712 76.4306 61.7871 76.4306 61.803V62.5287H77.2173C77.2354 62.5287 77.2515 62.5327 77.2656 62.5406C77.2797 62.5486 77.2917 62.5625 77.3018 62.5804C77.3118 62.6003 77.3199 62.6241 77.3239 62.654C77.328 62.6818 77.33 62.7176 77.33 62.7613C77.33 62.8448 77.3199 62.9025 77.2998 62.9383C77.2797 62.9741 77.2515 62.992 77.2173 62.992H76.4306V64.6898C76.4306 64.8986 76.4628 65.0576 76.5251 65.165C76.5875 65.2723 76.7002 65.326 76.8612 65.326C76.9115 65.326 76.9597 65.322 77 65.3101C77.0402 65.3002 77.0785 65.2882 77.1086 65.2783C77.1408 65.2664 77.167 65.2564 77.1911 65.2465C77.2133 65.2365 77.2334 65.2306 77.2515 65.2306C77.2636 65.2306 77.2736 65.2326 77.2837 65.2385C77.2937 65.2445 77.3018 65.2544 77.3058 65.2703C77.3119 65.2862 77.3159 65.3081 77.3219 65.334C77.326 65.3638 77.33 65.3976 77.33 65.4393ZM82.4024 64.1033C82.4024 64.3518 82.3702 64.5805 82.3038 64.7892C82.2374 64.998 82.1388 65.1789 82.008 65.33C81.8772 65.4811 81.7123 65.6004 81.5151 65.6839C81.3159 65.7694 81.0865 65.8111 80.8269 65.8111C80.5734 65.8111 80.3521 65.7733 80.163 65.6998C79.9738 65.6262 79.8169 65.5169 79.6921 65.3737C79.5674 65.2306 79.4728 65.0576 79.4105 64.8548C79.3481 64.6501 79.3179 64.4214 79.3179 64.163C79.3179 63.9144 79.3521 63.6858 79.4145 63.4771C79.4809 63.2663 79.5795 63.0874 79.7103 62.9363C79.841 62.7852 80.004 62.6679 80.2012 62.5824C80.3984 62.4989 80.6278 62.4571 80.8893 62.4571C81.1429 62.4571 81.3642 62.4949 81.5533 62.5705C81.7424 62.644 81.8994 62.7534 82.0241 62.8945C82.1489 63.0377 82.2434 63.2106 82.3078 63.4134C82.3702 63.6182 82.4024 63.8488 82.4024 64.1033ZM81.8109 64.1391C81.8109 63.9741 81.7948 63.817 81.7646 63.6719C81.7344 63.5248 81.6821 63.3975 81.6096 63.2862C81.5392 63.1749 81.4427 63.0874 81.3199 63.0238C81.2012 62.9581 81.0463 62.9263 80.8652 62.9263C80.6982 62.9263 80.5533 62.9542 80.4326 63.0138C80.3119 63.0735 80.2133 63.157 80.1348 63.2643C80.0563 63.3717 79.998 63.4989 79.9618 63.646C79.9235 63.7932 79.9054 63.9542 79.9054 64.1272C79.9054 64.2942 79.9195 64.4532 79.9517 64.5984C79.9819 64.7455 80.0342 64.8747 80.1066 64.9841C80.1791 65.0934 80.2756 65.1809 80.3964 65.2445C80.5171 65.3101 80.67 65.3419 80.8511 65.3419C81.0161 65.3419 81.1589 65.3141 81.2797 65.2544C81.4024 65.1948 81.501 65.1133 81.5795 65.0059C81.6579 64.9005 81.7143 64.7713 81.7525 64.6262C81.7928 64.4771 81.8109 64.316 81.8109 64.1391Z" fill="white"/>
<path d="M87.6862 65.666C87.6862 65.6839 87.6822 65.6998 87.6721 65.7117C87.6621 65.7237 87.648 65.7356 87.6279 65.7436C87.6078 65.7515 87.5796 65.7595 87.5413 65.7634C87.5051 65.7674 87.4589 65.7694 87.4045 65.7694C87.3462 65.7694 87.2999 65.7674 87.2637 65.7634C87.2275 65.7595 87.1993 65.7515 87.1752 65.7436C87.153 65.7336 87.1389 65.7217 87.1289 65.7117C87.1188 65.6998 87.1148 65.6839 87.1148 65.666V63.8111C87.1148 63.6819 87.1027 63.5626 87.0806 63.4572C87.0564 63.3498 87.0222 63.2604 86.9699 63.1828C86.9196 63.1053 86.8552 63.0476 86.7788 63.0079C86.7023 62.9681 86.6098 62.9462 86.5051 62.9462C86.3744 62.9462 86.2436 62.996 86.1148 63.0954C85.984 63.1948 85.8391 63.3399 85.6822 63.5328V65.666C85.6822 65.6839 85.6782 65.6998 85.6681 65.7117C85.6601 65.7237 85.644 65.7356 85.6218 65.7436C85.5997 65.7515 85.5715 65.7595 85.5333 65.7634C85.4971 65.7674 85.4508 65.7694 85.3965 65.7694C85.3422 65.7694 85.2979 65.7674 85.2597 65.7634C85.2214 65.7595 85.1913 65.7515 85.1711 65.7436C85.149 65.7336 85.1329 65.7217 85.1248 65.7117C85.1168 65.6998 85.1128 65.6839 85.1128 65.666V63.8111C85.1128 63.6819 85.1007 63.5626 85.0745 63.4572C85.0484 63.3498 85.0122 63.2604 84.9619 63.1828C84.9116 63.1053 84.8472 63.0476 84.7727 63.0079C84.6963 62.9681 84.6057 62.9462 84.5011 62.9462C84.3703 62.9462 84.2395 62.996 84.1067 63.0954C83.9739 63.1948 83.8311 63.3399 83.6741 63.5328V65.666C83.6741 65.6839 83.6701 65.6998 83.6601 65.7117C83.652 65.7237 83.6379 65.7356 83.6158 65.7436C83.5957 65.7515 83.5675 65.7595 83.5293 65.7634C83.4931 65.7674 83.4468 65.7694 83.3884 65.7694C83.3321 65.7694 83.2858 65.7674 83.2496 65.7634C83.2114 65.7595 83.1832 65.7515 83.1611 65.7436C83.1389 65.7336 83.1228 65.7217 83.1168 65.7117C83.1087 65.6998 83.1047 65.6839 83.1047 65.666V62.6142C83.1047 62.5944 83.1087 62.5804 83.1148 62.5665C83.1228 62.5546 83.1349 62.5447 83.1571 62.5327C83.1772 62.5228 83.2033 62.5148 83.2355 62.5128C83.2677 62.5089 83.31 62.5069 83.3623 62.5069C83.4126 62.5069 83.4548 62.5089 83.487 62.5128C83.5212 62.5148 83.5474 62.5228 83.5655 62.5327C83.5816 62.5427 83.5977 62.5546 83.6057 62.5665C83.6118 62.5785 83.6178 62.5944 83.6178 62.6142V63.0178C83.7908 62.825 83.9619 62.6838 84.1248 62.5944C84.2878 62.5049 84.4548 62.4592 84.6198 62.4592C84.7486 62.4592 84.8633 62.4751 84.9659 62.5029C85.0685 62.5327 85.157 62.5745 85.2355 62.6282C85.314 62.6818 85.3804 62.7454 85.4347 62.819C85.491 62.8926 85.5353 62.9741 85.5736 63.0655C85.6762 62.9542 85.7727 62.8608 85.8653 62.7832C85.9578 62.7057 86.0464 62.6441 86.1329 62.5963C86.2194 62.5486 86.3019 62.5148 86.3824 62.493C86.4649 62.4711 86.5454 62.4611 86.6259 62.4611C86.8251 62.4611 86.9921 62.4949 87.1269 62.5645C87.2617 62.6341 87.3703 62.7256 87.4548 62.8409C87.5393 62.9562 87.5957 63.0914 87.6339 63.2465C87.6681 63.4015 87.6862 63.5646 87.6862 63.7375V65.666ZM89.155 65.666C89.155 65.6839 89.151 65.6998 89.141 65.7117C89.1309 65.7237 89.1168 65.7356 89.0967 65.7436C89.0766 65.7515 89.0464 65.7595 89.0102 65.7634C88.9739 65.7674 88.9277 65.7694 88.8693 65.7694C88.813 65.7694 88.7687 65.7674 88.7305 65.7634C88.6923 65.7595 88.6641 65.7515 88.644 65.7436C88.6218 65.7336 88.6057 65.7217 88.5977 65.7117C88.5896 65.6998 88.5856 65.6839 88.5856 65.666V62.6142C88.5856 62.5983 88.5876 62.5824 88.5977 62.5705C88.6057 62.5566 88.6218 62.5446 88.644 62.5367C88.6641 62.5287 88.6943 62.5208 88.7305 62.5168C88.7667 62.5128 88.813 62.5089 88.8693 62.5089C88.9277 62.5089 88.9739 62.5109 89.0102 62.5168C89.0484 62.5208 89.0766 62.5287 89.0967 62.5367C89.1168 62.5466 89.1309 62.5566 89.141 62.5705C89.151 62.5824 89.155 62.5983 89.155 62.6142V65.666ZM89.2174 61.5844C89.2174 61.7156 89.1913 61.8051 89.141 61.8528C89.0907 61.9005 88.9981 61.9243 88.8633 61.9243C88.7305 61.9243 88.6379 61.9025 88.5896 61.8548C88.5414 61.8071 88.5152 61.7196 88.5152 61.5903C88.5152 61.4591 88.5393 61.3697 88.5917 61.3219C88.642 61.2742 88.7345 61.2504 88.8713 61.2504C89.0061 61.2504 89.0967 61.2742 89.145 61.32C89.1933 61.3677 89.2174 61.4552 89.2174 61.5844ZM90.6319 65.666C90.6319 65.6839 90.6279 65.6998 90.6178 65.7117C90.6077 65.7237 90.5957 65.7356 90.5735 65.7436C90.5534 65.7515 90.5252 65.7595 90.487 65.7634C90.4508 65.7674 90.4045 65.7694 90.3462 65.7694C90.2898 65.7694 90.2436 65.7674 90.2073 65.7634C90.1691 65.7595 90.141 65.7515 90.1188 65.7436C90.0967 65.7336 90.0806 65.7217 90.0725 65.7117C90.0645 65.6998 90.0605 65.6839 90.0605 65.666V61.1371C90.0605 61.1192 90.0645 61.1033 90.0725 61.0893C90.0806 61.0754 90.0947 61.0635 90.1188 61.0555C90.1389 61.0476 90.1691 61.0396 90.2073 61.0357C90.2436 61.0317 90.2898 61.0277 90.3462 61.0277C90.4025 61.0277 90.4508 61.0297 90.487 61.0357C90.5252 61.0396 90.5534 61.0476 90.5735 61.0555C90.5957 61.0655 90.6098 61.0754 90.6178 61.0893C90.6279 61.1013 90.6319 61.1172 90.6319 61.1371V65.666ZM92.1088 65.666C92.1088 65.6839 92.1047 65.6998 92.0947 65.7117C92.0846 65.7237 92.0725 65.7356 92.0504 65.7436C92.0303 65.7515 92.0021 65.7595 91.9639 65.7634C91.9277 65.7674 91.8794 65.7694 91.823 65.7694C91.7667 65.7694 91.7204 65.7674 91.6862 65.7634C91.648 65.7595 91.6198 65.7515 91.5977 65.7436C91.5756 65.7336 91.5595 65.7217 91.5514 65.7117C91.5434 65.6998 91.5393 65.6839 91.5393 65.666V61.1371C91.5393 61.1192 91.5434 61.1033 91.5514 61.0893C91.5595 61.0754 91.5756 61.0635 91.5977 61.0555C91.6178 61.0476 91.648 61.0396 91.6862 61.0357C91.7224 61.0317 91.7687 61.0277 91.823 61.0277C91.8814 61.0277 91.9277 61.0297 91.9639 61.0357C92.0021 61.0396 92.0303 61.0476 92.0504 61.0555C92.0725 61.0655 92.0866 61.0754 92.0947 61.0893C92.1047 61.1013 92.1088 61.1172 92.1088 61.1371V65.666ZM95.3442 65.67C95.3442 65.6978 95.3341 65.7177 95.318 65.7316C95.2979 65.7455 95.2737 65.7535 95.2415 65.7614C95.2094 65.7694 95.1631 65.7714 95.1007 65.7714C95.0424 65.7714 94.9941 65.7674 94.9599 65.7614C94.9236 65.7555 94.8995 65.7455 94.8814 65.7316C94.8653 65.7177 94.8572 65.6978 94.8572 65.67V65.3658C94.7224 65.507 94.5735 65.6183 94.4065 65.6978C94.2395 65.7754 94.0645 65.8151 93.8794 65.8151C93.7164 65.8151 93.5695 65.7952 93.4367 65.7535C93.3059 65.7117 93.1933 65.6501 93.1007 65.5706C93.0081 65.4911 92.9357 65.3936 92.8834 65.2803C92.8331 65.165 92.8049 65.0338 92.8049 64.8867C92.8049 64.7137 92.8412 64.5646 92.9116 64.4393C92.982 64.3121 93.0826 64.2067 93.2174 64.1232C93.3502 64.0397 93.5112 63.9761 93.7043 63.9344C93.8975 63.8926 94.1128 63.8707 94.3542 63.8707H94.7808V63.6322C94.7808 63.5149 94.7687 63.4115 94.7426 63.32C94.7184 63.2306 94.6782 63.155 94.6218 63.0954C94.5655 63.0357 94.493 62.99 94.4045 62.9602C94.316 62.9284 94.2053 62.9144 94.0746 62.9144C93.9357 62.9144 93.8089 62.9303 93.7003 62.9641C93.5876 62.9979 93.491 63.0337 93.4086 63.0735C93.3261 63.1133 93.2536 63.151 93.1993 63.1828C93.143 63.2166 93.1027 63.2325 93.0745 63.2325C93.0564 63.2325 93.0403 63.2286 93.0263 63.2186C93.0122 63.2107 93.0001 63.1968 92.99 63.1789C92.978 63.161 92.9719 63.1391 92.9679 63.1113C92.9639 63.0814 92.9619 63.0516 92.9619 63.0178C92.9619 62.9622 92.9659 62.9164 92.9739 62.8846C92.982 62.8528 93.0021 62.821 93.0323 62.7912C93.0625 62.7633 93.1168 62.7276 93.1913 62.6878C93.2657 62.648 93.3542 62.6122 93.4528 62.5784C93.5494 62.5466 93.6581 62.5188 93.7748 62.495C93.8895 62.4731 94.0082 62.4631 94.1269 62.4631C94.3482 62.4631 94.5373 62.487 94.6923 62.5367C94.8492 62.5864 94.9739 62.66 95.0685 62.7574C95.1651 62.8528 95.2335 62.9721 95.2778 63.1152C95.322 63.2584 95.3442 63.4254 95.3442 63.6143V65.67ZM94.7828 64.2723H94.2999C94.145 64.2723 94.0102 64.2843 93.8955 64.3121C93.7828 64.336 93.6862 64.3757 93.6098 64.4274C93.5353 64.4771 93.481 64.5387 93.4428 64.6103C93.4065 64.6819 93.3904 64.7654 93.3904 64.8568C93.3904 65.0159 93.4408 65.1411 93.5434 65.2346C93.646 65.328 93.7868 65.3758 93.9699 65.3758C94.1168 65.3758 94.2556 65.338 94.3824 65.2624C94.5091 65.1889 94.642 65.0735 94.7808 64.9205V64.2723H94.7828ZM98.0564 62.8111C98.0564 62.8608 98.0544 62.9025 98.0524 62.9363C98.0504 62.9701 98.0444 62.996 98.0383 63.0158C98.0323 63.0357 98.0222 63.0496 98.0122 63.0596C98.0021 63.0695 97.988 63.0755 97.9699 63.0755C97.9518 63.0755 97.9297 63.0715 97.9015 63.0596C97.8753 63.0496 97.8452 63.0377 97.813 63.0298C97.7808 63.0198 97.7425 63.0099 97.7023 62.9999C97.6621 62.99 97.6158 62.986 97.5675 62.986C97.5092 62.986 97.4548 62.9979 97.3985 63.0198C97.3442 63.0437 97.2858 63.0795 97.2254 63.1331C97.1651 63.1848 97.1007 63.2544 97.0343 63.3399C96.9679 63.4254 96.8955 63.5327 96.815 63.656V65.664C96.815 65.6819 96.811 65.6978 96.8009 65.7098C96.7908 65.7217 96.7768 65.7336 96.7566 65.7416C96.7365 65.7495 96.7083 65.7575 96.6701 65.7614C96.6339 65.7654 96.5876 65.7674 96.5293 65.7674C96.4729 65.7674 96.4287 65.7654 96.3905 65.7614C96.3522 65.7575 96.324 65.7495 96.3019 65.7416C96.2798 65.7316 96.2637 65.7197 96.2556 65.7098C96.2476 65.6978 96.2436 65.6819 96.2436 65.664V62.6122C96.2436 62.5924 96.2456 62.5784 96.2536 62.5645C96.2597 62.5526 96.2737 62.5427 96.2939 62.5307C96.314 62.5208 96.3401 62.5128 96.3743 62.5108C96.4065 62.5069 96.4488 62.5049 96.5031 62.5049C96.5534 62.5049 96.5957 62.5069 96.6279 62.5108C96.6621 62.5128 96.6882 62.5208 96.7063 62.5307C96.7245 62.5407 96.7385 62.5526 96.7466 62.5645C96.7526 62.5765 96.7587 62.5924 96.7587 62.6122V63.0556C96.8432 62.9323 96.9216 62.8329 96.9961 62.7554C97.0705 62.6798 97.1409 62.6182 97.2073 62.5745C97.2737 62.5307 97.3401 62.5009 97.4045 62.483C97.4709 62.4651 97.5353 62.4572 97.6017 62.4572C97.6319 62.4572 97.6661 62.4592 97.7023 62.4611C97.7405 62.4651 97.7808 62.4711 97.821 62.481C97.8613 62.491 97.8995 62.5009 97.9317 62.5128C97.9639 62.5248 97.988 62.5347 98.0021 62.5466C98.0162 62.5586 98.0242 62.5685 98.0283 62.5784C98.0323 62.5884 98.0383 62.6023 98.0424 62.6162C98.0444 62.6321 98.0484 62.656 98.0484 62.6858C98.0565 62.7196 98.0564 62.7594 98.0564 62.8111ZM99.1349 65.666C99.1349 65.6839 99.1309 65.6998 99.1208 65.7117C99.1108 65.7237 99.0967 65.7356 99.0766 65.7436C99.0544 65.7515 99.0283 65.7595 98.99 65.7634C98.9538 65.7674 98.9055 65.7694 98.8492 65.7694C98.7929 65.7694 98.7466 65.7674 98.7124 65.7634C98.6741 65.7595 98.646 65.7515 98.6239 65.7436C98.6017 65.7336 98.5876 65.7217 98.5776 65.7117C98.5695 65.6998 98.5655 65.6839 98.5655 65.666V62.6142C98.5655 62.5983 98.5695 62.5824 98.5776 62.5705C98.5856 62.5566 98.6017 62.5446 98.6239 62.5367C98.646 62.5287 98.6741 62.5208 98.7124 62.5168C98.7486 62.5128 98.7949 62.5089 98.8492 62.5089C98.9076 62.5089 98.9538 62.5109 98.99 62.5168C99.0283 62.5208 99.0544 62.5287 99.0766 62.5367C99.0967 62.5466 99.1128 62.5566 99.1208 62.5705C99.1289 62.5824 99.1349 62.5983 99.1349 62.6142V65.666ZM99.1973 61.5844C99.1973 61.7156 99.1711 61.8051 99.1208 61.8528C99.0705 61.9005 98.978 61.9243 98.8411 61.9243C98.7063 61.9243 98.6158 61.9025 98.5675 61.8548C98.5172 61.8071 98.4931 61.7196 98.4931 61.5903C98.4931 61.4591 98.5192 61.3697 98.5695 61.3219C98.6198 61.2742 98.7124 61.2504 98.8472 61.2504C98.98 61.2504 99.0725 61.2742 99.1208 61.32C99.1731 61.3677 99.1973 61.4552 99.1973 61.5844Z" fill="white"/>
</svg>
