<svg width="100" height="67" viewBox="0 0 100 67" fill="none" xmlns="http://www.w3.org/2000/svg">
<path fill-rule="evenodd" clip-rule="evenodd" d="M35.8691 29.6498C34.3218 28.4907 31.692 26.0891 30.0502 24.7292C28.6296 23.5522 23.7624 19.2698 22.7121 18.5302C20.1628 16.7369 18.9677 19.8781 18.2534 21.3096L0.949561 55.3563C0.629642 55.9945 0.172912 56.5353 0.269492 57.4777C1.05219 57.8892 2.18297 57.7421 3.29564 57.7441C6.63568 57.7481 5.84696 57.9687 8.51899 52.6903L21.1649 27.8207C21.4808 27.2084 22.016 25.9916 22.3701 25.5741C22.8409 25.7392 33.4123 34.9024 34.6779 35.9224C37.9797 38.5845 38.6236 35.7653 41.5391 31.1946L53.8449 11.7189C54.3097 10.9872 55.0602 9.57764 55.6136 8.97126L67.6055 32.4809C68.1125 33.4869 69.022 35.7375 69.7725 36.1848C70.4667 36.5983 74.7061 36.5486 75.3801 36.2027C75.5733 35.5068 74.8932 34.5466 74.5954 33.9581C74.2272 33.2344 73.8389 32.4928 73.4807 31.7552L66.8228 18.5938C65.2755 15.6832 63.9355 12.7726 62.4043 9.84603L57.9737 1.1082C56.9355 -0.581715 54.7705 -0.110527 53.8208 1.33286C52.8993 2.73449 52.0965 4.04665 51.2494 5.40852L38.4767 25.6318C38.0119 26.3654 37.6397 26.9658 37.195 27.6716C36.8067 28.2859 36.2795 29.2422 35.8691 29.6498Z" fill="#E30613"/>
<path fill-rule="evenodd" clip-rule="evenodd" d="M55.0584 51.7635C55.6097 52.5329 56.654 55.2606 57.1288 56.2825C57.9115 57.9685 57.4608 57.7339 60.6359 57.7458C62.6902 57.7538 62.4105 57.5947 61.3079 55.2348L58.0544 48.4056L59.9719 46.0953C60.332 45.6719 60.6137 45.4075 60.9678 44.9899C61.2515 44.654 61.7264 44.2384 61.7264 43.6718C61.0664 43.2762 59.5815 43.469 58.6298 43.467C56.6479 43.4611 56.8954 43.9362 54.827 46.3041C54.4829 46.6977 53.5373 47.9344 53.1992 48.0875L53.1952 39.2582C53.1952 38.0812 53.322 37.9738 52.0503 37.9858C51.3401 37.9937 50.3703 37.9321 49.6962 37.9897C48.7445 38.0713 48.9638 38.7214 48.9679 39.5882L48.9699 55.9028C48.9679 56.537 48.7546 57.5112 49.4286 57.704C49.7747 57.8015 51.2495 57.7438 51.7143 57.7478C52.7163 57.7537 53.1731 57.9665 53.2033 56.9048C53.2717 54.5032 52.8693 54.0359 53.8934 52.9842C54.3481 52.513 54.5755 52.1254 55.0584 51.7635Z" fill="#1D1D1B"/>
<path fill-rule="evenodd" clip-rule="evenodd" d="M18.7748 57.5914C19.4146 57.828 22.3502 57.9473 22.9418 57.5557C23.2094 56.995 23.0685 51.1658 23.0585 50.0465C24.8814 49.8159 29.9055 50.3049 31.0947 49.8636C31.2677 49.283 31.3462 47.1875 31.1148 46.6269C30.7265 46.0205 24.8472 46.5494 23.0585 46.3287C23.0907 42.7481 22.6862 42.589 25.8311 42.591C26.9096 42.591 27.9881 42.591 29.0665 42.591C29.9679 42.591 31.6017 42.8415 32.2053 42.3465C32.4548 41.8156 32.3764 39.4676 32.1913 38.9269C31.4166 38.6306 25.5273 38.7877 24.1571 38.7877C17.5011 38.7917 18.642 44.0105 18.642 49.5117C18.642 50.9928 18.475 56.6531 18.7748 57.5914Z" fill="#1D1D1B"/>
<path fill-rule="evenodd" clip-rule="evenodd" d="M41.5533 54.3765C40.1388 54.794 37.3058 55.0982 37.3078 53.1498C37.3118 51.0424 39.7323 51.4062 41.5533 51.4202V54.3765ZM34.9396 47.0025C36.5854 47.3107 41.8007 44.8971 41.5613 48.5115C39.173 48.5851 36.6498 48.271 34.8873 49.5275C32.173 51.4639 31.3862 57.3965 37.9919 57.977C40.0784 58.1599 43.2052 57.9392 44.9295 57.14C46.1227 56.5873 45.8168 55.7006 45.8168 54.2513C45.8168 52.9649 45.8168 51.6786 45.8168 50.3923C45.8168 47.7998 45.8933 45.4538 44.2293 44.2311C42.5452 42.9945 40.0925 42.9467 37.678 43.237C37.0422 43.3126 34.9013 43.7082 34.5311 44.0005C34.0382 44.3881 34.7645 46.5055 34.9396 47.0025Z" fill="#1D1D1B"/>
<path fill-rule="evenodd" clip-rule="evenodd" d="M80.9154 46.8172C83.1367 46.1532 84.0261 47.9664 84.1629 49.8451C84.3078 51.8571 83.9396 53.9129 82.2695 54.3642C80.0905 54.9526 79.1931 53.2707 79.0522 51.3899C78.9013 49.3958 79.2011 47.3301 80.9154 46.8172ZM80.7021 43.1769C76.4305 43.6919 74.3923 46.8192 74.688 51.5012C74.9778 56.0739 77.6699 58.4617 82.6136 57.9925C86.9939 57.575 88.8772 54.3363 88.5452 49.6185C88.2454 45.346 85.4365 42.6044 80.7021 43.1769Z" fill="#1D1D1B"/>
<path fill-rule="evenodd" clip-rule="evenodd" d="M62.6116 44.1059C62.4305 44.5035 62.4365 45.9171 62.6116 46.3227C63.0321 46.8535 64.1709 46.5573 64.8571 46.6448C64.8309 48.8357 64.511 54.7842 65.346 56.321C65.9476 57.4304 67.183 57.9373 68.7766 58.0228C69.5452 58.0646 72.4345 57.9751 73.1911 57.5019C73.847 57.0944 73.02 54.3846 72.9456 54.3289C72.2876 54.0386 71.0643 54.474 70.2212 54.4104C68.9778 54.3189 69.0743 53.637 69.0804 52.4839C69.0884 50.5276 69.0904 48.5673 69.0824 46.611L71.686 46.613C72.1287 46.601 72.1086 46.6328 72.3319 46.3863C72.6257 46.0125 72.515 44.0184 72.3681 43.5472C71.6639 43.3524 69.9838 43.4359 69.1025 43.4399C69.016 42.1496 69.2574 40.5571 68.9315 39.4616C68.2293 39.2966 67.4526 39.6843 66.7645 39.909C65.0381 40.4736 65.177 40.1217 65.0281 42.3007C64.9959 42.7818 65.0804 43.257 64.7544 43.4339L62.6116 44.1059Z" fill="#1D1D1B"/>
<path fill-rule="evenodd" clip-rule="evenodd" d="M95.2393 57.5569C95.4848 56.9724 95.3379 51.3102 95.3379 50.171C95.3379 49.2525 95.0562 47.2862 95.8651 46.9582C96.4787 46.7097 98.6498 46.9959 99.5934 46.7653C99.8067 46.312 100.06 43.7871 99.6578 43.2443C99.4526 42.968 92.2454 41.801 91.181 46.2842C90.843 47.7077 91.0582 52.3838 91.0582 54.1373C91.0582 54.9306 90.6981 57.4794 91.4747 57.714C92.0965 57.9048 94.8349 57.8511 95.2393 57.5569Z" fill="#1D1D1B"/>
<path d="M4.94164 65.6603C4.94164 65.6782 4.93762 65.6941 4.92756 65.708C4.9175 65.722 4.9014 65.7319 4.87927 65.7398C4.85513 65.7478 4.82494 65.7558 4.78873 65.7597C4.75251 65.7657 4.70423 65.7677 4.64588 65.7677C4.59155 65.7677 4.54326 65.7657 4.50503 65.7597C4.4668 65.7538 4.43661 65.7478 4.41247 65.7398C4.39034 65.7319 4.37424 65.72 4.36418 65.708C4.35613 65.6961 4.35009 65.6782 4.35009 65.6603V61.8391H4.34407L2.78068 65.6782C2.77464 65.6941 2.76458 65.706 2.75251 65.72C2.73842 65.7319 2.72032 65.7398 2.69618 65.7498C2.67203 65.7577 2.64385 65.7637 2.60965 65.7677C2.57745 65.7717 2.53722 65.7717 2.49296 65.7717C2.44467 65.7717 2.40242 65.7697 2.37022 65.7657C2.33602 65.7617 2.30784 65.7558 2.28369 65.7478C2.26156 65.7398 2.24346 65.7319 2.22938 65.72C2.2173 65.708 2.20724 65.6981 2.20322 65.6822L0.706235 61.8431H0.704221V65.6643C0.704221 65.6822 0.700195 65.6981 0.690135 65.712C0.682087 65.7259 0.665992 65.7359 0.641847 65.7438C0.619714 65.7518 0.587517 65.7597 0.549287 65.7637C0.511058 65.7697 0.464786 65.7717 0.404424 65.7717C0.348086 65.7717 0.299794 65.7697 0.263577 65.7637C0.227359 65.7577 0.195164 65.7518 0.173031 65.7438C0.150898 65.7359 0.134807 65.7239 0.128771 65.712C0.120723 65.7001 0.116699 65.6822 0.116699 65.6643V61.6284C0.116699 61.533 0.142857 61.4654 0.193159 61.4256C0.243461 61.3858 0.301806 61.364 0.36418 61.364H0.726351C0.798785 61.364 0.865188 61.3699 0.919514 61.3858C0.975852 61.3978 1.02414 61.4196 1.06639 61.4495C1.10865 61.4793 1.14487 61.5171 1.17102 61.5608C1.19919 61.6065 1.22333 61.6582 1.24345 61.7198L2.51509 64.8969H2.5332L3.85312 61.7278C3.87726 61.6602 3.90744 61.6025 3.93762 61.5548C3.9678 61.5071 3.99999 61.4693 4.03621 61.4415C4.07042 61.4137 4.11268 61.3938 4.15493 61.3799C4.1992 61.3679 4.2515 61.362 4.30784 61.362H4.68812C4.72233 61.362 4.75653 61.366 4.78671 61.3779C4.81689 61.3878 4.84305 61.4037 4.86519 61.4256C4.88732 61.4475 4.90543 61.4733 4.91952 61.5071C4.9336 61.5389 4.93963 61.5807 4.93963 61.6264V65.6603H4.94164ZM8.56539 65.6643C8.56539 65.6822 8.56137 65.6981 8.55332 65.71C8.54527 65.722 8.53118 65.7339 8.50905 65.7418C8.48892 65.7498 8.46278 65.7577 8.42857 65.7617C8.39638 65.7657 8.35413 65.7677 8.30584 65.7677C8.25553 65.7677 8.21127 65.7657 8.17907 65.7617C8.14487 65.7577 8.11871 65.7498 8.1006 65.7418C8.08048 65.7319 8.06841 65.72 8.06036 65.71C8.05432 65.6981 8.0503 65.6822 8.0503 65.6643V65.2607C7.87324 65.4536 7.70019 65.5927 7.52715 65.6802C7.35613 65.7677 7.18108 65.8114 7.00603 65.8114C6.8008 65.8114 6.62776 65.7776 6.48692 65.71C6.34607 65.6444 6.23138 65.551 6.14486 65.4337C6.05834 65.3184 5.99597 65.1832 5.95774 65.0281C5.91951 64.873 5.90141 64.6841 5.90141 64.4635V62.6125C5.90141 62.5926 5.90543 62.5787 5.91348 62.5648C5.92153 62.5529 5.93561 62.5429 5.95975 62.531C5.98189 62.5211 6.01207 62.5131 6.04828 62.5111C6.0845 62.5071 6.13078 62.5052 6.1851 62.5052C6.23943 62.5052 6.28571 62.5071 6.32192 62.5111C6.35814 62.5131 6.38832 62.5211 6.41046 62.531C6.43058 62.541 6.44668 62.5529 6.45473 62.5648C6.46479 62.5767 6.46881 62.5926 6.46881 62.6125V64.3899C6.46881 64.5688 6.48088 64.712 6.50904 64.8193C6.5352 64.9267 6.57545 65.0182 6.62776 65.0937C6.68209 65.1692 6.7505 65.2289 6.833 65.2706C6.91549 65.3124 7.01006 65.3343 7.12072 65.3343C7.26157 65.3343 7.40442 65.2846 7.54527 65.1852C7.68611 65.0858 7.835 64.9386 7.99396 64.7478V62.6145C7.99396 62.5946 7.99597 62.5807 8.00603 62.5668C8.01408 62.5549 8.02817 62.5449 8.05231 62.533C8.07445 62.523 8.10463 62.5151 8.13883 62.5131C8.17505 62.5091 8.22133 62.5071 8.27766 62.5071C8.33199 62.5071 8.37827 62.5091 8.41448 62.5131C8.4507 62.5151 8.48088 62.523 8.501 62.533C8.52112 62.5429 8.53721 62.5549 8.54727 62.5668C8.55734 62.5787 8.56338 62.5946 8.56338 62.6145V65.6643H8.56539ZM12.0101 62.6046C12.0101 62.6145 12.0101 62.6244 12.008 62.6344C12.008 62.6443 12.004 62.6543 12.004 62.6662C12.002 62.6781 11.998 62.6881 11.994 62.702C11.9899 62.7159 11.9859 62.7298 11.9819 62.7457L10.9296 65.6444C10.9195 65.6703 10.9074 65.6901 10.8934 65.706C10.8773 65.722 10.8551 65.7359 10.827 65.7438C10.7968 65.7538 10.7585 65.7597 10.7123 65.7637C10.666 65.7677 10.6097 65.7677 10.5392 65.7677C10.4708 65.7677 10.4145 65.7657 10.3682 65.7617C10.3239 65.7577 10.2857 65.7498 10.2575 65.7418C10.2274 65.7319 10.2052 65.72 10.1911 65.7041C10.1751 65.6882 10.163 65.6683 10.1529 65.6464L9.10462 62.7477C9.09456 62.7199 9.08853 62.696 9.08249 62.6761C9.07646 62.6563 9.07244 62.6404 9.07244 62.6304C9.07042 62.6205 9.07042 62.6125 9.07042 62.6046C9.07042 62.5867 9.07646 62.5708 9.08249 62.5568C9.09054 62.5429 9.10664 62.533 9.13078 62.525C9.1509 62.5171 9.18108 62.5131 9.21528 62.5091C9.24949 62.5071 9.29376 62.5052 9.34809 62.5052C9.41449 62.5052 9.4668 62.5071 9.50704 62.5111C9.54728 62.5131 9.57746 62.5211 9.5996 62.531C9.62173 62.539 9.63783 62.5509 9.64789 62.5648C9.65795 62.5787 9.66801 62.5946 9.67606 62.6145L10.5473 65.1315L10.5614 65.1732L10.5714 65.1315L11.4326 62.6145C11.4366 62.5946 11.4447 62.5767 11.4567 62.5648C11.4668 62.5509 11.4849 62.539 11.507 62.531C11.5292 62.5211 11.5573 62.5151 11.5956 62.5111C11.6338 62.5071 11.6841 62.5052 11.7465 62.5052C11.7988 62.5052 11.8431 62.5071 11.8773 62.5091C11.9115 62.5111 11.9376 62.5171 11.9577 62.527C11.9779 62.535 11.9899 62.5469 12 62.5588C12.008 62.5708 12.0101 62.5867 12.0101 62.6046ZM14.7425 65.6683C14.7425 65.6961 14.7324 65.716 14.7163 65.7299C14.6982 65.7438 14.672 65.7518 14.6398 65.7597C14.6076 65.7677 14.5614 65.7697 14.499 65.7697C14.4406 65.7697 14.3923 65.7657 14.3581 65.7597C14.3219 65.7538 14.2978 65.7438 14.2817 65.7299C14.2636 65.716 14.2575 65.6961 14.2575 65.6683V65.3641C14.1227 65.5053 13.9718 65.6166 13.8068 65.6961C13.6418 65.7736 13.4648 65.8134 13.2797 65.8134C13.1187 65.8134 12.9698 65.7935 12.839 65.7518C12.7082 65.71 12.5956 65.6484 12.503 65.5689C12.4105 65.4893 12.338 65.3919 12.2857 65.2786C12.2334 65.1633 12.2072 65.0321 12.2072 64.8849C12.2072 64.712 12.2435 64.5629 12.3139 64.4376C12.3843 64.3104 12.4869 64.205 12.6197 64.1215C12.7525 64.038 12.9155 63.9744 13.1087 63.9326C13.2998 63.8909 13.5171 63.869 13.7565 63.869H14.1831V63.6304C14.1831 63.5131 14.169 63.4098 14.1449 63.3183C14.1187 63.2288 14.0785 63.1533 14.0221 63.0936C13.9658 63.034 13.8934 62.9883 13.8048 62.9585C13.7163 62.9266 13.6056 62.9127 13.4748 62.9127C13.336 62.9127 13.2113 62.9286 13.1006 62.9624C12.9899 62.9962 12.8933 63.032 12.8088 63.0718C12.7243 63.1115 12.6559 63.1493 12.5996 63.1811C12.5453 63.2149 12.503 63.2308 12.4748 63.2308C12.4567 63.2308 12.4386 63.2268 12.4266 63.2169C12.4125 63.209 12.4024 63.195 12.3903 63.1772C12.3803 63.1593 12.3722 63.1374 12.3682 63.1096C12.3642 63.0797 12.3622 63.0499 12.3622 63.0161C12.3622 62.9604 12.3642 62.9147 12.3742 62.8829C12.3823 62.8511 12.4024 62.8193 12.4326 62.7895C12.4628 62.7616 12.5171 62.7258 12.5915 62.6861C12.666 62.6463 12.7525 62.6105 12.8511 62.5767C12.9477 62.5449 13.0563 62.5171 13.173 62.4932C13.2897 62.4714 13.4064 62.4614 13.5251 62.4614C13.7465 62.4614 13.9356 62.4853 14.0905 62.535C14.2455 62.5847 14.3722 62.6582 14.4668 62.7557C14.5634 62.8511 14.6318 62.9704 14.674 63.1135C14.7183 63.2567 14.7404 63.4237 14.7404 63.6125V65.6683H14.7425ZM14.1811 64.2706H13.6962C13.5412 64.2706 13.4064 64.2825 13.2917 64.3104C13.1791 64.3342 13.0825 64.374 13.008 64.4257C12.9336 64.4754 12.8773 64.537 12.841 64.6086C12.8068 64.6802 12.7887 64.7637 12.7887 64.8551C12.7887 65.0142 12.839 65.1394 12.9396 65.2329C13.0422 65.3263 13.1851 65.374 13.3682 65.374C13.5151 65.374 13.6539 65.3363 13.7807 65.2607C13.9074 65.1871 14.0402 65.0718 14.1811 64.9187V64.2706ZM19.2535 61.356C19.2535 61.4296 19.2475 61.4813 19.2354 61.5111C19.2253 61.5429 19.2032 61.5588 19.175 61.5588C19.1569 61.5588 19.1348 61.5548 19.1107 61.5449C19.0865 61.535 19.0563 61.525 19.0221 61.5131C18.9859 61.5011 18.9457 61.4892 18.9014 61.4793C18.8551 61.4693 18.8028 61.4634 18.7425 61.4634C18.5734 61.4634 18.4527 61.521 18.3843 61.6364C18.3139 61.7517 18.2777 61.9366 18.2777 62.189V62.525H18.9718C18.9899 62.525 19.006 62.529 19.0201 62.537C19.0342 62.5449 19.0443 62.5588 19.0563 62.5767C19.0664 62.5966 19.0744 62.6205 19.0785 62.6503C19.0825 62.6781 19.0845 62.7139 19.0845 62.7576C19.0845 62.8411 19.0744 62.8988 19.0563 62.9346C19.0362 62.9704 19.008 62.9883 18.9718 62.9883H18.2777V65.6603C18.2777 65.6782 18.2736 65.6941 18.2636 65.706C18.2535 65.718 18.2374 65.7299 18.2173 65.7379C18.1952 65.7458 18.167 65.7538 18.1288 65.7577C18.0925 65.7617 18.0463 65.7637 17.9919 65.7637C17.9356 65.7637 17.8913 65.7617 17.8551 65.7577C17.8189 65.7538 17.7907 65.7458 17.7686 65.7379C17.7465 65.7279 17.7324 65.716 17.7223 65.706C17.7123 65.6941 17.7082 65.6782 17.7082 65.6603V62.9883H16.3239V65.6603C16.3239 65.6782 16.3199 65.6941 16.3099 65.706C16.2998 65.718 16.2857 65.7299 16.2636 65.7379C16.2414 65.7458 16.2133 65.7538 16.1771 65.7577C16.1408 65.7617 16.0946 65.7637 16.0402 65.7637C15.9839 65.7637 15.9396 65.7617 15.9034 65.7577C15.8672 65.7538 15.837 65.7458 15.8149 65.7379C15.7948 65.7279 15.7787 65.716 15.7686 65.706C15.7585 65.6941 15.7545 65.6782 15.7545 65.6603V62.9883H15.3159C15.2797 62.9883 15.2515 62.9684 15.2334 62.9346C15.2133 62.8988 15.2052 62.8392 15.2052 62.7576C15.2052 62.7139 15.2072 62.6781 15.2113 62.6503C15.2153 62.6205 15.2233 62.5966 15.2334 62.5767C15.2414 62.5569 15.2535 62.5449 15.2676 62.537C15.2817 62.529 15.2978 62.525 15.3159 62.525H15.7545V62.2368C15.7545 62.026 15.7767 61.8451 15.8169 61.696C15.8571 61.5449 15.9195 61.4216 16 61.3242C16.0825 61.2268 16.1851 61.1552 16.3078 61.1095C16.4286 61.0618 16.5714 61.0399 16.7324 61.0399C16.833 61.0399 16.9215 61.0479 16.996 61.0657C17.0704 61.0817 17.1328 61.1015 17.1811 61.1214C17.2032 61.1314 17.2233 61.1413 17.2354 61.1552C17.2495 61.1671 17.2596 61.187 17.2696 61.2069C17.2777 61.2288 17.2857 61.2546 17.2897 61.2864C17.2938 61.3163 17.2938 61.352 17.2938 61.3958C17.2938 61.4674 17.2877 61.521 17.2756 61.5528C17.2656 61.5866 17.2455 61.6025 17.2153 61.6025C17.1972 61.6025 17.175 61.5986 17.1529 61.5866C17.1288 61.5767 17.0986 61.5648 17.0624 61.5509C17.0261 61.5389 16.9859 61.527 16.9396 61.5171C16.8934 61.5071 16.841 61.5011 16.7827 61.5011C16.6137 61.5011 16.497 61.5588 16.4266 61.6741C16.3581 61.7894 16.3239 61.9743 16.3239 62.2268V62.5211H17.7082V62.191C17.7082 61.9823 17.7284 61.8014 17.7706 61.6503C17.8129 61.4992 17.8773 61.3759 17.9577 61.2765C18.0402 61.1791 18.1429 61.1075 18.2656 61.0618C18.3863 61.0141 18.5312 60.9922 18.6922 60.9922C18.7907 60.9922 18.8793 61.0001 18.9537 61.018C19.0322 61.0359 19.0926 61.0538 19.1408 61.0737C19.161 61.0836 19.1791 61.0936 19.1952 61.1095C19.2093 61.1214 19.2213 61.1413 19.2294 61.1612C19.2374 61.1831 19.2435 61.2089 19.2475 61.2407C19.2535 61.2765 19.2535 61.3123 19.2535 61.356ZM21.7626 65.6683C21.7626 65.6961 21.7525 65.716 21.7364 65.7299C21.7183 65.7438 21.6922 65.7518 21.66 65.7597C21.6278 65.7677 21.5815 65.7697 21.5191 65.7697C21.4608 65.7697 21.4125 65.7657 21.3763 65.7597C21.34 65.7538 21.3159 65.7438 21.2998 65.7299C21.2837 65.716 21.2756 65.6961 21.2756 65.6683V65.3641C21.1408 65.5053 20.9899 65.6166 20.8249 65.6961C20.6579 65.7736 20.4829 65.8134 20.2978 65.8134C20.1348 65.8134 19.9879 65.7935 19.8571 65.7518C19.7243 65.71 19.6137 65.6484 19.5211 65.5689C19.4286 65.4893 19.3561 65.3919 19.3058 65.2786C19.2535 65.1633 19.2274 65.0321 19.2274 64.8849C19.2274 64.712 19.2616 64.5629 19.334 64.4376C19.4044 64.3104 19.507 64.205 19.6398 64.1215C19.7726 64.038 19.9356 63.9744 20.1288 63.9326C20.3199 63.8909 20.5372 63.869 20.7767 63.869H21.2032V63.6304C21.2032 63.5131 21.1891 63.4098 21.165 63.3183C21.1388 63.2288 21.0986 63.1533 21.0423 63.0936C20.9859 63.034 20.9135 62.9883 20.8249 62.9585C20.7364 62.9266 20.6257 62.9127 20.495 62.9127C20.3561 62.9127 20.2314 62.9286 20.1207 62.9624C20.0101 62.9962 19.9135 63.032 19.829 63.0718C19.7465 63.1115 19.6761 63.1493 19.6197 63.1811C19.5634 63.2149 19.5231 63.2308 19.495 63.2308C19.4769 63.2308 19.4588 63.2268 19.4467 63.2169C19.4326 63.209 19.4205 63.195 19.4105 63.1772C19.4004 63.1593 19.3923 63.1374 19.3883 63.1096C19.3843 63.0797 19.3823 63.0499 19.3823 63.0161C19.3823 62.9604 19.3843 62.9147 19.3944 62.8829C19.4024 62.8511 19.4225 62.8193 19.4527 62.7895C19.4829 62.7616 19.5372 62.7258 19.6117 62.6861C19.6861 62.6463 19.7746 62.6105 19.8732 62.5767C19.9698 62.5449 20.0785 62.5171 20.1952 62.4932C20.3119 62.4714 20.4306 62.4614 20.5473 62.4614C20.7686 62.4614 20.9577 62.4853 21.1127 62.535C21.2676 62.5847 21.3944 62.6582 21.4889 62.7557C21.5855 62.8511 21.6539 62.9704 21.6982 63.1135C21.7425 63.2567 21.7646 63.4237 21.7646 63.6125V65.6683H21.7626ZM21.2012 64.2706H20.7163C20.5614 64.2706 20.4266 64.2825 20.3119 64.3104C20.1992 64.3342 20.1046 64.374 20.0282 64.4257C19.9537 64.4754 19.8974 64.537 19.8612 64.6086C19.827 64.6802 19.8089 64.7637 19.8089 64.8551C19.8089 65.0142 19.8592 65.1394 19.9618 65.2329C20.0644 65.3263 20.2052 65.374 20.3883 65.374C20.5352 65.374 20.674 65.3363 20.8008 65.2607C20.9276 65.1871 21.0604 65.0718 21.2012 64.9187V64.2706ZM25.3098 66.8751C25.3098 66.8949 25.3058 66.9089 25.2938 66.9228C25.2837 66.9367 25.2676 66.9486 25.2475 66.9566C25.2274 66.9645 25.1992 66.9725 25.161 66.9765C25.1247 66.9804 25.0785 66.9824 25.0241 66.9824C24.9658 66.9824 24.9215 66.9804 24.8853 66.9765C24.8491 66.9725 24.8209 66.9645 24.7988 66.9566C24.7746 66.9466 24.7606 66.9367 24.7525 66.9228C24.7445 66.9089 24.7404 66.8949 24.7404 66.8751V65.3084C24.6459 65.4019 24.5573 65.4794 24.4728 65.545C24.3863 65.6106 24.3038 65.6623 24.2213 65.7021C24.1388 65.7418 24.0563 65.7697 23.9718 65.7856C23.8873 65.8035 23.8028 65.8114 23.7143 65.8114C23.4889 65.8114 23.2978 65.7677 23.1408 65.6802C22.9839 65.5947 22.8531 65.4754 22.7545 65.3283C22.6559 65.1792 22.5835 65.0062 22.5372 64.8074C22.4909 64.6066 22.4688 64.3959 22.4688 64.1752C22.4688 63.9128 22.497 63.6742 22.5553 63.4634C22.6137 63.2527 22.6982 63.0718 22.8109 62.9227C22.9255 62.7736 23.0644 62.6602 23.2294 62.5787C23.3964 62.4992 23.5875 62.4594 23.8048 62.4594C23.8974 62.4594 23.9819 62.4694 24.0604 62.4873C24.1408 62.5052 24.2193 62.537 24.2998 62.5787C24.3783 62.6205 24.4587 62.6742 24.5412 62.7418C24.6217 62.8074 24.7103 62.8869 24.8068 62.9803V62.6125C24.8068 62.5906 24.8109 62.5747 24.8209 62.5628C24.831 62.5509 24.8451 62.539 24.8652 62.531C24.8873 62.5231 24.9115 62.5151 24.9457 62.5131C24.9779 62.5091 25.0181 62.5071 25.0644 62.5071C25.1107 62.5071 25.1489 62.5091 25.1811 62.5131C25.2113 62.5151 25.2394 62.523 25.2575 62.533C25.2777 62.5409 25.2897 62.5529 25.2978 62.5648C25.3058 62.5767 25.3098 62.5926 25.3098 62.6145V66.8751ZM24.7404 63.5151C24.5875 63.3263 24.4406 63.1831 24.2978 63.0837C24.1549 62.9863 24.006 62.9346 23.8531 62.9346C23.7082 62.9346 23.5855 62.9684 23.4849 63.036C23.3843 63.1036 23.3038 63.193 23.2394 63.3044C23.1771 63.4137 23.1308 63.541 23.1026 63.6801C23.0744 63.8193 23.0604 63.9625 23.0604 64.1076C23.0604 64.2627 23.0724 64.4158 23.0966 64.5629C23.1207 64.71 23.163 64.8412 23.2213 64.9545C23.2817 65.0659 23.3602 65.1573 23.4588 65.2269C23.5573 65.2945 23.6801 65.3303 23.827 65.3303C23.9014 65.3303 23.9738 65.3204 24.0443 65.3005C24.1127 65.2786 24.1851 65.2468 24.2575 65.1991C24.33 65.1514 24.4084 65.0917 24.4869 65.0142C24.5674 64.9386 24.6519 64.8472 24.7404 64.7358V63.5151ZM26.7927 65.6643C26.7927 65.6822 26.7887 65.6981 26.7787 65.71C26.7686 65.722 26.7545 65.7339 26.7344 65.7418C26.7123 65.7498 26.6861 65.7577 26.6479 65.7617C26.6117 65.7657 26.5654 65.7677 26.507 65.7677C26.4507 65.7677 26.4064 65.7657 26.3702 65.7617C26.332 65.7577 26.3038 65.7498 26.2817 65.7418C26.2596 65.7319 26.2435 65.72 26.2354 65.71C26.2274 65.6981 26.2233 65.6822 26.2233 65.6643V62.6125C26.2233 62.5966 26.2253 62.5807 26.2354 62.5688C26.2435 62.5549 26.2596 62.5429 26.2817 62.535C26.3018 62.527 26.332 62.5191 26.3702 62.5151C26.4064 62.5111 26.4527 62.5071 26.507 62.5071C26.5654 62.5071 26.6117 62.5091 26.6479 62.5151C26.6861 62.5191 26.7123 62.527 26.7344 62.535C26.7545 62.5449 26.7706 62.5549 26.7787 62.5688C26.7867 62.5807 26.7927 62.5966 26.7927 62.6125V65.6643ZM26.8571 61.5827C26.8571 61.7139 26.831 61.8033 26.7807 61.8511C26.7304 61.8988 26.6378 61.9226 26.501 61.9226C26.3682 61.9226 26.2756 61.9008 26.2274 61.8531C26.1791 61.8053 26.1529 61.7179 26.1529 61.5886C26.1529 61.4574 26.1791 61.3679 26.2294 61.3202C26.2797 61.2725 26.3722 61.2487 26.509 61.2487C26.6418 61.2487 26.7324 61.2725 26.7827 61.3182C26.831 61.366 26.8571 61.4534 26.8571 61.5827ZM29.1066 65.7498L28.6962 66.8731C28.6821 66.9089 28.6479 66.9367 28.5915 66.9566C28.5352 66.9765 28.4507 66.9844 28.336 66.9844C28.2757 66.9844 28.2274 66.9824 28.1932 66.9765C28.1549 66.9705 28.1288 66.9606 28.1086 66.9466C28.0905 66.9327 28.0805 66.9148 28.0785 66.893C28.0765 66.8711 28.0825 66.8433 28.0946 66.8114L28.5211 65.7498C28.501 65.7398 28.4809 65.7239 28.4628 65.706C28.4427 65.6842 28.4306 65.6643 28.4245 65.6404L27.3219 62.7239C27.3038 62.6761 27.2958 62.6384 27.2958 62.6125C27.2958 62.5847 27.3038 62.5628 27.3219 62.5469C27.342 62.531 27.3702 62.5211 27.4125 62.5151C27.4527 62.5091 27.509 62.5071 27.5775 62.5071C27.6459 62.5071 27.6982 62.5091 27.7384 62.5131C27.7767 62.5151 27.8088 62.523 27.831 62.533C27.8531 62.5409 27.8692 62.5549 27.8813 62.5708C27.8913 62.5887 27.9014 62.6105 27.9135 62.6404L28.7948 65.0897H28.8048L29.6559 62.6284C29.67 62.5847 29.6861 62.5568 29.7062 62.5449C29.7264 62.533 29.7545 62.5231 29.7928 62.5171C29.833 62.5111 29.8893 62.5091 29.9618 62.5091C30.0261 62.5091 30.0785 62.5111 30.1187 62.5171C30.161 62.5231 30.1911 62.533 30.2093 62.5489C30.2294 62.5648 30.2374 62.5867 30.2374 62.6145C30.2374 62.6404 30.2314 62.6761 30.2173 62.7159L29.1066 65.7498ZM32.9678 65.6683C32.9678 65.6961 32.9577 65.716 32.9396 65.7299C32.9215 65.7438 32.8974 65.7518 32.8652 65.7597C32.833 65.7677 32.7867 65.7697 32.7243 65.7697C32.666 65.7697 32.6177 65.7657 32.5835 65.7597C32.5473 65.7538 32.5231 65.7438 32.505 65.7299C32.4889 65.716 32.4809 65.6961 32.4809 65.6683V65.3641C32.3461 65.5053 32.1952 65.6166 32.0302 65.6961C31.8632 65.7736 31.6881 65.8134 31.503 65.8134C31.34 65.8134 31.1932 65.7935 31.0624 65.7518C30.9316 65.71 30.8189 65.6484 30.7264 65.5689C30.6338 65.4893 30.5614 65.3919 30.5111 65.2786C30.4587 65.1633 30.4326 65.0321 30.4326 64.8849C30.4326 64.712 30.4688 64.5629 30.5392 64.4376C30.6097 64.3104 30.7123 64.205 30.8451 64.1215C30.9779 64.038 31.1408 63.9744 31.332 63.9326C31.5251 63.8909 31.7404 63.869 31.9799 63.869H32.4064V63.6304C32.4064 63.5131 32.3944 63.4098 32.3682 63.3183C32.3441 63.2288 32.3038 63.1533 32.2475 63.0936C32.1911 63.034 32.1187 62.9883 32.0302 62.9585C31.9396 62.9266 31.831 62.9127 31.7002 62.9127C31.5614 62.9127 31.4346 62.9286 31.3239 62.9624C31.2133 62.9962 31.1167 63.032 31.0322 63.0718C30.9497 63.1115 30.8793 63.1493 30.8229 63.1811C30.7686 63.2149 30.7264 63.2308 30.6982 63.2308C30.6801 63.2308 30.664 63.2268 30.6499 63.2169C30.6358 63.209 30.6237 63.195 30.6137 63.1772C30.6036 63.1593 30.5956 63.1374 30.5915 63.1096C30.5875 63.0797 30.5835 63.0499 30.5835 63.0161C30.5835 62.9604 30.5875 62.9147 30.5956 62.8829C30.6036 62.8511 30.6237 62.8193 30.6539 62.7895C30.6841 62.7616 30.7384 62.7258 30.8129 62.6861C30.8873 62.6463 30.9738 62.6105 31.0744 62.5767C31.171 62.5449 31.2797 62.5171 31.3964 62.4932C31.5111 62.4714 31.6298 62.4614 31.7485 62.4614C31.9698 62.4614 32.1589 62.4853 32.3139 62.535C32.4688 62.5847 32.5936 62.6582 32.6901 62.7557C32.7867 62.8511 32.8551 62.9704 32.8994 63.1135C32.9416 63.2567 32.9658 63.4237 32.9658 63.6125V65.6683H32.9678ZM32.4064 64.2706H31.9235C31.7686 64.2706 31.6338 64.2825 31.5191 64.3104C31.4044 64.3342 31.3098 64.374 31.2334 64.4257C31.1569 64.4754 31.1026 64.537 31.0664 64.6086C31.0302 64.6802 31.0141 64.7637 31.0141 64.8551C31.0141 65.0142 31.0644 65.1394 31.167 65.2329C31.2696 65.3263 31.4105 65.374 31.5936 65.374C31.7404 65.374 31.8793 65.3363 32.006 65.2607C32.1328 65.1871 32.2656 65.0718 32.4044 64.9187V64.2706H32.4064ZM35.4105 65.4377C35.4105 65.5033 35.4064 65.5549 35.3964 65.5947C35.3883 65.6325 35.3742 65.6623 35.3541 65.6782C35.336 65.6981 35.3099 65.714 35.2736 65.7299C35.2374 65.7458 35.1952 65.7577 35.1489 65.7697C35.1006 65.7796 35.0523 65.7876 35 65.7935C34.9477 65.7995 34.8974 65.8035 34.843 65.8035C34.6821 65.8035 34.5453 65.7816 34.4326 65.7398C34.3199 65.6981 34.2253 65.6345 34.1509 65.549C34.0785 65.4655 34.0262 65.3581 33.9919 65.2269C33.9598 65.0977 33.9437 64.9446 33.9437 64.7696V62.9903H33.509C33.4748 62.9903 33.4467 62.9704 33.4245 62.9366C33.4044 62.9008 33.3944 62.8412 33.3944 62.7596C33.3944 62.7159 33.3964 62.6801 33.4024 62.6523C33.4084 62.6225 33.4165 62.5986 33.4245 62.5787C33.4346 62.5588 33.4467 62.5469 33.4608 62.539C33.4769 62.531 33.493 62.527 33.5111 62.527H33.9416V61.8014C33.9416 61.7855 33.9457 61.7696 33.9537 61.7576C33.9618 61.7437 33.9779 61.7318 34 61.7218C34.0201 61.7119 34.0503 61.7039 34.0885 61.7C34.1247 61.696 34.171 61.694 34.2253 61.694C34.2837 61.694 34.33 61.696 34.3662 61.7C34.4044 61.7039 34.4306 61.7119 34.4527 61.7218C34.4728 61.7318 34.4889 61.7437 34.497 61.7576C34.507 61.7696 34.5111 61.7855 34.5111 61.8014V62.527H35.2978C35.3179 62.527 35.332 62.531 35.3461 62.539C35.3602 62.5469 35.3722 62.5608 35.3823 62.5787C35.3923 62.5986 35.4004 62.6225 35.4044 62.6523C35.4085 62.6801 35.4105 62.7159 35.4105 62.7596C35.4105 62.8431 35.4004 62.9008 35.3803 62.9366C35.3581 62.9724 35.332 62.9903 35.2978 62.9903H34.5111V64.6881C34.5111 64.8969 34.5433 65.0559 34.6056 65.1633C34.668 65.2707 34.7807 65.3243 34.9416 65.3243C34.9919 65.3243 35.0402 65.3204 35.0805 65.3084C35.1207 65.2985 35.1569 65.2866 35.1891 65.2766C35.2213 65.2647 35.2475 65.2547 35.2716 65.2448C35.2938 65.2349 35.3159 65.2289 35.332 65.2289C35.3441 65.2289 35.3541 65.2309 35.3642 65.2369C35.3722 65.2428 35.3823 65.2528 35.3863 65.2687C35.3923 65.2846 35.3964 65.3064 35.4024 65.3323C35.4084 65.3621 35.4105 65.3959 35.4105 65.4377ZM40.1449 62.6046C40.1449 62.6145 40.1449 62.6244 40.1449 62.6344C40.1429 62.6443 40.1408 62.6543 40.1388 62.6662C40.1368 62.6781 40.1328 62.6881 40.1288 62.702C40.1268 62.7159 40.1227 62.7298 40.1167 62.7457L39.0644 65.6444C39.0563 65.6703 39.0422 65.6901 39.0282 65.706C39.0141 65.722 38.9919 65.7359 38.9618 65.7438C38.9316 65.7538 38.8934 65.7597 38.8491 65.7637C38.8028 65.7677 38.7465 65.7677 38.676 65.7677C38.6076 65.7677 38.5513 65.7657 38.505 65.7617C38.4587 65.7577 38.4205 65.7498 38.3923 65.7418C38.3642 65.7319 38.34 65.72 38.3259 65.7041C38.3098 65.6882 38.2978 65.6683 38.2877 65.6464L37.2374 62.7477C37.2274 62.7199 37.2213 62.696 37.2153 62.6761C37.2093 62.6563 37.2072 62.6404 37.2052 62.6304C37.2052 62.6205 37.2052 62.6125 37.2052 62.6046C37.2052 62.5867 37.2092 62.5708 37.2193 62.5568C37.2274 62.5429 37.2435 62.533 37.2656 62.525C37.2857 62.5171 37.3159 62.5131 37.3501 62.5091C37.3843 62.5071 37.4286 62.5052 37.4829 62.5052C37.5493 62.5052 37.6036 62.5071 37.6418 62.5111C37.6821 62.5131 37.7143 62.5211 37.7344 62.531C37.7565 62.539 37.7726 62.5509 37.7827 62.5648C37.7928 62.5787 37.8028 62.5946 37.8129 62.6145L38.6841 65.1315L38.6982 65.1732L38.7082 65.1315L39.5694 62.6145C39.5754 62.5946 39.5835 62.5767 39.5956 62.5648C39.6056 62.5509 39.6237 62.539 39.6439 62.531C39.666 62.5211 39.6962 62.5151 39.7344 62.5111C39.7726 62.5071 39.8229 62.5052 39.8833 62.5052C39.9356 62.5052 39.9799 62.5071 40.0141 62.5091C40.0483 62.5111 40.0744 62.5171 40.0946 62.527C40.1147 62.535 40.1267 62.5469 40.1348 62.5588C40.1408 62.5708 40.1449 62.5867 40.1449 62.6046Z" fill="#1D1D1B"/>
<path d="M42.8772 65.6681C42.8772 65.696 42.8692 65.7158 42.8511 65.7298C42.831 65.7437 42.8068 65.7516 42.7746 65.7596C42.7424 65.7675 42.6962 65.7695 42.6338 65.7695C42.5754 65.7695 42.5272 65.7655 42.4929 65.7596C42.4587 65.7536 42.4326 65.7437 42.4165 65.7298C42.4004 65.7158 42.3923 65.696 42.3923 65.6681V65.3639C42.2575 65.5051 42.1066 65.6164 41.9416 65.696C41.7746 65.7735 41.5996 65.8133 41.4145 65.8133C41.2515 65.8133 41.1046 65.7934 40.9718 65.7516C40.841 65.7099 40.7284 65.6482 40.6358 65.5687C40.5433 65.4892 40.4708 65.3918 40.4185 65.2784C40.3662 65.1631 40.342 65.0319 40.342 64.8848C40.342 64.7118 40.3763 64.5627 40.4487 64.4375C40.5191 64.3102 40.6217 64.2049 40.7545 64.1214C40.8873 64.0379 41.0503 63.9742 41.2414 63.9325C41.4346 63.8907 41.6499 63.8689 41.8893 63.8689H42.3159V63.6303C42.3159 63.513 42.3038 63.4096 42.2777 63.3182C42.2515 63.2287 42.2113 63.1531 42.1569 63.0935C42.1006 63.0339 42.0282 62.9881 41.9376 62.9583C41.8491 62.9265 41.7384 62.9126 41.6096 62.9126C41.4708 62.9126 41.3441 62.9285 41.2354 62.9623C41.1247 62.9961 41.0261 63.0319 40.9436 63.0716C40.8612 63.1114 40.7907 63.1492 40.7344 63.181C40.6801 63.2148 40.6378 63.2307 40.6097 63.2307C40.5915 63.2307 40.5734 63.2267 40.5614 63.2168C40.5473 63.2088 40.5352 63.1949 40.5251 63.177C40.5151 63.1591 40.507 63.1372 40.503 63.1094C40.499 63.0796 40.497 63.0498 40.497 63.016C40.497 62.9603 40.501 62.9146 40.509 62.8828C40.5171 62.8509 40.5372 62.8191 40.5674 62.7893C40.5976 62.7615 40.6519 62.7257 40.7263 62.6859C40.8008 62.6462 40.8893 62.6104 40.9879 62.5766C41.0845 62.5448 41.1931 62.5169 41.3098 62.4931C41.4265 62.4712 41.5453 62.4613 41.662 62.4613C41.8833 62.4613 42.0724 62.4851 42.2274 62.5348C42.3823 62.5845 42.507 62.6581 42.6036 62.7555C42.7002 62.8509 42.7686 62.9702 42.8129 63.1134C42.8551 63.2565 42.8772 63.4235 42.8772 63.6124V65.6681ZM42.3159 64.2705H41.831C41.676 64.2705 41.5433 64.2824 41.4286 64.3102C41.3139 64.3341 41.2193 64.3739 41.1428 64.4255C41.0684 64.4752 41.0121 64.5369 40.9758 64.6084C40.9416 64.68 40.9235 64.7635 40.9235 64.855C40.9235 65.014 40.9738 65.1393 41.0765 65.2327C41.1771 65.3262 41.3199 65.3739 41.503 65.3739C41.6499 65.3739 41.7887 65.3361 41.9135 65.2606C42.0402 65.187 42.173 65.0717 42.3139 64.9186V64.2705H42.3159ZM50.2616 65.6602C50.2616 65.6781 50.2575 65.694 50.2475 65.7079C50.2374 65.7218 50.2213 65.7317 50.1972 65.7397C50.173 65.7476 50.1429 65.7556 50.1066 65.7596C50.0704 65.7655 50.0221 65.7675 49.9638 65.7675C49.9094 65.7675 49.8612 65.7655 49.8229 65.7596C49.7847 65.7536 49.7545 65.7476 49.7304 65.7397C49.7082 65.7317 49.6921 65.7198 49.6821 65.7079C49.672 65.696 49.668 65.6781 49.668 65.6602V61.839H49.6599L48.0966 65.6781C48.0905 65.694 48.0805 65.7059 48.0684 65.7198C48.0563 65.7317 48.0382 65.7397 48.0141 65.7496C47.9899 65.7576 47.9618 65.7636 47.9276 65.7675C47.8954 65.7715 47.8551 65.7715 47.8088 65.7715C47.7605 65.7715 47.7203 65.7695 47.6861 65.7655C47.6519 65.7616 47.6237 65.7556 47.6016 65.7477C47.5795 65.7397 47.5614 65.7317 47.5473 65.7198C47.5352 65.7079 47.5272 65.6979 47.5211 65.682L46.0241 61.843H46.0221V65.6641C46.0221 65.682 46.0181 65.698 46.008 65.7119C45.998 65.7258 45.9819 65.7357 45.9597 65.7437C45.9376 65.7516 45.9054 65.7596 45.8672 65.7636C45.829 65.7695 45.7827 65.7715 45.7243 65.7715C45.666 65.7715 45.6197 65.7695 45.5835 65.7636C45.5453 65.7576 45.5171 65.7516 45.4929 65.7437C45.4708 65.7357 45.4547 65.7238 45.4467 65.7119C45.4386 65.6999 45.4326 65.682 45.4326 65.6641V61.6282C45.4326 61.5328 45.4587 61.4652 45.509 61.4255C45.5614 61.3857 45.6177 61.3638 45.6801 61.3638H46.0422C46.1167 61.3638 46.1811 61.3698 46.2374 61.3857C46.2937 61.3976 46.342 61.4195 46.3843 61.4493C46.4266 61.4791 46.4607 61.5169 46.4869 61.5607C46.5151 61.6064 46.5392 61.6581 46.5614 61.7197L47.831 64.8967H47.8491L49.167 61.7277C49.1931 61.6601 49.2213 61.6024 49.2515 61.5547C49.2817 61.507 49.3139 61.4692 49.3501 61.4414C49.3863 61.4135 49.4265 61.3936 49.4688 61.3797C49.5131 61.3678 49.5654 61.3618 49.6217 61.3618H50.002C50.0362 61.3618 50.0704 61.3658 50.1006 61.3777C50.1308 61.3877 50.1589 61.4036 50.1811 61.4255C50.2032 61.4473 50.2213 61.4732 50.2354 61.507C50.2495 61.5388 50.2555 61.5805 50.2555 61.6263V65.6602H50.2616ZM53.5694 65.6681C53.5694 65.696 53.5593 65.7158 53.5432 65.7298C53.5231 65.7437 53.499 65.7516 53.4668 65.7596C53.4346 65.7675 53.3883 65.7695 53.326 65.7695C53.2676 65.7695 53.2193 65.7655 53.1851 65.7596C53.1489 65.7536 53.1247 65.7437 53.1066 65.7298C53.0905 65.7158 53.0825 65.696 53.0825 65.6681V65.3639C52.9477 65.5051 52.7968 65.6164 52.6318 65.696C52.4648 65.7735 52.2897 65.8133 52.1046 65.8133C51.9416 65.8133 51.7948 65.7934 51.664 65.7516C51.5312 65.7099 51.4205 65.6482 51.328 65.5687C51.2354 65.4892 51.163 65.3918 51.1127 65.2784C51.0604 65.1631 51.0342 65.0319 51.0342 64.8848C51.0342 64.7118 51.0684 64.5627 51.1408 64.4375C51.2113 64.3102 51.3139 64.2049 51.4467 64.1214C51.5795 64.0379 51.7424 63.9742 51.9356 63.9325C52.1267 63.8907 52.3441 63.8689 52.5835 63.8689H53.0101V63.6303C53.0101 63.513 52.996 63.4096 52.9718 63.3182C52.9457 63.2287 52.9054 63.1531 52.8491 63.0935C52.7927 63.0339 52.7203 62.9881 52.6318 62.9583C52.5433 62.9265 52.4326 62.9126 52.3018 62.9126C52.163 62.9126 52.0382 62.9285 51.9276 62.9623C51.8169 62.9961 51.7183 63.0319 51.6358 63.0716C51.5533 63.1114 51.4829 63.1492 51.4266 63.181C51.3702 63.2148 51.33 63.2307 51.3018 63.2307C51.2817 63.2307 51.2656 63.2267 51.2535 63.2168C51.2394 63.2088 51.2274 63.1949 51.2173 63.177C51.2072 63.1591 51.1992 63.1372 51.1952 63.1094C51.1911 63.0796 51.1891 63.0498 51.1891 63.016C51.1891 62.9603 51.1911 62.9146 51.2012 62.8828C51.2092 62.8509 51.2294 62.8191 51.2595 62.7893C51.2897 62.7615 51.3441 62.7257 51.4185 62.6859C51.4929 62.6462 51.5815 62.6104 51.6801 62.5766C51.7766 62.5448 51.8853 62.5169 52.002 62.4931C52.1187 62.4712 52.2354 62.4613 52.3541 62.4613C52.5754 62.4613 52.7646 62.4851 52.9195 62.5348C53.0744 62.5845 53.2012 62.6581 53.2958 62.7555C53.3923 62.8509 53.4608 62.9702 53.505 63.1134C53.5493 63.2565 53.5714 63.4235 53.5714 63.6124V65.6681H53.5694ZM53.008 64.2705H52.5231C52.3682 64.2705 52.2334 64.2824 52.1187 64.3102C52.006 64.3341 51.9094 64.3739 51.835 64.4255C51.7606 64.4752 51.7042 64.5369 51.668 64.6084C51.6318 64.68 51.6157 64.7635 51.6157 64.855C51.6157 65.014 51.666 65.1393 51.7666 65.2327C51.8692 65.3262 52.01 65.3739 52.1952 65.3739C52.342 65.3739 52.4809 65.3361 52.6076 65.2606C52.7344 65.187 52.8672 65.0717 53.008 64.9186V64.2705ZM57.0543 62.7535C57.0543 62.8331 57.0443 62.8887 57.0221 62.9265C57.002 62.9603 56.9738 62.9782 56.9376 62.9782H56.493C56.5734 63.0597 56.6298 63.1472 56.662 63.2446C56.6942 63.342 56.7102 63.4434 56.7102 63.5488C56.7102 63.7257 56.6821 63.8808 56.6257 64.016C56.5674 64.1512 56.4869 64.2665 56.3803 64.3599C56.2736 64.4554 56.1469 64.5269 56 64.5766C55.8531 64.6263 55.6901 64.6502 55.5131 64.6502C55.3883 64.6502 55.2656 64.6343 55.1549 64.6025C55.0422 64.5687 54.9537 64.5289 54.8913 64.4792C54.8531 64.521 54.8209 64.5667 54.7948 64.6184C54.7706 64.6721 54.7565 64.7317 54.7565 64.7993C54.7565 64.8788 54.7948 64.9444 54.8672 64.9961C54.9416 65.0498 55.0422 65.0776 55.163 65.0816L55.9678 65.1154C56.1207 65.1194 56.2616 65.1413 56.3883 65.1771C56.5171 65.2148 56.6278 65.2685 56.7203 65.3381C56.8149 65.4057 56.8873 65.4912 56.9396 65.5906C56.9919 65.692 57.0181 65.8073 57.0181 65.9405C57.0181 66.0797 56.9899 66.2129 56.9296 66.3401C56.8712 66.4674 56.7787 66.5767 56.6579 66.6721C56.5352 66.7676 56.3783 66.8451 56.1891 66.8988C56 66.9544 55.7766 66.9823 55.5171 66.9823C55.2676 66.9823 55.0543 66.9624 54.8813 66.9206C54.7062 66.8789 54.5634 66.8212 54.4507 66.7497C54.34 66.6781 54.2575 66.5926 54.2072 66.4912C54.1569 66.3898 54.1328 66.2805 54.1328 66.1632C54.1328 66.0876 54.1428 66.0161 54.1589 65.9445C54.1791 65.8749 54.2052 65.8093 54.2435 65.7457C54.2797 65.682 54.328 65.6224 54.3843 65.5647C54.4406 65.5071 54.505 65.4494 54.5795 65.3938C54.4688 65.3381 54.3863 65.2665 54.332 65.179C54.2797 65.0936 54.2515 65.0021 54.2515 64.9007C54.2515 64.7635 54.2797 64.6403 54.336 64.5309C54.3923 64.4236 54.4608 64.3261 54.5453 64.2387C54.4748 64.1552 54.4185 64.0617 54.3783 63.9563C54.338 63.851 54.3179 63.7237 54.3179 63.5746C54.3179 63.4017 54.3461 63.2446 54.4064 63.1074C54.4668 62.9702 54.5473 62.8529 54.6539 62.7575C54.7585 62.6641 54.8853 62.5905 55.0322 62.5388C55.1791 62.4891 55.342 62.4633 55.5151 62.4633C55.6096 62.4633 55.6962 62.4692 55.7787 62.4792C55.8591 62.4911 55.9356 62.505 56.006 62.5249H56.9396C56.9799 62.5249 57.008 62.5428 57.0282 62.5806C57.0443 62.6203 57.0543 62.678 57.0543 62.7535ZM56.169 63.5547C56.169 63.348 56.1127 63.185 55.996 63.0696C55.8813 62.9523 55.7163 62.8947 55.505 62.8947C55.3944 62.8947 55.2998 62.9146 55.2173 62.9484C55.1368 62.9842 55.0684 63.0339 55.0141 63.0975C54.9597 63.1611 54.9215 63.2347 54.8954 63.3162C54.8692 63.3977 54.8551 63.4852 54.8551 63.5766C54.8551 63.7754 54.9135 63.9345 55.0282 64.0498C55.1449 64.1651 55.3058 64.2228 55.5151 64.2228C55.6257 64.2228 55.7243 64.2049 55.8068 64.1711C55.8893 64.1353 55.9557 64.0876 56.01 64.0259C56.0644 63.9623 56.1046 63.8907 56.1288 63.8112C56.1569 63.7277 56.169 63.6422 56.169 63.5547ZM56.4507 65.9703C56.4507 65.8391 56.3964 65.7397 56.2877 65.6661C56.1791 65.5966 56.0322 65.5568 55.8471 65.5528L55.0483 65.527C54.9759 65.5846 54.9155 65.6363 54.8692 65.688C54.8229 65.7397 54.7867 65.7874 54.7585 65.8331C54.7304 65.8789 54.7123 65.9246 54.7022 65.9703C54.6921 66.0161 54.6861 66.0618 54.6861 66.1075C54.6861 66.2546 54.7605 66.366 54.9115 66.4395C55.0624 66.5151 55.2716 66.5528 55.5412 66.5528C55.7123 66.5528 55.8571 66.5369 55.9718 66.5051C56.0885 66.4713 56.1791 66.4296 56.2495 66.3739C56.3199 66.3202 56.3722 66.2586 56.4024 66.189C56.4346 66.1194 56.4507 66.0459 56.4507 65.9703ZM58.6781 61.2783C58.6781 61.3479 58.6761 61.4115 58.668 61.4692C58.662 61.5269 58.6499 61.5825 58.6338 61.6342C58.6177 61.6879 58.5956 61.7396 58.5694 61.7913C58.5433 61.841 58.5111 61.8947 58.4708 61.9483L58.002 62.6442C57.9899 62.6601 57.9779 62.676 57.9618 62.6899C57.9457 62.7038 57.9296 62.7138 57.9054 62.7217C57.8833 62.7297 57.8571 62.7356 57.831 62.7396C57.8028 62.7436 57.7666 62.7436 57.7223 62.7436C57.6841 62.7436 57.6519 62.7436 57.6257 62.7396C57.5976 62.7356 57.5795 62.7297 57.5694 62.7217C57.5593 62.7138 57.5513 62.7038 57.5513 62.6899C57.5493 62.676 57.5533 62.6601 57.5634 62.6382L58.0181 61.7078V61.2783C58.0181 61.2187 58.0261 61.171 58.0382 61.1372C58.0503 61.1014 58.0704 61.0716 58.0986 61.0517C58.1247 61.0318 58.161 61.0179 58.2012 61.0099C58.2414 61.004 58.2917 61 58.3521 61C58.4084 61 58.4567 61.004 58.501 61.0099C58.5412 61.0179 58.5754 61.0298 58.5996 61.0517C58.6257 61.0716 58.6459 61.0994 58.6579 61.1372C58.674 61.171 58.6781 61.2187 58.6781 61.2783ZM60.1207 65.6641C60.1207 65.682 60.1167 65.698 60.1066 65.7099C60.0966 65.7218 60.0845 65.7337 60.0624 65.7417C60.0422 65.7496 60.0141 65.7576 59.9758 65.7616C59.9396 65.7656 59.8934 65.7675 59.835 65.7675C59.7787 65.7675 59.7324 65.7656 59.6982 65.7616C59.66 65.7576 59.6318 65.7496 59.6096 65.7417C59.5875 65.7317 59.5714 65.7198 59.5634 65.7099C59.5553 65.698 59.5513 65.682 59.5513 65.6641V61.1352C59.5513 61.1173 59.5553 61.1014 59.5634 61.0875C59.5714 61.0736 59.5875 61.0616 59.6096 61.0537C59.6298 61.0457 59.66 61.0378 59.6982 61.0338C59.7344 61.0298 59.7807 61.0258 59.835 61.0258C59.8934 61.0258 59.9396 61.0278 59.9758 61.0338C60.0141 61.0378 60.0422 61.0457 60.0624 61.0537C60.0845 61.0636 60.0966 61.0736 60.1066 61.0875C60.1167 61.0994 60.1207 61.1153 60.1207 61.1352V65.6641ZM63.672 65.6641C63.672 65.682 63.668 65.698 63.66 65.7099C63.6519 65.7218 63.6378 65.7337 63.6157 65.7417C63.5956 65.7496 63.5694 65.7576 63.5352 65.7616C63.503 65.7656 63.4608 65.7675 63.4125 65.7675C63.3602 65.7675 63.3179 65.7656 63.2857 65.7616C63.2515 65.7576 63.2253 65.7496 63.2072 65.7417C63.1871 65.7317 63.173 65.7198 63.169 65.7099C63.1609 65.698 63.1569 65.682 63.1569 65.6641V65.2606C62.9799 65.4534 62.8068 65.5926 62.6338 65.6801C62.4628 65.7675 62.2897 65.8113 62.1127 65.8113C61.9074 65.8113 61.7324 65.7775 61.5935 65.7099C61.4527 65.6443 61.338 65.5508 61.2535 65.4335C61.165 65.3182 61.1046 65.183 61.0664 65.028C61.0282 64.8729 61.01 64.684 61.01 64.4633V62.6124C61.01 62.5925 61.0121 62.5786 61.0221 62.5647C61.0302 62.5527 61.0443 62.5428 61.0684 62.5309C61.0905 62.5209 61.1207 62.513 61.1569 62.511C61.1931 62.507 61.2394 62.505 61.2938 62.505C61.3501 62.505 61.3944 62.507 61.4306 62.511C61.4668 62.513 61.497 62.5209 61.5191 62.5309C61.5392 62.5408 61.5553 62.5527 61.5654 62.5647C61.5754 62.5766 61.5795 62.5925 61.5795 62.6124V64.3898C61.5795 64.5687 61.5915 64.7118 61.6197 64.8192C61.6459 64.9265 61.6861 65.018 61.7384 65.0936C61.7928 65.1691 61.8612 65.2287 61.9436 65.2705C62.0241 65.3123 62.1207 65.3341 62.2314 65.3341C62.3722 65.3341 62.5151 65.2844 62.6559 65.185C62.7968 65.0856 62.9457 64.9385 63.1046 64.7476V62.6144C63.1046 62.5945 63.1066 62.5806 63.1167 62.5666C63.1247 62.5547 63.1388 62.5448 63.163 62.5328C63.1851 62.5229 63.2133 62.515 63.2495 62.513C63.2857 62.509 63.332 62.507 63.3883 62.507C63.4427 62.507 63.4889 62.509 63.5251 62.513C63.5614 62.515 63.5915 62.5229 63.6117 62.5328C63.6318 62.5428 63.6479 62.5547 63.6579 62.5666C63.67 62.5786 63.674 62.5945 63.674 62.6144V65.6641H63.672ZM67.4265 64.0955C67.4265 64.3599 67.3984 64.5985 67.338 64.8093C67.2797 65.022 67.1952 65.2029 67.0805 65.35C66.9678 65.4991 66.829 65.6144 66.664 65.692C66.501 65.7715 66.3119 65.8113 66.1006 65.8113C66.002 65.8113 65.9115 65.8013 65.827 65.7815C65.7445 65.7616 65.662 65.7317 65.5835 65.688C65.505 65.6443 65.4245 65.5906 65.3441 65.525C65.2636 65.4594 65.1811 65.3799 65.0905 65.2884V65.6641C65.0905 65.682 65.0845 65.698 65.0765 65.7119C65.0664 65.7258 65.0543 65.7357 65.0322 65.7437C65.0121 65.7516 64.9859 65.7576 64.9537 65.7616C64.9215 65.7656 64.8833 65.7675 64.835 65.7675C64.7887 65.7675 64.7485 65.7656 64.7183 65.7616C64.6861 65.7576 64.66 65.7516 64.6398 65.7437C64.6197 65.7357 64.6056 65.7258 64.5996 65.7119C64.5916 65.698 64.5895 65.682 64.5895 65.6641V61.1352C64.5895 61.1173 64.5935 61.1014 64.6016 61.0875C64.6096 61.0736 64.6258 61.0616 64.6479 61.0537C64.668 61.0457 64.6982 61.0378 64.7364 61.0338C64.7726 61.0298 64.8189 61.0258 64.8753 61.0258C64.9316 61.0258 64.9779 61.0278 65.0161 61.0338C65.0543 61.0378 65.0805 61.0457 65.1026 61.0537C65.1227 61.0636 65.1388 61.0736 65.1469 61.0875C65.1569 61.0994 65.1609 61.1153 65.1609 61.1352V62.9583C65.2515 62.8668 65.34 62.7873 65.4266 62.7237C65.5111 62.6621 65.5956 62.6104 65.6781 62.5706C65.7606 62.5309 65.8431 62.503 65.9255 62.4831C66.008 62.4652 66.0945 62.4573 66.1851 62.4573C66.4104 62.4573 66.5996 62.501 66.7606 62.5885C66.9175 62.676 67.0483 62.7953 67.1469 62.9424C67.2455 63.0895 67.3199 63.2645 67.3642 63.4633C67.4044 63.6641 67.4265 63.8729 67.4265 64.0955ZM66.835 64.1591C66.835 64.0041 66.8229 63.851 66.7988 63.7039C66.7766 63.5547 66.7344 63.4255 66.674 63.3122C66.6137 63.1989 66.5352 63.1074 66.4366 63.0398C66.338 62.9702 66.2153 62.9344 66.0684 62.9344C65.996 62.9344 65.9235 62.9444 65.8531 62.9643C65.7827 62.9861 65.7102 63.0199 65.6378 63.0676C65.5634 63.1154 65.4869 63.177 65.4104 63.2525C65.33 63.3261 65.2455 63.4215 65.1569 63.5349V64.7516C65.3139 64.9405 65.4608 65.0836 65.6036 65.183C65.7445 65.2804 65.8934 65.3321 66.0483 65.3321C66.1891 65.3321 66.3119 65.2983 66.4105 65.2307C66.5111 65.1631 66.5936 65.0737 66.6559 64.9604C66.7183 64.849 66.7646 64.7238 66.7927 64.5846C66.8209 64.4434 66.835 64.3023 66.835 64.1591ZM68.7123 65.6641C68.7123 65.682 68.7083 65.698 68.6982 65.7099C68.6881 65.7218 68.674 65.7337 68.6539 65.7417C68.6318 65.7496 68.6056 65.7576 68.5674 65.7616C68.5312 65.7656 68.4849 65.7675 68.4265 65.7675C68.3702 65.7675 68.326 65.7656 68.2897 65.7616C68.2515 65.7576 68.2213 65.7496 68.2012 65.7417C68.1791 65.7317 68.163 65.7198 68.1549 65.7099C68.1469 65.698 68.1429 65.682 68.1429 65.6641V62.6124C68.1429 62.5965 68.1469 62.5806 68.1549 62.5686C68.163 62.5547 68.1791 62.5428 68.2012 62.5348C68.2213 62.5269 68.2515 62.5189 68.2897 62.515C68.326 62.511 68.3722 62.507 68.4265 62.507C68.4849 62.507 68.5312 62.509 68.5674 62.515C68.6056 62.5189 68.6338 62.5269 68.6539 62.5348C68.674 62.5448 68.6901 62.5547 68.6982 62.5686C68.7083 62.5806 68.7123 62.5965 68.7123 62.6124V65.6641ZM68.7766 61.5825C68.7766 61.7137 68.7505 61.8032 68.7002 61.8509C68.6499 61.8986 68.5573 61.9225 68.4205 61.9225C68.2877 61.9225 68.1972 61.9006 68.1469 61.8529C68.0986 61.8052 68.0744 61.7177 68.0744 61.5885C68.0744 61.4573 68.1006 61.3678 68.1489 61.3201C68.1992 61.2724 68.2917 61.2485 68.4286 61.2485C68.5614 61.2485 68.6519 61.2724 68.7022 61.3181C68.7525 61.3658 68.7766 61.4533 68.7766 61.5825ZM71.0261 65.7496L70.6157 66.8729C70.6016 66.9087 70.5654 66.9366 70.511 66.9564C70.4547 66.9763 70.3702 66.9843 70.2555 66.9843C70.1972 66.9843 70.1489 66.9823 70.1106 66.9763C70.0744 66.9704 70.0463 66.9604 70.0262 66.9465C70.008 66.9326 69.998 66.9147 69.994 66.8928C69.9899 66.8709 69.996 66.8431 70.01 66.8113L70.4366 65.7496C70.4165 65.7397 70.3964 65.7238 70.3783 65.7059C70.3602 65.684 70.3461 65.6641 70.34 65.6403L69.2374 62.7237C69.2193 62.676 69.2113 62.6382 69.2113 62.6124C69.2113 62.5845 69.2193 62.5627 69.2374 62.5468C69.2555 62.5309 69.2857 62.5209 69.326 62.515C69.3662 62.509 69.4225 62.507 69.4909 62.507C69.5593 62.507 69.6117 62.509 69.6519 62.513C69.6901 62.515 69.7223 62.5229 69.7445 62.5328C69.7666 62.5408 69.7827 62.5547 69.7927 62.5706C69.8028 62.5885 69.8149 62.6104 69.8249 62.6402L70.7062 65.0896H70.7163L71.5654 62.6283C71.5795 62.5845 71.5956 62.5567 71.6157 62.5448C71.6358 62.5328 71.664 62.5229 71.7022 62.5169C71.7424 62.511 71.7988 62.509 71.8712 62.509C71.9356 62.509 71.9879 62.511 72.0282 62.5169C72.0684 62.5229 72.1006 62.5328 72.1187 62.5487C72.1388 62.5647 72.1469 62.5865 72.1469 62.6144C72.1469 62.6402 72.1388 62.676 72.1267 62.7158L71.0261 65.7496ZM74.8873 65.6681C74.8873 65.696 74.8773 65.7158 74.8612 65.7298C74.8431 65.7437 74.8189 65.7516 74.7847 65.7596C74.7525 65.7675 74.7062 65.7695 74.6438 65.7695C74.5855 65.7695 74.5372 65.7655 74.503 65.7596C74.4688 65.7536 74.4426 65.7437 74.4245 65.7298C74.4084 65.7158 74.4004 65.696 74.4004 65.6681V65.3639C74.2656 65.5051 74.1147 65.6164 73.9497 65.696C73.7827 65.7735 73.6076 65.8133 73.4225 65.8133C73.2596 65.8133 73.1106 65.7934 72.9799 65.7516C72.8491 65.7099 72.7364 65.6482 72.6439 65.5687C72.5513 65.4892 72.4789 65.3918 72.4265 65.2784C72.3742 65.1631 72.3481 65.0319 72.3481 64.8848C72.3481 64.7118 72.3843 64.5627 72.4547 64.4375C72.5251 64.3102 72.6278 64.2049 72.7606 64.1214C72.8913 64.0379 73.0543 63.9742 73.2475 63.9325C73.4386 63.8907 73.6559 63.8689 73.8954 63.8689H74.3219V63.6303C74.3219 63.513 74.3078 63.4096 74.2837 63.3182C74.2595 63.2287 74.2193 63.1531 74.163 63.0935C74.1066 63.0339 74.0342 62.9881 73.9457 62.9583C73.8571 62.9265 73.7465 62.9126 73.6157 62.9126C73.4769 62.9126 73.3501 62.9285 73.2414 62.9623C73.1308 62.9961 73.0342 63.0319 72.9497 63.0716C72.8672 63.1114 72.7968 63.1492 72.7404 63.181C72.6841 63.2148 72.6439 63.2307 72.6157 63.2307C72.5976 63.2307 72.5815 63.2267 72.5674 63.2168C72.5533 63.2088 72.5412 63.1949 72.5312 63.177C72.5211 63.1591 72.5131 63.1372 72.509 63.1094C72.505 63.0796 72.503 63.0498 72.503 63.016C72.503 62.9603 72.507 62.9146 72.5151 62.8828C72.5231 62.8509 72.5432 62.8191 72.5734 62.7893C72.6036 62.7615 72.6579 62.7257 72.7324 62.6859C72.8068 62.6462 72.8954 62.6104 72.994 62.5766C73.0905 62.5448 73.1992 62.5169 73.3159 62.4931C73.4326 62.4712 73.5513 62.4613 73.668 62.4613C73.8893 62.4613 74.0784 62.4851 74.2334 62.5348C74.3883 62.5845 74.5151 62.6581 74.6097 62.7555C74.7062 62.8509 74.7746 62.9702 74.8189 63.1134C74.8612 63.2565 74.8833 63.4235 74.8833 63.6124V65.6681H74.8873ZM74.326 64.2705H73.841C73.6861 64.2705 73.5513 64.2824 73.4366 64.3102C73.3219 64.3341 73.2274 64.3739 73.1509 64.4255C73.0765 64.4752 73.0201 64.5369 72.9839 64.6084C72.9477 64.68 72.9316 64.7635 72.9316 64.855C72.9316 65.014 72.9819 65.1393 73.0845 65.2327C73.1871 65.3262 73.328 65.3739 73.5111 65.3739C73.6579 65.3739 73.7968 65.3361 73.9235 65.2606C74.0503 65.187 74.1831 65.0717 74.3219 64.9186V64.2705H74.326ZM77.33 65.4375C77.33 65.5031 77.3259 65.5548 77.3159 65.5946C77.3078 65.6323 77.2938 65.6622 77.2736 65.6781C77.2555 65.6979 77.2294 65.7139 77.1911 65.7298C77.1549 65.7457 77.1127 65.7576 77.0664 65.7695C77.0181 65.7795 76.9698 65.7874 76.9175 65.7934C76.8652 65.7993 76.8129 65.8033 76.7606 65.8033C76.6016 65.8033 76.4628 65.7814 76.3501 65.7397C76.2354 65.6979 76.1429 65.6343 76.0684 65.5488C75.996 65.4653 75.9437 65.358 75.9095 65.2268C75.8773 65.0975 75.8612 64.9444 75.8612 64.7695V62.9901H75.4265C75.3923 62.9901 75.3642 62.9702 75.342 62.9364C75.3219 62.9007 75.3119 62.841 75.3119 62.7595C75.3119 62.7158 75.3139 62.68 75.3199 62.6521C75.3259 62.6223 75.334 62.5985 75.342 62.5786C75.3501 62.5587 75.3642 62.5468 75.3783 62.5388C75.3944 62.5309 75.4105 62.5269 75.4286 62.5269H75.8591V61.8012C75.8591 61.7853 75.8611 61.7694 75.8712 61.7575C75.8793 61.7436 75.8954 61.7316 75.9175 61.7217C75.9376 61.7118 75.9678 61.7038 76.006 61.6998C76.0422 61.6958 76.0865 61.6939 76.1448 61.6939C76.2032 61.6939 76.2475 61.6958 76.2857 61.6998C76.3239 61.7038 76.3501 61.7118 76.3722 61.7217C76.3923 61.7316 76.4084 61.7436 76.4165 61.7575C76.4266 61.7694 76.4306 61.7853 76.4306 61.8012V62.5269H77.2173C77.2354 62.5269 77.2515 62.5309 77.2656 62.5388C77.2797 62.5468 77.2917 62.5607 77.3018 62.5786C77.3118 62.5985 77.3199 62.6223 77.3239 62.6521C77.328 62.68 77.33 62.7158 77.33 62.7595C77.33 62.843 77.3199 62.9007 77.2998 62.9364C77.2797 62.9722 77.2515 62.9901 77.2173 62.9901H76.4306V64.688C76.4306 64.8967 76.4628 65.0558 76.5251 65.1631C76.5875 65.2705 76.7002 65.3242 76.8612 65.3242C76.9115 65.3242 76.9597 65.3202 77 65.3083C77.0402 65.2983 77.0785 65.2864 77.1086 65.2765C77.1408 65.2645 77.167 65.2546 77.1911 65.2447C77.2133 65.2347 77.2334 65.2287 77.2515 65.2287C77.2636 65.2287 77.2736 65.2307 77.2837 65.2367C77.2937 65.2427 77.3018 65.2526 77.3058 65.2685C77.3119 65.2844 77.3159 65.3063 77.3219 65.3321C77.326 65.362 77.33 65.3958 77.33 65.4375ZM82.4024 64.1015C82.4024 64.35 82.3702 64.5786 82.3038 64.7874C82.2374 64.9961 82.1388 65.1771 82.008 65.3282C81.8772 65.4792 81.7123 65.5985 81.5151 65.682C81.3159 65.7675 81.0865 65.8093 80.8269 65.8093C80.5734 65.8093 80.3521 65.7715 80.163 65.698C79.9738 65.6244 79.8169 65.515 79.6921 65.3719C79.5674 65.2288 79.4728 65.0558 79.4105 64.853C79.3481 64.6482 79.3179 64.4196 79.3179 64.1611C79.3179 63.9126 79.3521 63.684 79.4145 63.4752C79.4809 63.2645 79.5795 63.0855 79.7103 62.9344C79.841 62.7833 80.004 62.6661 80.2012 62.5806C80.3984 62.4971 80.6278 62.4553 80.8893 62.4553C81.1429 62.4553 81.3642 62.4931 81.5533 62.5686C81.7424 62.6422 81.8994 62.7515 82.0241 62.8927C82.1489 63.0358 82.2434 63.2088 82.3078 63.4116C82.3702 63.6164 82.4024 63.847 82.4024 64.1015ZM81.8109 64.1373C81.8109 63.9722 81.7948 63.8152 81.7646 63.6701C81.7344 63.5229 81.6821 63.3957 81.6096 63.2844C81.5392 63.173 81.4427 63.0855 81.3199 63.0219C81.2012 62.9563 81.0463 62.9245 80.8652 62.9245C80.6982 62.9245 80.5533 62.9523 80.4326 63.012C80.3119 63.0716 80.2133 63.1551 80.1348 63.2625C80.0563 63.3699 79.998 63.4971 79.9618 63.6442C79.9235 63.7913 79.9054 63.9524 79.9054 64.1253C79.9054 64.2923 79.9195 64.4514 79.9517 64.5965C79.9819 64.7436 80.0342 64.8729 80.1066 64.9822C80.1791 65.0916 80.2756 65.179 80.3964 65.2427C80.5171 65.3083 80.67 65.3401 80.8511 65.3401C81.0161 65.3401 81.1589 65.3122 81.2797 65.2526C81.4024 65.193 81.501 65.1114 81.5795 65.0041C81.6579 64.8987 81.7143 64.7695 81.7525 64.6244C81.7928 64.4752 81.8109 64.3142 81.8109 64.1373Z" fill="#1D1D1B"/>
<path d="M87.6862 65.6656C87.6862 65.6835 87.6822 65.6995 87.6721 65.7114C87.6621 65.7233 87.648 65.7352 87.6279 65.7432C87.6078 65.7511 87.5796 65.7591 87.5413 65.7631C87.5051 65.767 87.4589 65.769 87.4045 65.769C87.3462 65.769 87.2999 65.767 87.2637 65.7631C87.2275 65.7591 87.1993 65.7511 87.1752 65.7432C87.153 65.7332 87.1389 65.7213 87.1289 65.7114C87.1188 65.6995 87.1148 65.6835 87.1148 65.6656V63.8107C87.1148 63.6815 87.1027 63.5622 87.0806 63.4568C87.0564 63.3495 87.0222 63.26 86.9699 63.1825C86.9196 63.1049 86.8552 63.0473 86.7788 63.0075C86.7023 62.9678 86.6098 62.9459 86.5051 62.9459C86.3744 62.9459 86.2436 62.9956 86.1148 63.095C85.984 63.1944 85.8391 63.3395 85.6822 63.5324V65.6656C85.6822 65.6835 85.6782 65.6995 85.6681 65.7114C85.6601 65.7233 85.644 65.7352 85.6218 65.7432C85.5997 65.7511 85.5715 65.7591 85.5333 65.7631C85.4971 65.767 85.4508 65.769 85.3965 65.769C85.3422 65.769 85.2979 65.767 85.2597 65.7631C85.2214 65.7591 85.1913 65.7511 85.1711 65.7432C85.149 65.7332 85.1329 65.7213 85.1248 65.7114C85.1168 65.6995 85.1128 65.6835 85.1128 65.6656V63.8107C85.1128 63.6815 85.1007 63.5622 85.0745 63.4568C85.0484 63.3495 85.0122 63.26 84.9619 63.1825C84.9116 63.1049 84.8472 63.0473 84.7727 63.0075C84.6963 62.9678 84.6057 62.9459 84.5011 62.9459C84.3703 62.9459 84.2395 62.9956 84.1067 63.095C83.9739 63.1944 83.8311 63.3395 83.6741 63.5324V65.6656C83.6741 65.6835 83.6701 65.6995 83.6601 65.7114C83.652 65.7233 83.6379 65.7352 83.6158 65.7432C83.5957 65.7511 83.5675 65.7591 83.5293 65.7631C83.4931 65.767 83.4468 65.769 83.3884 65.769C83.3321 65.769 83.2858 65.767 83.2496 65.7631C83.2114 65.7591 83.1832 65.7511 83.1611 65.7432C83.1389 65.7332 83.1228 65.7213 83.1168 65.7114C83.1087 65.6995 83.1047 65.6835 83.1047 65.6656V62.6139C83.1047 62.594 83.1087 62.5801 83.1148 62.5662C83.1228 62.5542 83.1349 62.5443 83.1571 62.5324C83.1772 62.5224 83.2033 62.5145 83.2355 62.5125C83.2677 62.5085 83.31 62.5065 83.3623 62.5065C83.4126 62.5065 83.4548 62.5085 83.487 62.5125C83.5212 62.5145 83.5474 62.5224 83.5655 62.5324C83.5816 62.5423 83.5977 62.5542 83.6057 62.5662C83.6118 62.5781 83.6178 62.594 83.6178 62.6139V63.0175C83.7908 62.8246 83.9619 62.6835 84.1248 62.594C84.2878 62.5045 84.4548 62.4588 84.6198 62.4588C84.7486 62.4588 84.8633 62.4747 84.9659 62.5025C85.0685 62.5324 85.157 62.5741 85.2355 62.6278C85.314 62.6815 85.3804 62.7451 85.4347 62.8186C85.491 62.8922 85.5353 62.9737 85.5736 63.0652C85.6762 62.9538 85.7727 62.8604 85.8653 62.7829C85.9578 62.7053 86.0464 62.6437 86.1329 62.596C86.2194 62.5483 86.3019 62.5145 86.3824 62.4926C86.4649 62.4707 86.5454 62.4608 86.6259 62.4608C86.8251 62.4608 86.9921 62.4946 87.1269 62.5642C87.2617 62.6337 87.3703 62.7252 87.4548 62.8405C87.5393 62.9558 87.5957 63.091 87.6339 63.2461C87.6681 63.4012 87.6862 63.5642 87.6862 63.7372V65.6656ZM89.155 65.6656C89.155 65.6835 89.151 65.6995 89.141 65.7114C89.1309 65.7233 89.1168 65.7352 89.0967 65.7432C89.0766 65.7511 89.0464 65.7591 89.0102 65.7631C88.9739 65.767 88.9277 65.769 88.8693 65.769C88.813 65.769 88.7687 65.767 88.7305 65.7631C88.6923 65.7591 88.6641 65.7511 88.644 65.7432C88.6218 65.7332 88.6057 65.7213 88.5977 65.7114C88.5896 65.6995 88.5856 65.6835 88.5856 65.6656V62.6139C88.5856 62.598 88.5876 62.5821 88.5977 62.5701C88.6057 62.5562 88.6218 62.5443 88.644 62.5363C88.6641 62.5284 88.6943 62.5204 88.7305 62.5165C88.7667 62.5125 88.813 62.5085 88.8693 62.5085C88.9277 62.5085 88.9739 62.5105 89.0102 62.5165C89.0484 62.5204 89.0766 62.5284 89.0967 62.5363C89.1168 62.5463 89.1309 62.5562 89.141 62.5701C89.151 62.5821 89.155 62.598 89.155 62.6139V65.6656ZM89.2174 61.584C89.2174 61.7152 89.1913 61.8047 89.141 61.8524C89.0907 61.9001 88.9981 61.924 88.8633 61.924C88.7305 61.924 88.6379 61.9021 88.5896 61.8544C88.5414 61.8067 88.5152 61.7192 88.5152 61.59C88.5152 61.4588 88.5393 61.3693 88.5917 61.3216C88.642 61.2739 88.7345 61.25 88.8713 61.25C89.0061 61.25 89.0967 61.2739 89.145 61.3196C89.1933 61.3673 89.2174 61.4548 89.2174 61.584ZM90.6319 65.6656C90.6319 65.6835 90.6279 65.6995 90.6178 65.7114C90.6077 65.7233 90.5957 65.7352 90.5735 65.7432C90.5534 65.7511 90.5252 65.7591 90.487 65.7631C90.4508 65.767 90.4045 65.769 90.3462 65.769C90.2898 65.769 90.2436 65.767 90.2073 65.7631C90.1691 65.7591 90.141 65.7511 90.1188 65.7432C90.0967 65.7332 90.0806 65.7213 90.0725 65.7114C90.0645 65.6995 90.0605 65.6835 90.0605 65.6656V61.1367C90.0605 61.1188 90.0645 61.1029 90.0725 61.089C90.0806 61.0751 90.0947 61.0631 90.1188 61.0552C90.1389 61.0472 90.1691 61.0393 90.2073 61.0353C90.2436 61.0313 90.2898 61.0273 90.3462 61.0273C90.4025 61.0273 90.4508 61.0293 90.487 61.0353C90.5252 61.0393 90.5534 61.0472 90.5735 61.0552C90.5957 61.0651 90.6098 61.0751 90.6178 61.089C90.6279 61.1009 90.6319 61.1168 90.6319 61.1367V65.6656ZM92.1088 65.6656C92.1088 65.6835 92.1047 65.6995 92.0947 65.7114C92.0846 65.7233 92.0725 65.7352 92.0504 65.7432C92.0303 65.7511 92.0021 65.7591 91.9639 65.7631C91.9277 65.767 91.8794 65.769 91.823 65.769C91.7667 65.769 91.7204 65.767 91.6862 65.7631C91.648 65.7591 91.6198 65.7511 91.5977 65.7432C91.5756 65.7332 91.5595 65.7213 91.5514 65.7114C91.5434 65.6995 91.5393 65.6835 91.5393 65.6656V61.1367C91.5393 61.1188 91.5434 61.1029 91.5514 61.089C91.5595 61.0751 91.5756 61.0631 91.5977 61.0552C91.6178 61.0472 91.648 61.0393 91.6862 61.0353C91.7224 61.0313 91.7687 61.0273 91.823 61.0273C91.8814 61.0273 91.9277 61.0293 91.9639 61.0353C92.0021 61.0393 92.0303 61.0472 92.0504 61.0552C92.0725 61.0651 92.0866 61.0751 92.0947 61.089C92.1047 61.1009 92.1088 61.1168 92.1088 61.1367V65.6656ZM95.3442 65.6696C95.3442 65.6975 95.3341 65.7173 95.318 65.7313C95.2979 65.7452 95.2737 65.7531 95.2415 65.7611C95.2094 65.769 95.1631 65.771 95.1007 65.771C95.0424 65.771 94.9941 65.767 94.9599 65.7611C94.9236 65.7551 94.8995 65.7452 94.8814 65.7313C94.8653 65.7173 94.8572 65.6975 94.8572 65.6696V65.3654C94.7224 65.5066 94.5735 65.6179 94.4065 65.6975C94.2395 65.775 94.0645 65.8148 93.8794 65.8148C93.7164 65.8148 93.5695 65.7949 93.4367 65.7531C93.3059 65.7114 93.1933 65.6497 93.1007 65.5702C93.0081 65.4907 92.9357 65.3933 92.8834 65.2799C92.8331 65.1646 92.8049 65.0334 92.8049 64.8863C92.8049 64.7133 92.8412 64.5642 92.9116 64.439C92.982 64.3117 93.0826 64.2064 93.2174 64.1229C93.3502 64.0394 93.5112 63.9757 93.7043 63.934C93.8975 63.8922 94.1128 63.8704 94.3542 63.8704H94.7808V63.6318C94.7808 63.5145 94.7687 63.4111 94.7426 63.3197C94.7184 63.2302 94.6782 63.1546 94.6218 63.095C94.5655 63.0353 94.493 62.9896 94.4045 62.9598C94.316 62.928 94.2053 62.9141 94.0746 62.9141C93.9357 62.9141 93.8089 62.93 93.7003 62.9638C93.5876 62.9976 93.491 63.0334 93.4086 63.0731C93.3261 63.1129 93.2536 63.1507 93.1993 63.1825C93.143 63.2163 93.1027 63.2322 93.0745 63.2322C93.0564 63.2322 93.0403 63.2282 93.0263 63.2183C93.0122 63.2103 93.0001 63.1964 92.99 63.1785C92.978 63.1606 92.9719 63.1387 92.9679 63.1109C92.9639 63.0811 92.9619 63.0513 92.9619 63.0175C92.9619 62.9618 92.9659 62.9161 92.9739 62.8843C92.982 62.8524 93.0021 62.8206 93.0323 62.7908C93.0625 62.763 93.1168 62.7272 93.1913 62.6874C93.2657 62.6477 93.3542 62.6119 93.4528 62.5781C93.5494 62.5463 93.6581 62.5184 93.7748 62.4946C93.8895 62.4727 94.0082 62.4628 94.1269 62.4628C94.3482 62.4628 94.5373 62.4866 94.6923 62.5363C94.8492 62.586 94.9739 62.6596 95.0685 62.757C95.1651 62.8524 95.2335 62.9717 95.2778 63.1149C95.322 63.258 95.3442 63.425 95.3442 63.6139V65.6696ZM94.7828 64.272H94.2999C94.145 64.272 94.0102 64.2839 93.8955 64.3117C93.7828 64.3356 93.6862 64.3754 93.6098 64.427C93.5353 64.4767 93.481 64.5384 93.4428 64.6099C93.4065 64.6815 93.3904 64.765 93.3904 64.8565C93.3904 65.0155 93.4408 65.1408 93.5434 65.2342C93.646 65.3277 93.7868 65.3754 93.9699 65.3754C94.1168 65.3754 94.2556 65.3376 94.3824 65.2621C94.5091 65.1885 94.642 65.0732 94.7808 64.9201V64.272H94.7828ZM98.0564 62.8107C98.0564 62.8604 98.0544 62.9021 98.0524 62.9359C98.0504 62.9697 98.0444 62.9956 98.0383 63.0155C98.0323 63.0354 98.0222 63.0493 98.0122 63.0592C98.0021 63.0691 97.988 63.0751 97.9699 63.0751C97.9518 63.0751 97.9297 63.0711 97.9015 63.0592C97.8753 63.0493 97.8452 63.0373 97.813 63.0294C97.7808 63.0195 97.7425 63.0095 97.7023 62.9996C97.6621 62.9896 97.6158 62.9856 97.5675 62.9856C97.5092 62.9856 97.4548 62.9976 97.3985 63.0194C97.3442 63.0433 97.2858 63.0791 97.2254 63.1328C97.1651 63.1845 97.1007 63.2541 97.0343 63.3395C96.9679 63.425 96.8955 63.5324 96.815 63.6556V65.6637C96.815 65.6816 96.811 65.6975 96.8009 65.7094C96.7908 65.7213 96.7768 65.7332 96.7566 65.7412C96.7365 65.7491 96.7083 65.7571 96.6701 65.7611C96.6339 65.7651 96.5876 65.767 96.5293 65.767C96.4729 65.767 96.4287 65.7651 96.3905 65.7611C96.3522 65.7571 96.324 65.7491 96.3019 65.7412C96.2798 65.7313 96.2637 65.7193 96.2556 65.7094C96.2476 65.6975 96.2436 65.6816 96.2436 65.6637V62.6119C96.2436 62.592 96.2456 62.5781 96.2536 62.5642C96.2597 62.5522 96.2737 62.5423 96.2939 62.5304C96.314 62.5204 96.3401 62.5125 96.3743 62.5105C96.4065 62.5065 96.4488 62.5045 96.5031 62.5045C96.5534 62.5045 96.5957 62.5065 96.6279 62.5105C96.6621 62.5125 96.6882 62.5204 96.7063 62.5304C96.7245 62.5403 96.7385 62.5522 96.7466 62.5642C96.7526 62.5761 96.7587 62.592 96.7587 62.6119V63.0552C96.8432 62.932 96.9216 62.8326 96.9961 62.755C97.0705 62.6795 97.1409 62.6178 97.2073 62.5741C97.2737 62.5304 97.3401 62.5006 97.4045 62.4827C97.4709 62.4648 97.5353 62.4568 97.6017 62.4568C97.6319 62.4568 97.6661 62.4588 97.7023 62.4608C97.7405 62.4648 97.7808 62.4707 97.821 62.4807C97.8613 62.4906 97.8995 62.5005 97.9317 62.5125C97.9639 62.5244 97.988 62.5343 98.0021 62.5463C98.0162 62.5582 98.0242 62.5681 98.0283 62.5781C98.0323 62.588 98.0383 62.6019 98.0424 62.6159C98.0444 62.6318 98.0484 62.6556 98.0484 62.6854C98.0565 62.7192 98.0564 62.759 98.0564 62.8107ZM99.1349 65.6656C99.1349 65.6835 99.1309 65.6995 99.1208 65.7114C99.1108 65.7233 99.0967 65.7352 99.0766 65.7432C99.0544 65.7511 99.0283 65.7591 98.99 65.7631C98.9538 65.767 98.9055 65.769 98.8492 65.769C98.7929 65.769 98.7466 65.767 98.7124 65.7631C98.6741 65.7591 98.646 65.7511 98.6239 65.7432C98.6017 65.7332 98.5876 65.7213 98.5776 65.7114C98.5695 65.6995 98.5655 65.6835 98.5655 65.6656V62.6139C98.5655 62.598 98.5695 62.5821 98.5776 62.5701C98.5856 62.5562 98.6017 62.5443 98.6239 62.5363C98.646 62.5284 98.6741 62.5204 98.7124 62.5165C98.7486 62.5125 98.7949 62.5085 98.8492 62.5085C98.9076 62.5085 98.9538 62.5105 98.99 62.5165C99.0283 62.5204 99.0544 62.5284 99.0766 62.5363C99.0967 62.5463 99.1128 62.5562 99.1208 62.5701C99.1289 62.5821 99.1349 62.598 99.1349 62.6139V65.6656ZM99.1973 61.584C99.1973 61.7152 99.1711 61.8047 99.1208 61.8524C99.0705 61.9001 98.978 61.924 98.8411 61.924C98.7063 61.924 98.6158 61.9021 98.5675 61.8544C98.5172 61.8067 98.4931 61.7192 98.4931 61.59C98.4931 61.4588 98.5192 61.3693 98.5695 61.3216C98.6198 61.2739 98.7124 61.25 98.8472 61.25C98.98 61.25 99.0725 61.2739 99.1208 61.3196C99.1731 61.3673 99.1973 61.4548 99.1973 61.584Z" fill="#1D1D1B"/>
</svg>
