<svg width="64" height="64" viewBox="0 0 64 64" fill="none" xmlns="http://www.w3.org/2000/svg">
<path d="M18.0265 58.6667H45.9731C53.3331 58.6667 56.2665 54.16 56.6131 48.6667L57.9998 26.64C58.3731 20.88 53.7865 16 47.9998 16C46.3731 16 44.8798 15.0667 44.1331 13.6267L42.2131 9.76004C40.9865 7.33337 37.7865 5.33337 35.0665 5.33337H28.9598C26.2131 5.33337 23.0131 7.33337 21.7865 9.76004L19.8665 13.6267C19.1198 15.0667 17.6265 16 15.9998 16C10.2131 16 5.62646 20.88 5.9998 26.64L7.38646 48.6667C7.70646 54.16 10.6665 58.6667 18.0265 58.6667Z" stroke="#E30613" stroke-width="4" stroke-linecap="round" stroke-linejoin="round"/>
<path d="M28 21.3334H36" stroke="#E30613" stroke-width="4" stroke-linecap="round" stroke-linejoin="round"/>
<path d="M32.0007 48C36.774 48 40.6673 44.1066 40.6673 39.3333C40.6673 34.56 36.774 30.6666 32.0007 30.6666C27.2273 30.6666 23.334 34.56 23.334 39.3333C23.334 44.1066 27.2273 48 32.0007 48Z" stroke="#E30613" stroke-width="4" stroke-linecap="round" stroke-linejoin="round"/>
</svg>
