<svg width="64" height="64" viewBox="0 0 64 64" fill="none" xmlns="http://www.w3.org/2000/svg">
<path d="M47.9999 19.0934C47.8399 19.0667 47.6532 19.0667 47.4932 19.0934C43.8132 18.9601 40.8799 15.9467 40.8799 12.2134C40.8799 8.40005 43.9465 5.33337 47.7599 5.33337C51.5732 5.33337 54.6399 8.42671 54.6399 12.2134C54.6132 15.9467 51.6799 18.9601 47.9999 19.0934Z" stroke="#E30613" stroke-width="4" stroke-linecap="round" stroke-linejoin="round"/>
<path d="M45.2529 38.5065C48.9062 39.1199 52.9329 38.4799 55.7595 36.5865C59.5195 34.0799 59.5195 29.9732 55.7595 27.4665C52.9062 25.5732 48.8262 24.9332 45.1729 25.5732" stroke="#E30613" stroke-width="4" stroke-linecap="round" stroke-linejoin="round"/>
<path d="M15.9193 19.0927C16.0793 19.066 16.266 19.066 16.426 19.0927C20.106 18.9593 23.0393 15.946 23.0393 12.2126C23.0393 8.39931 19.9726 5.33264 16.1593 5.33264C12.346 5.33264 9.2793 8.42598 9.2793 12.2126C9.30596 15.946 12.2393 18.9593 15.9193 19.0927Z" stroke="#E30613" stroke-width="4" stroke-linecap="round" stroke-linejoin="round"/>
<path d="M18.6665 38.5064C15.0132 39.1197 10.9865 38.4797 8.15984 36.5864C4.39984 34.0797 4.39984 29.9731 8.15984 27.4664C11.0132 25.5731 15.0932 24.9331 18.7465 25.5731" stroke="#E30613" stroke-width="4" stroke-linecap="round" stroke-linejoin="round"/>
<path d="M31.9999 39.0145C31.8399 38.9879 31.6532 38.9879 31.4932 39.0145C27.8132 38.8812 24.8799 35.8679 24.8799 32.1345C24.8799 28.3212 27.9465 25.2545 31.7599 25.2545C35.5732 25.2545 38.6399 28.3479 38.6399 32.1345C38.6132 35.8679 35.6799 38.9079 31.9999 39.0145Z" stroke="#E30613" stroke-width="4" stroke-linecap="round" stroke-linejoin="round"/>
<path d="M24.2399 47.4161C20.4799 49.9228 20.4799 54.0295 24.2399 56.5361C28.5066 59.3895 35.4933 59.3895 39.7599 56.5361C43.5199 54.0295 43.5199 49.9228 39.7599 47.4161C35.5199 44.5895 28.5066 44.5895 24.2399 47.4161Z" stroke="#E30613" stroke-width="4" stroke-linecap="round" stroke-linejoin="round"/>
</svg>
