<svg width="64" height="64" viewBox="0 0 64 64" fill="none" xmlns="http://www.w3.org/2000/svg">
<path d="M58.6673 40V24C58.6673 10.6667 53.334 5.33337 40.0006 5.33337H24.0006C10.6673 5.33337 5.33398 10.6667 5.33398 24V40C5.33398 53.3334 10.6673 58.6667 24.0006 58.6667H40.0006C53.334 58.6667 58.6673 53.3334 58.6673 40Z" stroke="#E30613" stroke-width="4" stroke-linecap="round" stroke-linejoin="round"/>
<path d="M6.7207 18.9584H57.2807" stroke="#E30613" stroke-width="4" stroke-linecap="round" stroke-linejoin="round"/>
<path d="M22.7207 5.625V18.585" stroke="#E30613" stroke-width="4" stroke-linecap="round" stroke-linejoin="round"/>
<path d="M41.2793 5.625V17.385" stroke="#E30613" stroke-width="4" stroke-linecap="round" stroke-linejoin="round"/>
<path d="M26 38.5337V35.3337C26 31.227 28.9067 29.547 32.4533 31.6003L35.2267 33.2003L38 34.8003C41.5467 36.8537 41.5467 40.2137 38 42.267L35.2267 43.867L32.4533 45.467C28.9067 47.5203 26 45.8403 26 41.7337V38.5337V38.5337Z" stroke="#E30613" stroke-width="4" stroke-miterlimit="10" stroke-linecap="round" stroke-linejoin="round"/>
</svg>
